<svg width="48" height="49" viewBox="0 0 48 49" fill="none" xmlns="http://www.w3.org/2000/svg">
<path d="M24 36.7949C32.8366 36.7949 40 29.6315 40 20.7949C40 11.9584 32.8366 4.79492 24 4.79492C15.1634 4.79492 8 11.9584 8 20.7949C8 29.6315 15.1634 36.7949 24 36.7949Z" stroke="#12201C" stroke-width="4" stroke-linecap="round" stroke-linejoin="round"/>
<path d="M24 26.7949C27.3137 26.7949 30 24.1086 30 20.7949C30 17.4812 27.3137 14.7949 24 14.7949C20.6863 14.7949 18 17.4812 18 20.7949C18 24.1086 20.6863 26.7949 24 26.7949Z" stroke="#12201C" stroke-width="4" stroke-linecap="round" stroke-linejoin="round"/>
<path d="M14 44.7949H34" stroke="#12201C" stroke-width="4" stroke-linecap="round" stroke-linejoin="round"/>
<path d="M24 44.7949V36.7949" stroke="#12201C" stroke-width="4" stroke-linecap="round" stroke-linejoin="round"/>
</svg>
