<svg width="48" height="49" viewBox="0 0 48 49" fill="none" xmlns="http://www.w3.org/2000/svg">
<path d="M42 42.7955C36 42.7955 28 40.7955 28 26.7955V10.7955C28 8.29548 29.512 6.76148 32 6.79548H40C42.5 6.79548 44 8.29548 44 10.7395V22.7955C44 25.2955 42.5 26.7955 40 26.7955C38 26.7955 38 26.7955 38 28.7955V30.7955C38 32.7955 40 34.7955 42 34.7955C44 34.7955 44 34.8115 44 36.8575V40.7955C44 42.7955 44 42.7955 42 42.7955Z" stroke="#12201C" stroke-width="4" stroke-linecap="round" stroke-linejoin="round"/>
<path d="M18 42.7955C12 42.7955 4 40.7955 4 26.7955V10.7955C4 8.29548 5.514 6.76148 8 6.79548H16C18.5 6.79548 20 8.29548 20 10.7395V22.7955C20 25.2955 18.5 26.7955 16 26.7955H14.5C14.5 31.2955 14 34.7955 20 34.7955V40.7955C20 42.7955 20 42.7955 18 42.7955Z" stroke="#12201C" stroke-width="4" stroke-linecap="round" stroke-linejoin="round"/>
</svg>
