<svg width="156" height="32" viewBox="0 0 156 32" fill="none" xmlns="http://www.w3.org/2000/svg">
<path d="M35.0155 22.2946C33.8095 22.2946 32.6408 22.1234 31.5092 21.781C30.3926 21.4385 29.5067 20.9844 28.8516 20.4186L29.8566 18.163C30.4968 18.6692 31.2784 19.0861 32.2016 19.4136C33.1396 19.7263 34.0775 19.8826 35.0155 19.8826C36.1769 19.8826 37.0404 19.6965 37.6062 19.3243C38.1869 18.9521 38.4772 18.4607 38.4772 17.8503C38.4772 17.4036 38.3134 17.0389 37.9859 16.756C37.6732 16.4582 37.2712 16.2274 36.7799 16.0636C36.2885 15.8999 35.6185 15.7137 34.7699 15.5053C33.5788 15.2224 32.611 14.9395 31.8666 14.6566C31.137 14.3738 30.5042 13.9345 29.9682 13.339C29.4471 12.7285 29.1866 11.9096 29.1866 10.8823C29.1866 10.0188 29.4173 9.2371 29.8789 8.53733C30.3553 7.82266 31.0626 7.25688 32.0006 6.84C32.9534 6.42311 34.1148 6.21466 35.4845 6.21466C36.4374 6.21466 37.3754 6.33378 38.2985 6.572C39.2216 6.81022 40.0182 7.15266 40.6882 7.59933L39.7725 9.85499C39.0876 9.45299 38.373 9.14777 37.6285 8.93932C36.8841 8.73088 36.162 8.62666 35.4622 8.62666C34.3158 8.62666 33.4597 8.82021 32.8939 9.20732C32.343 9.59443 32.0676 10.1081 32.0676 10.7483C32.0676 11.195 32.2239 11.5598 32.5366 11.8426C32.8641 12.1255 33.2736 12.3489 33.7649 12.5126C34.2562 12.6764 34.9262 12.8625 35.7749 13.071C36.9362 13.339 37.8891 13.6219 38.6335 13.9196C39.378 14.2025 40.0108 14.6418 40.5319 15.2373C41.0679 15.8329 41.3359 16.6369 41.3359 17.6493C41.3359 18.5129 41.0976 19.2945 40.6212 19.9943C40.1596 20.6941 39.4524 21.2524 38.4995 21.6693C37.5466 22.0862 36.3853 22.2946 35.0155 22.2946Z" fill="#12201C"/>
<path d="M50.7137 10.0113C52.2175 10.0113 53.4235 10.4505 54.3317 11.329C55.2399 12.2074 55.6941 13.5102 55.6941 15.2373V22.0713H52.9024V15.5946C52.9024 14.5524 52.6567 13.7708 52.1654 13.2496C51.6741 12.7136 50.9743 12.4456 50.0661 12.4456C49.0387 12.4456 48.2273 12.7583 47.6317 13.3836C47.0362 13.9941 46.7384 14.88 46.7384 16.0413V22.0713H43.9468V10.1453H46.6044V11.6863C47.066 11.1354 47.6466 10.7185 48.3464 10.4357C49.0462 10.1528 49.8353 10.0113 50.7137 10.0113Z" fill="#12201C"/>
<path d="M71.0025 10.1453V22.0713H68.3448V20.5303C67.8833 21.0961 67.31 21.5204 66.6251 21.8033C65.9551 22.0862 65.2107 22.2276 64.3918 22.2276C63.2305 22.2276 62.1883 21.9745 61.2652 21.4683C60.3569 20.9621 59.6423 20.2474 59.1212 19.3243C58.6149 18.4012 58.3618 17.3292 58.3618 16.1083C58.3618 14.8874 58.6149 13.8229 59.1212 12.9146C59.6423 11.9915 60.3569 11.2769 61.2652 10.7707C62.1883 10.2644 63.2305 10.0113 64.3918 10.0113C65.166 10.0113 65.8733 10.1453 66.5135 10.4133C67.1686 10.6813 67.7344 11.0759 68.2108 11.597V10.1453H71.0025ZM64.7045 19.838C65.7318 19.838 66.5805 19.4955 67.2505 18.8106C67.9205 18.1257 68.2555 17.225 68.2555 16.1083C68.2555 14.9916 67.9205 14.0909 67.2505 13.406C66.5805 12.7211 65.7318 12.3786 64.7045 12.3786C63.6772 12.3786 62.8285 12.7211 62.1585 13.406C61.5034 14.0909 61.1758 14.9916 61.1758 16.1083C61.1758 17.225 61.5034 18.1257 62.1585 18.8106C62.8285 19.4955 63.6772 19.838 64.7045 19.838Z" fill="#12201C"/>
<path d="M80.1267 22.2276C78.8909 22.2276 77.7817 21.9671 76.799 21.446C75.8163 20.9248 75.0496 20.2027 74.4987 19.2796C73.9478 18.3416 73.6723 17.2845 73.6723 16.1083C73.6723 14.9321 73.9478 13.8824 74.4987 12.9593C75.0496 12.0362 75.8089 11.3141 76.7767 10.793C77.7593 10.2719 78.876 10.0113 80.1267 10.0113C81.3029 10.0113 82.3302 10.2495 83.2086 10.726C84.102 11.2024 84.772 11.8873 85.2186 12.7806L83.0746 14.0313C82.7322 13.4804 82.3004 13.071 81.7793 12.803C81.2731 12.5201 80.7148 12.3786 80.1043 12.3786C79.0621 12.3786 78.1985 12.7211 77.5137 13.406C76.8288 14.076 76.4863 14.9768 76.4863 16.1083C76.4863 17.2399 76.8213 18.1481 77.4913 18.833C78.1762 19.503 79.0472 19.838 80.1043 19.838C80.7148 19.838 81.2731 19.704 81.7793 19.436C82.3004 19.1531 82.7322 18.7362 83.0746 18.1853L85.2186 19.436C84.7571 20.3293 84.0796 21.0216 83.1863 21.513C82.3079 21.9894 81.288 22.2276 80.1267 22.2276Z" fill="#12201C"/>
<path d="M92.3915 16.957L90.3145 18.9223V22.0713H87.5228V5.5H90.3145V15.5053L96.0988 10.1453H99.4488L94.4685 15.148L99.9178 22.0713H96.5231L92.3915 16.957Z" fill="#12201C"/>
<path d="M101.989 6.438H108.823C110.491 6.438 111.972 6.76555 113.267 7.42066C114.563 8.06088 115.568 8.97655 116.282 10.1677C116.997 11.3439 117.354 12.7062 117.354 14.2546C117.354 15.8031 116.997 17.1729 116.282 18.364C115.568 19.5402 114.563 20.4558 113.267 21.111C111.972 21.7512 110.491 22.0713 108.823 22.0713H101.989V6.438ZM108.689 19.6146C109.835 19.6146 110.84 19.3987 111.704 18.967C112.582 18.5203 113.252 17.895 113.714 17.091C114.19 16.2721 114.429 15.3266 114.429 14.2546C114.429 13.1826 114.19 12.2446 113.714 11.4407C113.252 10.6218 112.582 9.99643 111.704 9.56466C110.84 9.11799 109.835 8.89466 108.689 8.89466H104.892V19.6146H108.689Z" fill="#12201C"/>
<path d="M131.718 10.1453V22.0713H129.061V20.5526C128.614 21.0886 128.056 21.5055 127.386 21.8033C126.716 22.0862 125.994 22.2276 125.219 22.2276C123.626 22.2276 122.368 21.7884 121.445 20.91C120.537 20.0166 120.083 18.699 120.083 16.957V10.1453H122.874V16.5773C122.874 17.6493 123.113 18.4533 123.589 18.9893C124.08 19.5104 124.773 19.771 125.666 19.771C126.664 19.771 127.453 19.4657 128.033 18.8553C128.629 18.23 128.927 17.3366 128.927 16.1753V10.1453H131.718Z" fill="#12201C"/>
<path d="M142.074 21.4236C141.746 21.6916 141.344 21.8926 140.868 22.0266C140.406 22.1606 139.915 22.2276 139.394 22.2276C138.083 22.2276 137.071 21.8852 136.356 21.2003C135.642 20.5154 135.284 19.5178 135.284 18.2076V7.50999H138.076V10.2347H141.27V12.468H138.076V18.1406C138.076 18.7213 138.217 19.168 138.5 19.4806C138.798 19.7784 139.207 19.9273 139.729 19.9273C140.354 19.9273 140.875 19.7635 141.292 19.436L142.074 21.4236Z" fill="#12201C"/>
<path d="M155.927 10.1453V20.2623C155.927 24.4609 153.865 26.5603 149.741 26.5603C148.654 26.5603 147.612 26.4114 146.614 26.1136C145.632 25.8307 144.82 25.4138 144.18 24.8629L145.431 22.7636C145.937 23.1954 146.555 23.5378 147.284 23.7909C148.014 24.0441 148.781 24.1706 149.585 24.1706C150.806 24.1706 151.699 23.8728 152.265 23.2773C152.845 22.6966 153.136 21.7958 153.136 20.575V20.0166C152.689 20.508 152.146 20.8876 151.505 21.1556C150.865 21.4087 150.173 21.5353 149.428 21.5353C147.835 21.5353 146.577 21.0961 145.654 20.2176C144.746 19.3392 144.292 18.0215 144.292 16.2646V10.1453H147.083V15.9073C147.083 16.9644 147.322 17.761 147.798 18.297C148.289 18.8181 148.982 19.0786 149.875 19.0786C150.873 19.0786 151.662 18.7734 152.242 18.163C152.838 17.5525 153.136 16.6666 153.136 15.5053V10.1453H155.927Z" fill="#12201C"/>
<path fill-rule="evenodd" clip-rule="evenodd" d="M6.74086 1.12598C4.99185 1.9714 3.44934 3.29638 2.12241 5.11257C0.748521 7.16741 0.0742711 9.37113 0.0742188 11.7707C0.0742188 11.7709 0.0742188 11.7711 0.0742188 11.7713C0.0742244 12.0289 0.082001 12.2888 0.0975171 12.551C0.244299 15.0314 1.07003 17.2317 2.61068 19.169C3.20139 19.9118 3.90649 19.9533 4.5718 19.2891C5.29489 18.5672 6.01791 17.8452 6.74086 17.1232V1.12598Z" fill="#12201C"/>
<path fill-rule="evenodd" clip-rule="evenodd" d="M6.74219 17.1252V1.12691C8.30128 0.372888 10.0245 0 11.9054 0C12.3959 0 12.8971 0.0253526 13.4088 0.0759116V10.4637C11.1872 12.6848 8.965 14.9053 6.74219 17.1252Z" fill="#12201C" fill-opacity="0.7"/>
<path fill-rule="evenodd" clip-rule="evenodd" d="M13.4062 10.4583V0.0751953C13.4179 0.0763479 13.4295 0.0775134 13.4412 0.0786921C15.5758 0.294693 17.5056 1.13409 19.1998 2.47725C19.9751 3.09186 20.0448 3.81787 19.3492 4.51395C17.3687 6.49587 15.3877 8.47734 13.4062 10.4583Z" fill="#12201C" fill-opacity="0.4"/>
<path fill-rule="evenodd" clip-rule="evenodd" d="M6.74217 22.3564V31.776C4.99998 31.433 3.37868 30.6964 1.86688 29.5744C0.969054 28.908 0.913536 28.1752 1.69578 27.394C3.37751 25.7144 5.0597 24.0353 6.74217 22.3564Z" fill="#12201C"/>
<path fill-rule="evenodd" clip-rule="evenodd" d="M6.73828 31.7756V22.3585C8.86164 20.2397 10.9854 18.1213 13.1092 16.003L13.4049 15.708V31.1949C12.4481 31.5583 11.431 31.8019 10.3588 31.9378C9.0968 32.0576 7.89107 32.0028 6.73828 31.7756Z" fill="#12201C" fill-opacity="0.7"/>
<path fill-rule="evenodd" clip-rule="evenodd" d="M13.4062 31.1941V15.7059L13.6008 15.5118C14.5132 14.6018 15.4276 13.6939 16.343 12.787C17.1075 12.0296 17.8152 12.0543 18.4515 12.8997C19.8762 14.7928 20.7301 16.8988 20.8767 19.288C21.1083 23.0637 19.8753 26.2643 17.1329 28.8582C16.025 29.9061 14.7776 30.6731 13.4062 31.1941Z" fill="#12201C" fill-opacity="0.4"/>
</svg>
