<svg width="280" height="44" viewBox="0 0 280 44" fill="none" xmlns="http://www.w3.org/2000/svg">
<path fill-rule="evenodd" clip-rule="evenodd" d="M28.4198 0H2.41163C1.45726 0 0.683594 0.773667 0.683594 1.72803V20.9725V28.6046C0.683594 29.0372 1.21852 29.2401 1.50541 28.9164L8.23569 21.3217C8.43247 21.0997 8.71496 20.9725 9.01166 20.9725H28.4198C29.3742 20.9725 30.1478 20.1989 30.1478 19.2445V1.72804C30.1478 0.773668 29.3741 0 28.4198 0ZM125.549 5.62299C125.965 5.2077 126.483 5 127.081 5C127.677 5 128.193 5.20627 128.608 5.61871C129.021 6.00613 129.235 6.48978 129.235 7.0503C129.235 7.64815 129.027 8.16632 128.612 8.58161C128.197 8.99691 127.679 9.20461 127.081 9.20461C126.483 9.20461 125.965 8.99691 125.549 8.58161C125.138 8.16975 124.926 7.66462 124.926 7.08497C124.926 6.52339 125.141 6.03117 125.549 5.62299ZM125.481 13.3089C125.481 12.8561 125.848 12.489 126.301 12.489H127.826C128.279 12.489 128.646 12.8561 128.646 13.3089V30.609C128.646 31.0618 128.279 31.4289 127.826 31.4289H126.301C125.848 31.4289 125.481 31.0618 125.481 30.609V13.3089ZM173.409 5.69161C173.87 5.2306 174.449 5 175.106 5C175.76 5 176.336 5.22822 176.796 5.68449C177.253 6.11452 177.495 6.65859 177.495 7.28456C177.495 7.94198 177.264 8.52052 176.803 8.98153C176.342 9.44254 175.763 9.67314 175.106 9.67314C174.449 9.67314 173.87 9.44254 173.409 8.98153C172.954 8.52624 172.717 7.96173 172.717 7.31923C172.717 6.69146 172.96 6.14076 173.409 5.69161ZM173.272 13.5432C173.272 12.961 173.744 12.489 174.326 12.489H175.851C176.433 12.489 176.905 12.961 176.905 13.5432V30.8433C176.905 31.4255 176.433 31.8975 175.851 31.8975H174.326C173.744 31.8975 173.272 31.4255 173.272 30.8433V13.5432ZM185.344 12.1926C184.697 12.1926 184.172 12.717 184.172 13.3639V14.4725C184.172 15.1194 184.697 15.6438 185.344 15.6438H194.694L184.217 28.9049C184.053 29.1117 183.964 29.3675 183.964 29.631V30.6293C183.964 31.2762 184.489 31.8006 185.136 31.8006H199.038C199.685 31.8006 200.209 31.2762 200.209 30.6293V29.5208C200.209 28.8739 199.685 28.3494 199.038 28.3494H189.264L199.716 15.052C199.878 14.8456 199.967 14.5907 199.967 14.3282V13.3639C199.967 12.717 199.442 12.1926 198.795 12.1926H185.344ZM216.288 12.1926C214.425 12.1926 212.733 12.6162 211.232 13.4809C209.737 14.3428 208.557 15.5498 207.701 17.0859L207.696 17.095C206.862 18.6375 206.453 20.369 206.453 22.2698C206.453 24.1788 206.889 25.9167 207.775 27.4625C208.661 29.0052 209.903 30.2201 211.486 31.0997L211.495 31.1044C213.086 31.9629 214.887 32.3816 216.877 32.3816C218.43 32.3816 219.87 32.11 221.184 31.554C222.362 31.0556 223.377 30.3496 224.22 29.4358C224.677 28.9407 224.646 28.2101 224.238 27.7409L223.47 26.8576C222.941 26.2502 222.053 26.298 221.546 26.8034C221.027 27.3198 220.419 27.7295 219.714 28.0324C218.877 28.3788 217.946 28.5575 216.912 28.5575C215.369 28.5575 214.081 28.18 213.011 27.456C212.206 26.8809 211.592 26.1485 211.164 25.2454L224.792 22.5957C225.403 22.4768 225.867 21.9244 225.825 21.2665C225.721 19.6224 225.278 18.1256 224.484 16.7923C223.649 15.3517 222.504 14.2197 221.06 13.4086C219.632 12.5932 218.035 12.1926 216.288 12.1926ZM213.272 16.7348C214.153 16.2142 215.152 15.9474 216.288 15.9474C217.749 15.9474 218.938 16.3841 219.907 17.2346L219.915 17.2409C220.701 17.915 221.248 18.7366 221.562 19.722L210.488 21.871C210.517 20.7187 210.768 19.7278 211.22 18.8793C211.729 17.9422 212.411 17.2356 213.267 16.7378L213.272 16.7348ZM144.75 12.4963C143.184 12.4963 141.779 12.8099 140.547 13.4506C139.883 13.796 139.294 14.2223 138.783 14.7303C138.777 14.7364 138.762 14.7475 138.728 14.7531C138.693 14.7589 138.649 14.756 138.606 14.7418C138.562 14.7273 138.538 14.7073 138.529 14.6968L138.527 14.6951V13.5721C138.527 13.0545 138.108 12.635 137.59 12.635H136.17C135.652 12.635 135.232 13.0545 135.232 13.5721V30.8534C135.232 31.3709 135.652 31.9029 136.17 31.9029H137.694C138.212 31.9029 138.631 31.3709 138.631 30.8534V21.7714C138.631 19.7969 139.151 18.3183 140.134 17.273C141.14 16.2033 142.5 15.6523 144.265 15.6523C145.856 15.6523 147.01 16.1176 147.801 16.9895L147.805 16.9938C148.622 17.8718 149.066 19.1845 149.066 21.0086V30.8534C149.066 31.3709 149.486 31.9029 150.003 31.9029H151.528C152.046 31.9029 152.465 31.3709 152.465 30.8534V21.7714C152.465 19.7969 152.985 18.3184 153.968 17.273L153.971 17.2696C154.952 16.2046 156.308 15.6523 158.099 15.6523C159.665 15.6523 160.808 16.1162 161.6 16.9895L161.604 16.9938C162.421 17.8718 162.866 19.1845 162.866 21.0086V30.8534C162.866 31.3709 163.285 31.9029 163.803 31.9029H165.327C165.845 31.9029 166.264 31.3709 166.264 30.8534V20.7659C166.264 18.1247 165.585 16.0454 164.152 14.6113C162.75 13.1846 160.827 12.4963 158.445 12.4963C156.759 12.4963 155.236 12.8582 153.889 13.5929C152.873 14.1384 152.032 14.8539 151.371 15.7399C151.363 15.7515 151.336 15.7724 151.284 15.7699C151.232 15.7674 151.206 15.7437 151.198 15.7301C150.629 14.8011 149.874 14.0656 148.937 13.5299C147.744 12.8344 146.342 12.4963 144.75 12.4963ZM109.698 8.74835C109.31 8.74835 108.995 9.06301 108.995 9.45115V26.0756C108.995 27.8062 109.47 29.1789 110.451 30.1591C111.431 31.1399 112.816 31.6146 114.569 31.6146C115.331 31.6146 116.059 31.5075 116.753 31.2921L116.76 31.2897C117.325 31.0951 117.823 30.8356 118.252 30.5095C118.517 30.308 118.573 29.9544 118.437 29.6766L117.999 28.7831C117.79 28.3551 117.255 28.2807 116.897 28.5013C116.33 28.8507 115.639 29.0311 114.812 29.0311C113.838 29.0311 113.134 28.7669 112.659 28.2729C112.182 27.7525 111.925 26.986 111.925 25.9369V15.5186C111.925 15.3893 112.03 15.2844 112.16 15.2844H116.735C117.123 15.2844 117.438 14.9697 117.438 14.5816V13.4384C117.438 13.0502 117.123 12.7356 116.735 12.7356H112.16C112.03 12.7356 111.925 12.6307 111.925 12.5013V9.45115C111.925 9.06301 111.611 8.74835 111.223 8.74835H109.698ZM64.595 32.4971C62.1911 32.4971 60.0068 31.9655 58.0421 30.9022C56.1005 29.8159 54.575 28.3365 53.4655 26.4643C52.3791 24.592 51.8359 22.4886 51.8359 20.1541C51.8359 17.8196 52.3791 15.7162 53.4655 13.8439C54.575 11.9717 56.1005 10.5039 58.0421 9.44065C60.0068 8.35429 62.1911 7.8111 64.595 7.8111C66.9989 7.8111 69.1601 8.34273 71.0785 9.40598C73.0201 10.4692 74.5457 11.9486 75.6552 13.8439C76.7646 15.7162 77.3194 17.8196 77.3194 20.1541C77.3194 22.4886 76.7646 24.6036 75.6552 26.499C74.5457 28.3712 73.0201 29.839 71.0785 30.9022C69.1601 31.9655 66.9989 32.4971 64.595 32.4971ZM64.595 30.2088C66.5135 30.2088 68.247 29.7812 69.7957 28.926C71.3444 28.0476 72.5578 26.8457 73.4362 25.3201C74.3145 23.7715 74.7537 22.0495 74.7537 20.1541C74.7537 18.2587 74.3145 16.5483 73.4362 15.0227C72.5578 13.4741 71.3444 12.2722 69.7957 11.4169C68.247 10.5386 66.5135 10.0994 64.595 10.0994C62.6765 10.0994 60.9314 10.5386 59.3596 11.4169C57.811 12.2722 56.5859 13.4741 55.6845 15.0227C54.8061 16.5483 54.3669 18.2587 54.3669 20.1541C54.3669 22.0495 54.8061 23.7715 55.6845 25.3201C56.5859 26.8457 57.811 28.0476 59.3596 28.926C60.9314 29.7812 62.6765 30.2088 64.595 30.2088ZM93.2082 12.4963C91.6656 12.4963 90.2712 12.8237 89.0276 13.4807C88.2974 13.8739 87.6499 14.3687 87.0874 14.964C86.9634 15.0952 86.7639 15.1268 86.5863 15.0682C86.4094 15.0098 86.2871 14.8743 86.2871 14.7026V13.2207C86.2871 12.8972 86.0249 12.635 85.7014 12.635H84.2808C83.9574 12.635 83.6952 12.8972 83.6952 13.2207V37.247C83.6952 37.5704 83.9574 37.8326 84.2808 37.8326H85.8054C86.1289 37.8326 86.3911 37.5704 86.3911 37.247V29.1434C86.3911 28.973 86.5098 28.8396 86.6803 28.782C86.8515 28.724 87.0457 28.7538 87.1693 28.8827C87.744 29.4823 88.3982 29.9765 89.1315 30.3647L89.134 30.3659C90.3538 30.9758 91.7126 31.2798 93.2082 31.2798C94.9596 31.2798 96.5289 30.894 97.9119 30.1204C99.3177 29.3238 100.419 28.2102 101.216 26.7817C102.012 25.3521 102.409 23.714 102.409 21.8707C102.409 20.0502 102.012 18.4237 101.216 16.9944C100.419 15.5658 99.3175 14.4636 97.9113 13.69C96.5057 12.8936 94.9371 12.4963 93.2082 12.4963ZM87.2088 18.2519C87.8 17.1832 88.5944 16.3554 89.5921 15.7657C90.613 15.176 91.7596 14.8802 93.0349 14.8802C94.2868 14.8802 95.4221 15.1759 96.4434 15.7659C97.4641 16.3557 98.2577 17.1831 98.8256 18.2506L98.827 18.2532C99.4168 19.2966 99.7133 20.5013 99.7133 21.8707C99.7133 23.2401 99.4168 24.4568 98.8265 25.5238L98.8256 25.5255C98.2579 26.5927 97.4646 27.4199 96.4443 28.0096C95.423 28.5768 94.2873 28.8612 93.0349 28.8612C91.7592 28.8612 90.6122 28.5768 89.5913 28.0099C88.5941 27.4203 87.8001 26.5928 87.209 25.5247C86.6416 24.4575 86.3564 23.2405 86.3564 21.8707C86.3564 20.5007 86.6417 19.2955 87.2088 18.2519ZM253.478 34.283C253.332 34.283 253.248 34.1178 253.333 33.9999L262.752 21.0148L253.814 8.50778C253.729 8.38973 253.814 8.2257 253.959 8.2257H260.369C260.427 8.2257 260.481 8.25377 260.515 8.30099L266.435 16.6616L272.246 8.30227C272.279 8.25431 272.334 8.2257 272.392 8.2257H278.501C278.647 8.2257 278.731 8.39055 278.646 8.50851L269.762 20.8089L279.279 34.0003C279.364 34.1183 279.28 34.283 279.135 34.283H272.615C272.557 34.283 272.502 34.2544 272.469 34.2063L266.241 25.2276L260.105 34.2053C260.072 34.2539 260.017 34.283 259.958 34.283H253.478ZM243.33 34.7297C239.632 34.7297 236.741 33.6999 234.656 31.6401C232.572 29.5803 231.529 26.6396 231.529 22.8178V8.40409C231.529 8.30558 231.609 8.22572 231.708 8.22572H237.381C237.48 8.22572 237.56 8.30558 237.56 8.40409V22.5945C237.56 25.0761 238.069 26.8629 239.086 27.9548C240.103 29.0468 241.53 29.5927 243.367 29.5927C245.203 29.5927 246.63 29.0468 247.648 27.9548C248.665 26.8629 249.174 25.0761 249.174 22.5945V8.40409C249.174 8.30558 249.254 8.22572 249.352 8.22572H251.281L255.13 13.6115V22.8178C255.13 26.6396 254.088 29.5803 252.003 31.6401C249.918 33.6999 247.027 34.7297 243.33 34.7297ZM35.6311 11.739H34.456V14.0892H35.6311H40.9133V38.9164L34.8891 32.2434C34.6662 31.9966 34.3493 31.8558 34.0168 31.8558H14.2059V26.3253V25.1502H11.8557V26.3253V32.5608C11.8557 33.4694 12.5923 34.206 13.5008 34.206H33.4946L41.2161 42.7591C41.542 43.12 42.0564 43.243 42.5102 43.0684C42.964 42.8939 43.2635 42.4579 43.2635 41.9717V13.3841C43.2635 12.4755 42.5269 11.739 41.6183 11.739H35.6311Z" fill="url(#paint0_linear_2345_1425)"/>
<defs>
<linearGradient id="paint0_linear_2345_1425" x1="0.68359" y1="43.2617" x2="268.67" y2="-35.9097" gradientUnits="userSpaceOnUse">
<stop stop-color="#12201C"/>
<stop offset="1" stop-color="#204B4B"/>
</linearGradient>
</defs>
</svg>
