<svg width="187" height="32" viewBox="0 0 187 32" fill="none" xmlns="http://www.w3.org/2000/svg">
<g clip-path="url(#clip0_2326_917)">
<path d="M5.94456 26.0003C5.94456 24.4237 5.31826 22.9117 4.20344 21.7969C3.08862 20.682 1.5766 20.0557 0 20.0557V26.0003H5.94456Z" fill="#12201C"/>
<path d="M0 7.94456C1.5766 7.94456 3.08862 7.31826 4.20344 6.20344C5.31826 5.08862 5.94456 3.57659 5.94456 2H0V7.94456Z" fill="#12201C"/>
<path d="M18.0547 26.0003C18.0547 24.4237 18.681 22.9117 19.7958 21.7969C20.9107 20.682 22.4227 20.0557 23.9993 20.0557V26.0003H18.0547Z" fill="#12201C"/>
<path d="M23.9993 7.94456C23.2186 7.94456 22.4456 7.7908 21.7244 7.49206C21.0032 7.19331 20.3478 6.75544 19.7958 6.20344C19.2438 5.65143 18.806 4.99611 18.5072 4.27488C18.2085 3.55366 18.0547 2.78065 18.0547 2H23.9993V7.94456Z" fill="#12201C"/>
<path d="M9.91783 16.0821C9.11986 15.2836 8.22828 14.5845 7.2625 14C5.0713 15.3233 2.55975 16.0216 0 16.0193C1.31121 16.017 2.60997 16.2738 3.82165 16.7749C5.03334 17.276 6.13408 18.0116 7.06065 18.9393C7.98839 19.8659 8.72393 20.9667 9.22501 22.1784C9.72609 23.39 9.98284 24.6888 9.98052 26C9.9783 23.4402 10.6767 20.9287 12 18.7375C11.4154 17.7717 10.7163 16.8801 9.91783 16.0821Z" fill="#12201C"/>
<path d="M9.91783 11.9179C10.7164 11.1199 11.4155 10.2283 12 9.26247C10.6767 7.0713 9.97831 4.55976 9.98052 2C9.98284 3.31121 9.72608 4.60995 9.22499 5.82164C8.7239 7.03333 7.98835 8.13407 7.0606 9.06065C6.13403 9.98839 5.03329 10.7239 3.82161 11.225C2.60993 11.7261 1.3112 11.9828 0 11.9805C2.55975 11.9783 5.07133 12.6767 7.2625 14C8.22828 13.4155 9.11985 12.7164 9.91783 11.9179Z" fill="#12201C"/>
<path d="M0 11.9805V16.0193C2.55975 16.0216 5.0713 15.3233 7.2625 14C5.07133 12.6767 2.55975 11.9783 0 11.9805Z" fill="#12201C"/>
<path d="M14.0821 16.082C13.2836 16.88 12.5845 17.7716 12 18.7374C13.3232 20.9286 14.0216 23.4401 14.0193 25.9999C14.0179 24.6888 14.275 23.3903 14.776 22.1788C15.2771 20.9672 16.0122 19.8664 16.9393 18.9393C17.8663 18.0122 18.9672 17.2771 20.1787 16.7761C21.3903 16.275 22.6888 16.0179 23.9999 16.0194C21.4401 16.0216 18.9285 15.3233 16.7373 14C15.7716 14.5845 14.8801 15.2835 14.0821 16.082Z" fill="#12201C"/>
<path d="M9.98047 25.9998H14.0193C14.0216 23.44 13.3232 20.9285 12 18.7373C10.6767 20.9285 9.97825 23.44 9.98047 25.9998Z" fill="#12201C"/>
<path d="M14.0821 11.9179C14.8801 12.7164 15.7716 13.4156 16.7373 14.0001C18.9285 12.6768 21.4402 11.9783 24 11.9805C22.6888 11.9828 21.39 11.7261 20.1784 11.225C18.9667 10.7239 17.8659 9.9884 16.9393 9.06065C16.0116 8.13407 15.276 7.03332 14.7749 5.82164C14.2738 4.60996 14.017 3.31121 14.0193 2C14.0216 4.55975 13.3233 7.07129 12 9.26247C12.5845 10.2283 13.2836 11.1199 14.0821 11.9179Z" fill="#12201C"/>
<path d="M14.0193 2H9.98047C9.97826 4.55976 10.6767 7.0713 12 9.26247C13.3233 7.07129 14.0216 4.55975 14.0193 2Z" fill="#12201C"/>
<path d="M16.7383 14.0001C18.9295 15.3234 21.4411 16.0217 24.0009 16.0195L24.001 11.9805C21.4412 11.9783 18.9295 12.6768 16.7383 14.0001Z" fill="#12201C"/>
<path d="M61.4878 2.65642C61.9729 2.2324 62.5857 2 63.2187 2C63.8517 2 64.4645 2.2324 64.9496 2.65642C65.1737 2.87111 65.3506 3.13374 65.4683 3.42633C65.586 3.71892 65.6417 4.03457 65.6315 4.35168C65.6403 4.66333 65.5852 4.97334 65.4699 5.26101C65.3545 5.54867 65.1817 5.80735 64.9628 6.01977C64.4726 6.44398 63.8557 6.67617 63.2187 6.67617C62.5817 6.67617 61.9648 6.44398 61.4746 6.01977C61.2557 5.80737 61.0828 5.54869 60.9675 5.26102C60.8522 4.97336 60.7971 4.66333 60.8059 4.35168C60.7956 4.03455 60.8512 3.71886 60.969 3.42625C61.0867 3.13364 61.2637 2.87103 61.4878 2.65642ZM61.1468 8.72266H65.2644V22.2315H61.1468V8.72266Z" fill="#12201C"/>
<path d="M70.8135 29.2867C69.8341 28.8711 68.9913 28.1682 68.3875 27.2631C67.8128 26.3657 67.5154 25.3064 67.5352 24.2275C67.5319 24.0085 67.5406 23.7894 67.5614 23.5714H71.5217C71.4864 24.4643 71.7268 25.1571 72.2428 25.6496C72.7582 26.1419 73.5057 26.388 74.4851 26.3879C75.3592 26.3879 76.0673 26.1829 76.6094 25.7729C76.8645 25.5941 77.0726 25.3515 77.2146 25.0673C77.3567 24.7831 77.4281 24.4663 77.4224 24.1458C77.4367 23.8352 77.3758 23.5257 77.2451 23.2461C77.1145 22.9665 76.9184 22.7257 76.675 22.546C76.1767 22.1724 75.4642 21.9856 74.5374 21.9855C73.2364 22.0161 71.9469 21.7256 70.774 21.1377C69.7377 20.6103 68.8718 19.7787 68.2825 18.7451C67.6809 17.6522 67.3772 16.4088 67.404 15.1491C67.3842 13.9125 67.6977 12.6951 68.3088 11.6351C68.9147 10.6024 69.7872 9.76847 70.8264 9.22858C71.9708 8.63775 73.2345 8.34233 74.5112 8.36723C75.525 8.35541 76.5284 8.57957 77.4486 9.02337L78.9697 7.05469L81.9858 9.32411L80.2549 11.4298C81.1238 12.4541 81.5919 13.7816 81.5662 15.1489C81.5735 16.1218 81.3337 17.0794 80.8712 17.9243C80.3989 18.7818 79.7269 19.5013 78.9173 20.0164C79.7358 20.3881 80.4394 20.9891 80.9498 21.7527C81.4355 22.508 81.6873 23.4004 81.6711 24.3096C81.6884 25.3815 81.3759 26.431 80.7795 27.3041C80.1398 28.2061 79.2662 28.8986 78.2617 29.3003C77.0587 29.7878 75.7756 30.0248 74.4851 29.9977C73.2275 30.0256 71.9777 29.7836 70.8135 29.2867ZM72.3084 17.4595C72.9113 18.0292 73.6952 18.3458 74.5088 18.3483C75.3225 18.3508 76.1082 18.039 76.7143 17.4731C77.2737 16.8899 77.5534 16.1152 77.5536 15.1489C77.5538 14.1826 77.2784 13.4123 76.7275 12.838C76.1767 12.2637 75.438 11.9766 74.5113 11.9766C74.1074 11.9583 73.7042 12.0251 73.3256 12.1731C72.9471 12.3211 72.6011 12.5472 72.3084 12.838C71.7487 13.4123 71.4689 14.1826 71.4691 15.1489C71.4525 15.5731 71.5183 15.9965 71.6625 16.3936C71.8067 16.7906 72.0264 17.1532 72.3084 17.4595Z" fill="#12201C"/>
<path d="M84.293 3.08984H88.4105V10.1998C89.4071 9.01479 90.7271 8.42224 92.3706 8.42212C93.9613 8.42212 95.2246 8.97815 96.1603 10.0902C97.0955 11.2026 97.5632 12.7066 97.5634 14.6022V22.2319H93.4459V14.8485C93.4459 13.9733 93.2404 13.2896 92.8295 12.7974C92.6141 12.5487 92.348 12.3533 92.0508 12.2255C91.7536 12.0978 91.4327 12.041 91.1117 12.0592C90.7467 12.0451 90.383 12.1136 90.0457 12.2599C89.7084 12.4063 89.4055 12.627 89.1578 12.907C88.6438 13.517 88.3759 14.3107 88.4105 15.1219V22.2319H84.293V3.08984Z" fill="#12201C"/>
<path d="M111.523 20.7824L113.097 17.8289C113.777 18.2522 114.516 18.5657 115.286 18.7588C116.096 18.9749 116.929 19.0851 117.765 19.0869C118.901 19.0869 119.469 18.7679 119.47 18.1298C119.471 17.9716 119.427 17.8165 119.343 17.6848C119.258 17.5531 119.138 17.4509 118.997 17.3914C118.496 17.1851 117.963 17.074 117.424 17.0633C115.78 16.9724 114.473 16.544 113.503 15.7782C113.043 15.4388 112.67 14.9872 112.417 14.4629C112.163 13.9385 112.036 13.3573 112.048 12.7701C112.031 12.14 112.166 11.5156 112.441 10.9542C112.716 10.3928 113.122 9.91229 113.621 9.55673C114.67 8.76389 116.086 8.36741 117.87 8.36731C118.848 8.36263 119.822 8.49129 120.768 8.75002C121.609 8.97077 122.41 9.33088 123.141 9.81658L121.541 12.688C120.473 12.0815 119.27 11.7796 118.053 11.8128C116.724 11.8128 116.06 12.1409 116.06 12.7972C116.06 12.9322 116.099 13.0641 116.172 13.176C116.244 13.288 116.347 13.375 116.466 13.4262C116.905 13.6152 117.37 13.7262 117.843 13.7546C119.696 13.9007 121.108 14.3382 122.079 15.0671C123.049 15.7965 123.534 16.8174 123.535 18.1298C123.554 18.7711 123.418 19.4071 123.138 19.9785C122.858 20.5499 122.444 21.0381 121.935 21.3975C120.868 22.1906 119.391 22.5872 117.502 22.5872C115.212 22.5872 113.219 21.9856 111.523 20.7824Z" fill="#12201C"/>
<path d="M145.222 21.6981C144.161 21.1626 143.275 20.3109 142.678 19.2507C142.063 18.1084 141.755 16.814 141.787 15.5042C141.763 14.2145 142.066 12.9413 142.665 11.8125C143.237 10.7515 144.088 9.88326 145.117 9.31047C146.241 8.69919 147.495 8.39348 148.763 8.42165C150.033 8.38772 151.293 8.67388 152.434 9.25584C153.431 9.77755 154.257 10.596 154.808 11.6075C155.376 12.6921 155.661 13.9134 155.634 15.1489C155.626 15.6891 155.582 16.2281 155.503 16.7621H145.983C146.043 17.1041 146.169 17.4297 146.354 17.7189C146.539 18.0082 146.778 18.2549 147.058 18.444C147.737 18.8976 148.534 19.1219 149.34 19.0866C149.98 19.0878 150.617 18.9863 151.228 18.7857C151.799 18.6078 152.332 18.3204 152.802 17.9382L154.952 20.3445C154.197 21.0687 153.309 21.6268 152.343 21.9854C151.312 22.3725 150.225 22.5669 149.13 22.5594C147.781 22.5945 146.442 22.2995 145.222 21.6981ZM151.726 14.3012C151.718 13.9527 151.641 13.6097 151.498 13.2943C151.356 12.9788 151.152 12.6977 150.9 12.4689C150.402 12.0313 149.733 11.8125 148.894 11.8125C148.172 11.7789 147.462 12.0112 146.888 12.4689C146.628 12.6945 146.416 12.9738 146.265 13.2892C146.113 13.6045 146.026 13.9491 146.009 14.3012H151.726Z" fill="#12201C"/>
<path d="M160.668 21.6981C159.607 21.1626 158.721 20.3109 158.124 19.2507C157.509 18.1084 157.201 16.814 157.233 15.5042C157.209 14.2145 157.512 12.9413 158.111 11.8125C158.683 10.7515 159.534 9.88325 160.563 9.31047C161.687 8.69919 162.941 8.39348 164.209 8.42165C165.479 8.38772 166.739 8.67388 167.88 9.25584C168.877 9.77755 169.703 10.596 170.254 11.6075C170.822 12.6921 171.107 13.9134 171.08 15.1489C171.072 15.6891 171.028 16.2281 170.949 16.7621H161.429C161.489 17.1041 161.615 17.4297 161.8 17.7189C161.985 18.0082 162.224 18.2549 162.504 18.444C163.183 18.8976 163.98 19.1219 164.786 19.0866C165.426 19.0878 166.063 18.9863 166.674 18.7857C167.244 18.6078 167.778 18.3204 168.247 17.9382L170.398 20.3445C169.643 21.0687 168.755 21.6268 167.789 21.9854C166.759 22.3725 165.671 22.5669 164.576 22.5594C163.227 22.5945 161.888 22.2995 160.668 21.6981ZM167.172 14.3012C167.164 13.9527 167.087 13.6097 166.944 13.2943C166.802 12.9788 166.598 12.6977 166.346 12.4689C165.848 12.0313 165.179 11.8125 164.34 11.8125C163.618 11.7789 162.908 12.0112 162.334 12.4689C162.074 12.6945 161.862 12.9738 161.71 13.2892C161.559 13.6045 161.472 13.9491 161.455 14.3012H167.172Z" fill="#12201C"/>
<path d="M45.559 11.8268C45.0661 10.796 44.302 9.9328 43.356 9.33816C42.3801 8.73701 41.2635 8.42947 40.1302 8.44962C38.6494 8.40638 37.2104 8.96528 36.1176 10.0081V3.08984H32V22.2318H36.0912V20.8891C37.1553 21.9619 38.499 22.5053 40.1301 22.5053C41.2635 22.5256 42.3801 22.2179 43.3559 21.6165C44.302 21.0221 45.0662 20.1589 45.5589 19.1281C46.0982 17.9946 46.3681 16.7425 46.3457 15.4774C46.3681 14.2123 46.0982 12.9602 45.559 11.8268ZM41.389 17.9522C41.1019 18.2641 40.755 18.5092 40.3709 18.6718C39.9868 18.8344 39.5741 18.9107 39.1598 18.8957C38.7462 18.9113 38.3342 18.8339 37.9518 18.6688C37.5694 18.5036 37.2256 18.2546 36.9437 17.9387C36.3626 17.2655 36.0568 16.3823 36.0913 15.4774C36.0569 14.5725 36.3627 13.6894 36.9437 13.0162C37.2256 12.7003 37.5695 12.4513 37.9519 12.2862C38.3342 12.1211 38.7462 12.0436 39.1598 12.0592C39.5741 12.0442 39.9868 12.1205 40.3709 12.283C40.755 12.4456 41.1019 12.6908 41.389 13.0026C41.966 13.6316 42.2545 14.4565 42.2544 15.4774C42.2542 16.4983 41.9658 17.3233 41.389 17.9522Z" fill="#12201C"/>
<path d="M57.8833 8.76391C57.313 8.54057 56.7091 8.42479 56.0999 8.42196C55.4661 8.40685 54.8383 8.55372 54.2715 8.84976C53.7046 9.14579 53.2159 9.58199 52.8479 10.1202V8.72286H48.7305V22.2316H52.848V15.6686C52.848 14.5385 53.1015 13.6817 53.6085 13.0981C53.8721 12.804 54.1941 12.5734 54.5519 12.4223C54.9097 12.2712 55.2948 12.2032 55.6804 12.2232C56.0189 12.2213 56.3555 12.2766 56.677 12.387C57.0359 12.5188 57.3791 12.6932 57.6998 12.9067L59.4308 9.76193C58.9873 9.32044 58.4602 8.9805 57.8833 8.76391Z" fill="#12201C"/>
<path d="M108.789 18.4854C108.326 18.7338 107.814 18.8649 107.294 18.8681C107.099 18.8794 106.903 18.8502 106.718 18.7821C106.534 18.7141 106.364 18.6085 106.219 18.4716C105.956 18.2076 105.825 17.8019 105.825 17.2547V12.1412H109.051V8.72293H105.825V4.89453H101.734V8.72293H99.5312V12.1412H101.734V17.2547C101.734 19.0964 102.145 20.4318 102.967 21.2608C103.788 22.0909 104.907 22.5056 106.324 22.5052C107.513 22.5255 108.69 22.2538 109.759 21.712L108.789 18.4854Z" fill="#12201C"/>
<path d="M139.348 11.8264C138.855 10.7956 138.091 9.93235 137.145 9.33772C136.169 8.73655 135.052 8.429 133.919 8.44918C132.274 8.44918 130.93 8.98357 129.88 10.0383V8.7226H125.789V28.0834H129.907V20.9189C130.973 21.9762 132.31 22.5049 133.919 22.5049C135.052 22.5252 136.169 22.2176 137.145 21.6161C138.091 21.0217 138.855 20.1586 139.348 19.1277C139.887 17.9942 140.157 16.7421 140.135 15.477C140.157 14.2119 139.887 12.9598 139.348 11.8264ZM135.178 17.9518C134.891 18.2637 134.544 18.5089 134.16 18.6714C133.776 18.834 133.363 18.9103 132.949 18.8953C132.535 18.9109 132.123 18.8335 131.741 18.6684C131.358 18.5032 131.015 18.2542 130.733 17.9383C130.152 17.2651 129.846 16.3819 129.88 15.477C129.846 14.5721 130.152 13.689 130.733 13.0158C131.015 12.6999 131.358 12.4509 131.741 12.2858C132.123 12.1207 132.535 12.0432 132.949 12.0588C133.363 12.0438 133.776 12.1201 134.16 12.2826C134.544 12.4452 134.891 12.6904 135.178 13.0022C135.755 13.6312 136.043 14.4561 136.043 15.477C136.043 16.4979 135.755 17.3229 135.178 17.9518Z" fill="#12201C"/>
<path d="M182.882 3.08984V10.063C182.371 9.53836 181.759 9.13289 181.086 8.87348C180.353 8.58636 179.575 8.44271 178.791 8.44974C177.676 8.42915 176.578 8.73207 175.618 9.32467C174.684 9.91608 173.933 10.7752 173.454 11.7994C172.921 12.9446 172.656 14.205 172.681 15.4775C172.656 16.7501 172.921 18.0105 173.454 19.1556C173.933 20.18 174.684 21.0391 175.618 21.6304C176.578 22.2232 177.676 22.5261 178.791 22.5054C179.676 22.5181 180.553 22.3316 181.362 21.9585C181.929 21.694 182.445 21.3218 182.883 20.861V22.2319H187V3.08984H182.882ZM182.07 17.9522C181.782 18.264 181.436 18.5092 181.051 18.6718C180.667 18.8344 180.255 18.9107 179.84 18.8957C179.427 18.9113 179.015 18.8339 178.632 18.6688C178.25 18.5036 177.906 18.2546 177.624 17.9387C177.043 17.2655 176.737 16.3823 176.772 15.4774C176.737 14.5725 177.043 13.6894 177.624 13.0162C177.906 12.7003 178.25 12.4513 178.632 12.2862C179.015 12.1211 179.427 12.0436 179.84 12.0592C180.255 12.0442 180.667 12.1205 181.052 12.283C181.436 12.4456 181.783 12.6908 182.07 13.0026C182.509 13.4869 182.794 14.1019 182.883 14.7623V16.1929C182.793 16.8532 182.509 17.4681 182.07 17.9522Z" fill="#12201C"/>
</g>
<defs>
<clipPath id="clip0_2326_917">
<rect width="187" height="32" fill="white"/>
</clipPath>
</defs>
</svg>
