<svg width="48" height="49" viewBox="0 0 48 49" fill="none" xmlns="http://www.w3.org/2000/svg">
<path d="M17 29.1465C18.3261 29.1465 19.5979 28.6197 20.5355 27.682C21.4732 26.7443 22 25.4726 22 24.1465C22 21.3865 21 20.1465 20 18.1465C17.856 13.8605 19.552 10.0385 24 6.14648C25 11.1465 28 15.9465 32 19.1465C36 22.3465 38 26.1465 38 30.1465C38 31.985 37.6379 33.8055 36.9343 35.5041C36.2307 37.2026 35.1995 38.746 33.8995 40.046C32.5995 41.346 31.0561 42.3772 29.3576 43.0808C27.659 43.7844 25.8385 44.1465 24 44.1465C22.1615 44.1465 20.341 43.7844 18.6424 43.0808C16.9439 42.3772 15.4005 41.346 14.1005 40.046C12.8005 38.746 11.7693 37.2026 11.0657 35.5041C10.3621 33.8055 10 31.985 10 30.1465C10 27.8405 10.866 25.5585 12 24.1465C12 25.4726 12.5268 26.7443 13.4645 27.682C14.4021 28.6197 15.6739 29.1465 17 29.1465Z" stroke="#12201C" stroke-width="4" stroke-linecap="round" stroke-linejoin="round"/>
</svg>
