<svg width="48" height="49" viewBox="0 0 48 49" fill="none" xmlns="http://www.w3.org/2000/svg">
<path d="M9 33.1452C6 35.6652 5 43.1452 5 43.1452C5 43.1452 12.48 42.1452 15 39.1452C16.42 37.4652 16.4 34.8852 14.82 33.3252C14.0426 32.5832 13.0186 32.1544 11.9445 32.1212C10.8703 32.088 9.82175 32.4526 9 33.1452Z" stroke="#12201C" stroke-width="4" stroke-linecap="round" stroke-linejoin="round"/>
<path d="M24 30.147L18 24.147C19.0643 21.3858 20.4044 18.7391 22 16.247C24.3304 12.521 27.5752 9.45308 31.426 7.33516C35.2768 5.21725 39.6053 4.11972 44 4.14698C44 9.58698 42.44 19.147 32 26.147C29.4738 27.7444 26.7937 29.0845 24 30.147Z" stroke="#12201C" stroke-width="4" stroke-linecap="round" stroke-linejoin="round"/>
<path d="M18 24.1455H8C8 24.1455 9.1 18.0855 12 16.1455C15.24 13.9855 22 16.1455 22 16.1455" stroke="#12201C" stroke-width="4" stroke-linecap="round" stroke-linejoin="round"/>
<path d="M24 30.1465V40.1465C24 40.1465 30.06 39.0465 32 36.1465C34.16 32.9065 32 26.1465 32 26.1465" stroke="#12201C" stroke-width="4" stroke-linecap="round" stroke-linejoin="round"/>
</svg>
