<svg width="279" height="44" viewBox="0 0 279 44" fill="none" xmlns="http://www.w3.org/2000/svg">
<path fill-rule="evenodd" clip-rule="evenodd" d="M210.549 13.6282C212.049 12.7634 213.742 12.3398 215.604 12.3398C217.351 12.3398 218.949 12.7404 220.377 13.5558C221.821 14.367 222.965 15.499 223.8 16.9396C224.594 18.2728 225.038 19.7696 225.142 21.4138C225.183 22.0717 224.719 22.624 224.108 22.7429L210.481 25.3927C210.908 26.2958 211.522 27.0282 212.328 27.6032C213.397 28.3273 214.685 28.7047 216.228 28.7047C217.262 28.7047 218.193 28.526 219.03 28.1797C219.735 27.8768 220.344 27.467 220.862 26.9506C221.37 26.4453 222.258 26.3974 222.786 27.0048L223.554 27.8882C223.962 28.3573 223.994 29.0879 223.537 29.5831C222.694 30.4969 221.678 31.2029 220.5 31.7013C219.186 32.2573 217.747 32.5289 216.193 32.5289C214.203 32.5289 212.402 32.1102 210.811 31.2517L210.803 31.2469C209.219 30.3673 207.977 29.1525 207.092 27.6097C206.205 26.064 205.77 24.326 205.77 22.417C205.77 20.5163 206.178 18.7848 207.012 17.2422L207.017 17.2332C207.874 15.6971 209.053 14.4901 210.549 13.6282ZM215.604 16.0947C214.468 16.0947 213.47 16.3614 212.589 16.8821L212.584 16.885C211.727 17.3828 211.046 18.0895 210.536 19.0265C210.084 19.8751 209.833 20.8659 209.805 22.0183L220.878 19.8692C220.565 18.8838 220.017 18.0623 219.231 17.3881L219.224 17.3819C218.255 16.5314 217.065 16.0947 215.604 16.0947Z" fill="white"/>
<path fill-rule="evenodd" clip-rule="evenodd" d="M183.489 13.5112C183.489 12.8643 184.014 12.3398 184.661 12.3398H198.112C198.759 12.3398 199.283 12.8643 199.283 13.5112V14.4754C199.283 14.738 199.195 14.9929 199.033 15.1993L188.581 28.4967H198.355C199.002 28.4967 199.526 29.0211 199.526 29.668V30.7766C199.526 31.4235 199.002 31.9479 198.355 31.9479H184.453C183.806 31.9479 183.281 31.4235 183.281 30.7766V29.7783C183.281 29.5148 183.37 29.2589 183.533 29.0522L194.011 15.791H184.661C184.014 15.791 183.489 15.2666 183.489 14.6197V13.5112Z" fill="white"/>
<path fill-rule="evenodd" clip-rule="evenodd" d="M172.727 5.83809C173.188 5.37708 173.766 5.14648 174.424 5.14648C175.078 5.14648 175.654 5.3747 176.114 5.83097C176.571 6.26101 176.812 6.80507 176.812 7.43105C176.812 8.08846 176.582 8.66701 176.121 9.12802C175.66 9.58903 175.081 9.81962 174.424 9.81962C173.766 9.81962 173.188 9.58903 172.727 9.12802C172.271 8.67273 172.035 8.10821 172.035 7.46572C172.035 6.83795 172.278 6.28724 172.727 5.83809ZM172.59 13.6897C172.59 13.1075 173.062 12.6355 173.644 12.6355H175.169C175.751 12.6355 176.223 13.1075 176.223 13.6897V30.9898C176.223 31.572 175.751 32.044 175.169 32.044H173.644C173.062 32.044 172.59 31.572 172.59 30.9898V13.6897Z" fill="white"/>
<path fill-rule="evenodd" clip-rule="evenodd" d="M139.865 13.5969C141.097 12.9562 142.502 12.6426 144.069 12.6426C145.661 12.6426 147.062 12.9806 148.255 13.6761C149.192 14.2119 149.947 14.9474 150.516 15.8764C150.525 15.89 150.55 15.9136 150.603 15.9162C150.655 15.9187 150.681 15.8978 150.689 15.8862C151.35 15.0002 152.192 14.2846 153.207 13.7392C154.554 13.0045 156.077 12.6426 157.764 12.6426C160.145 12.6426 162.068 13.3309 163.471 14.7575C164.904 16.1917 165.583 18.2709 165.583 20.9122V30.9997C165.583 31.5172 165.163 32.0492 164.646 32.0492H163.121C162.603 32.0492 162.184 31.5172 162.184 30.9997V21.1549C162.184 19.3308 161.739 18.018 160.922 17.1401L160.918 17.1357C160.126 16.2625 158.983 15.7986 157.417 15.7986C155.627 15.7986 154.27 16.3509 153.289 17.4158L153.286 17.4192C152.303 18.4646 151.783 19.9431 151.783 21.9176V30.9997C151.783 31.5172 151.364 32.0492 150.846 32.0492H149.322C148.804 32.0492 148.385 31.5172 148.385 30.9997V21.1549C148.385 19.3308 147.94 18.018 147.123 17.1401L147.119 17.1357C146.328 16.2638 145.175 15.7986 143.583 15.7986C141.818 15.7986 140.459 16.3496 139.452 17.4192C138.469 18.4646 137.95 19.9431 137.95 21.9176V30.9997C137.95 31.5172 137.53 32.0492 137.012 32.0492H135.488C134.97 32.0492 134.551 31.5172 134.551 30.9997V13.7183C134.551 13.2008 134.97 12.7813 135.488 12.7813H136.908C137.426 12.7813 137.845 13.2008 137.845 13.7183V14.8413L137.847 14.843C137.856 14.8536 137.881 14.8736 137.924 14.888C137.967 14.9023 138.012 14.9052 138.047 14.8993C138.08 14.8938 138.095 14.8826 138.101 14.8766C138.612 14.3686 139.201 13.9423 139.865 13.5969Z" fill="white"/>
<path fill-rule="evenodd" clip-rule="evenodd" d="M124.865 5.76948C125.28 5.35418 125.799 5.14648 126.397 5.14648C126.992 5.14648 127.509 5.35276 127.924 5.7652C128.336 6.15262 128.551 6.63627 128.551 7.19678C128.551 7.79463 128.343 8.3128 127.928 8.7281C127.513 9.14339 126.994 9.35109 126.397 9.35109C125.799 9.35109 125.28 9.14339 124.865 8.7281C124.453 8.31624 124.242 7.81111 124.242 7.23145C124.242 6.66988 124.457 6.17765 124.865 5.76948ZM124.797 13.4554C124.797 13.0026 125.164 12.6355 125.617 12.6355H127.141C127.594 12.6355 127.961 13.0026 127.961 13.4554V30.7555C127.961 31.2083 127.594 31.5754 127.141 31.5754H125.617C125.164 31.5754 124.797 31.2083 124.797 30.7555V13.4554Z" fill="white"/>
<path fill-rule="evenodd" clip-rule="evenodd" d="M108.312 9.59733C108.312 9.20918 108.627 8.89453 109.015 8.89453H110.54C110.928 8.89453 111.243 9.20918 111.243 9.59733V12.6475C111.243 12.7769 111.348 12.8817 111.477 12.8817H116.053C116.441 12.8817 116.755 13.1964 116.755 13.5845V14.7278C116.755 15.1159 116.441 15.4305 116.053 15.4305H111.477C111.348 15.4305 111.243 15.5354 111.243 15.6648V26.0831C111.243 27.1322 111.499 27.8987 111.977 28.4191C112.451 28.9131 113.155 29.1773 114.129 29.1773C114.956 29.1773 115.648 28.9969 116.215 28.6475C116.572 28.4268 117.107 28.5013 117.317 28.9293L117.755 29.8228C117.891 30.1006 117.834 30.4542 117.569 30.6556C117.14 30.9818 116.642 31.2413 116.077 31.4359L116.071 31.4383C115.377 31.6537 114.648 31.7608 113.886 31.7608C112.133 31.7608 110.749 31.2861 109.768 30.3053C108.788 29.325 108.312 27.9524 108.312 26.2218V9.59733Z" fill="white"/>
<path d="M63.9114 32.643C61.5075 32.643 59.3232 32.1114 57.3585 31.0482C55.4169 29.9618 53.8914 28.4825 52.7819 26.6102C51.6955 24.738 51.1523 22.6346 51.1523 20.3C51.1523 17.9655 51.6955 15.8621 52.7819 13.9898C53.8914 12.1176 55.4169 10.6498 57.3585 9.58658C59.3232 8.50022 61.5075 7.95703 63.9114 7.95703C66.3153 7.95703 68.4765 8.48866 70.3949 9.55191C72.3365 10.6152 73.8621 12.0945 74.9716 13.9898C76.081 15.8621 76.6358 17.9655 76.6358 20.3C76.6358 22.6346 76.081 24.7495 74.9716 26.6449C73.8621 28.5172 72.3365 29.9849 70.3949 31.0482C68.4765 32.1114 66.3153 32.643 63.9114 32.643ZM63.9114 30.3547C65.8299 30.3547 67.5635 29.9271 69.1121 29.0719C70.6608 28.1936 71.8743 26.9916 72.7526 25.4661C73.6309 23.9174 74.0701 22.1954 74.0701 20.3C74.0701 18.4047 73.6309 16.6942 72.7526 15.1687C71.8743 13.62 70.6608 12.4181 69.1121 11.5629C67.5635 10.6845 65.8299 10.2453 63.9114 10.2453C61.9929 10.2453 60.2478 10.6845 58.676 11.5629C57.1274 12.4181 55.9023 13.62 55.0009 15.1687C54.1225 16.6942 53.6834 18.4047 53.6834 20.3C53.6834 22.1954 54.1225 23.9174 55.0009 25.4661C55.9023 26.9916 57.1274 28.1936 58.676 29.0719C60.2478 29.9271 61.9929 30.3547 63.9114 30.3547Z" fill="white"/>
<path fill-rule="evenodd" clip-rule="evenodd" d="M88.3442 13.6269C89.5878 12.97 90.9821 12.6426 92.5248 12.6426C94.2537 12.6426 95.8223 13.0399 97.2278 13.8363C98.6341 14.6098 99.7359 15.7121 100.532 17.1406C101.329 18.57 101.726 20.1965 101.726 22.017C101.726 23.8603 101.329 25.4984 100.532 26.928C99.736 28.3565 98.6343 29.47 97.2285 30.2666C95.8454 31.0402 94.2761 31.426 92.5248 31.426C91.0292 31.426 89.6703 31.1221 88.4505 30.5122L88.4481 30.511C87.7147 30.1227 87.0605 29.6286 86.4858 29.029C86.3623 28.9 86.1681 28.8703 85.9968 28.9282C85.8264 28.9859 85.7076 29.1193 85.7076 29.2896V37.3932C85.7076 37.7167 85.4454 37.9789 85.122 37.9789H83.5974C83.2739 37.9789 83.0117 37.7167 83.0117 37.3932V13.3669C83.0117 13.0435 83.2739 12.7813 83.5974 12.7813H85.018C85.3414 12.7813 85.6036 13.0435 85.6036 13.3669V14.8489C85.6036 15.0205 85.7259 15.1561 85.9028 15.2145C86.0804 15.2731 86.28 15.2415 86.404 15.1102C86.9665 14.5149 87.6139 14.0202 88.3442 13.6269ZM88.9087 15.9119C87.9109 16.5016 87.1166 17.3294 86.5253 18.3981C85.9582 19.4418 85.673 20.6469 85.673 22.017C85.673 23.3867 85.9581 24.6038 86.5256 25.6709C87.1167 26.7391 87.9107 27.5666 88.9079 28.1562C89.9288 28.723 91.0757 29.0075 92.3514 29.0075C93.6039 29.0075 94.7395 28.7231 95.7609 28.1559C96.7811 27.5662 97.5745 26.739 98.1421 25.6718L98.1431 25.6701C98.7334 24.603 99.0299 23.3863 99.0299 22.017C99.0299 20.6475 98.7333 19.4428 98.1436 18.3994L98.1421 18.3968C97.5743 17.3293 96.7806 16.5019 95.76 15.9122C94.7387 15.3221 93.6034 15.0265 92.3514 15.0265C91.0762 15.0265 89.9295 15.3222 88.9087 15.9119Z" fill="white"/>
<path d="M252.795 34.4304C252.649 34.4304 252.565 34.2652 252.651 34.1473L263.65 18.9821V23.3746L253.131 8.65512C253.046 8.53707 253.131 8.37305 253.276 8.37305H259.686C259.744 8.37305 259.798 8.40111 259.832 8.44833L267.186 18.8332L264.32 18.8704L271.563 8.44962C271.596 8.40165 271.651 8.37305 271.709 8.37305H277.819C277.964 8.37305 278.049 8.53789 277.963 8.65585L267.521 23.114V18.796L278.596 34.1476C278.682 34.2656 278.597 34.4304 278.452 34.4304H271.933C271.874 34.4304 271.82 34.4017 271.786 34.3537L264.171 23.3746H266.926L259.422 34.3526C259.389 34.4013 259.334 34.4304 259.275 34.4304H252.795Z" fill="white"/>
<path fill-rule="evenodd" clip-rule="evenodd" d="M233.975 31.7874C236.059 33.8472 238.95 34.8771 242.648 34.8771C246.346 34.8771 249.237 33.8472 251.321 31.7874C253.406 29.7276 254.448 26.7869 254.448 22.9651V13.7589L250.599 8.37305H248.671C248.572 8.37305 248.492 8.4529 248.492 8.55142V22.7418C248.492 25.2234 247.983 27.0102 246.966 28.1022C245.948 29.1941 244.522 29.7401 242.685 29.7401C240.849 29.7401 239.422 29.1941 238.404 28.1022C237.387 27.0102 236.878 25.2234 236.878 22.7418V8.55142C236.878 8.45291 236.798 8.37305 236.7 8.37305H231.026C230.928 8.37305 230.848 8.45291 230.848 8.55142V22.9651C230.848 26.7869 231.89 29.7276 233.975 31.7874Z" fill="white"/>
<path d="M27.7362 0.146484H1.72803C0.773667 0.146484 0 0.920152 0 1.87452V21.119V28.7511C0 29.1837 0.53493 29.3866 0.821814 29.0629L7.5521 21.4682C7.74888 21.2461 8.03137 21.119 8.32807 21.119H27.7362C28.6906 21.119 29.4642 20.3454 29.4642 19.391V1.87452C29.4642 0.920153 28.6906 0.146484 27.7362 0.146484Z" fill="white"/>
<path d="M34.948 13.0605H40.9352C41.1948 13.0605 41.4052 13.271 41.4052 13.5306V42.1181L33.3337 33.1773H12.8177C12.5581 33.1773 12.3477 32.9669 12.3477 32.7073V26.4717" stroke="white" stroke-width="2.35017" stroke-linecap="square" stroke-linejoin="round"/>
</svg>
