<svg width="280" height="45" viewBox="0 0 280 45" fill="none" xmlns="http://www.w3.org/2000/svg">
<g clip-path="url(#clip0_2864_1654)">
<path d="M30.0793 0.672852H0V22.0832V31.1396L8.02564 22.0832H30.0793V0.672852Z" fill="#0A1513"/>
<path d="M35.6776 14.1895H42.2696V43.8536L34.0296 34.7262H12.6055V27.8806" stroke="#0A1513" stroke-width="3.76824" stroke-linecap="square"/>
<path d="M216.188 31.1684C217.223 31.1684 218.135 31.0205 218.923 30.7249C219.736 30.4046 220.488 29.9119 221.177 29.2467L224.245 32.5727C222.372 34.7161 219.638 35.7878 216.041 35.7878C213.799 35.7878 211.815 35.3567 210.091 34.4944C208.366 33.6074 207.036 32.3879 206.1 30.8358C205.163 29.2836 204.695 27.5221 204.695 25.5511C204.695 23.6048 205.151 21.8556 206.063 20.3034C206.999 18.7267 208.268 17.5071 209.869 16.6448C211.495 15.7579 213.318 15.3145 215.338 15.3145C217.236 15.3145 218.96 15.721 220.512 16.534C222.064 17.3224 223.296 18.4803 224.208 20.0078C225.144 21.5107 225.612 23.2968 225.612 25.3663L210.904 28.2119C211.323 29.1974 211.976 29.9365 212.862 30.4293C213.774 30.922 214.883 31.1684 216.188 31.1684ZM215.338 19.6752C213.885 19.6752 212.702 20.1433 211.791 21.0795C210.879 22.0157 210.399 23.3092 210.35 24.9598L220.032 23.0751C219.761 22.0404 219.207 21.215 218.369 20.5991C217.531 19.9832 216.521 19.6752 215.338 19.6752Z" fill="#0A1513"/>
<path d="M183.617 35.4908V31.3518L194.852 18.4174L196.034 20.6717H183.876V15.4609H201.725V19.563L190.454 32.5344L189.271 30.2431H202.095V35.4908H183.617Z" fill="#0A1513"/>
<path d="M173.55 15.6101H179.315V35.4922H173.55V15.6101ZM176.432 12.8385C175.373 12.8385 174.511 12.5305 173.845 11.9146C173.18 11.2987 172.848 10.5349 172.848 9.62333C172.848 8.71176 173.18 7.94802 173.845 7.33209C174.511 6.71617 175.373 6.4082 176.432 6.4082C177.492 6.4082 178.354 6.70385 179.019 7.29514C179.684 7.88643 180.017 8.62554 180.017 9.51247C180.017 10.4733 179.684 11.274 179.019 11.9146C178.354 12.5305 177.492 12.8385 176.432 12.8385Z" fill="#0A1513"/>
<path d="M161.119 15.3145C163.607 15.3145 165.578 16.0536 167.031 17.5318C168.51 18.9854 169.249 21.1781 169.249 24.1099V35.4922H163.484V24.9968C163.484 23.42 163.151 22.2498 162.486 21.486C161.845 20.6976 160.921 20.3034 159.714 20.3034C158.359 20.3034 157.288 20.7469 156.499 21.6338C155.711 22.4961 155.317 23.7896 155.317 25.5142V35.4922H149.552V24.9968C149.552 21.8679 148.295 20.3034 145.782 20.3034C144.452 20.3034 143.392 20.7469 142.604 21.6338C141.816 22.4961 141.421 23.7896 141.421 25.5142V35.4922H135.656V15.6101H141.163V17.9013C141.902 17.0637 142.801 16.4231 143.86 15.9797C144.944 15.5362 146.127 15.3145 147.408 15.3145C148.812 15.3145 150.081 15.5978 151.215 16.1644C152.348 16.7064 153.259 17.5071 153.949 18.5665C154.762 17.5318 155.785 16.7311 157.017 16.1644C158.273 15.5978 159.64 15.3145 161.119 15.3145Z" fill="#0A1513"/>
<path d="M125.593 15.6101H131.358V35.4922H125.593V15.6101ZM128.475 12.8385C127.416 12.8385 126.554 12.5305 125.888 11.9146C125.223 11.2987 124.891 10.5349 124.891 9.62333C124.891 8.71176 125.223 7.94802 125.888 7.33209C126.554 6.71617 127.416 6.4082 128.475 6.4082C129.535 6.4082 130.397 6.70385 131.062 7.29514C131.727 7.88643 132.06 8.62554 132.06 9.51247C132.06 10.4733 131.727 11.274 131.062 11.9146C130.397 12.5305 129.535 12.8385 128.475 12.8385Z" fill="#0A1513"/>
<path d="M121.952 34.5305C121.385 34.9493 120.683 35.2696 119.845 35.4914C119.032 35.6885 118.182 35.787 117.295 35.787C114.905 35.787 113.07 35.1834 111.789 33.9762C110.508 32.769 109.867 30.9951 109.867 28.6546V11.2116L115.632 6.40625V16.0528H120.547V20.4874H115.632V28.5807C115.632 29.4183 115.842 30.0712 116.26 30.5393C116.679 30.9828 117.283 31.2045 118.071 31.2045C118.958 31.2045 119.747 30.9581 120.436 30.4654L121.952 34.5305Z" fill="#0A1513"/>
<path d="M96.3651 15.3145C98.2129 15.3145 99.8882 15.7456 101.391 16.6079C102.919 17.4456 104.113 18.6404 104.976 20.1926C105.838 21.7201 106.269 23.5063 106.269 25.5511C106.269 27.596 105.838 29.3945 104.976 30.9466C104.113 32.4741 102.919 33.669 101.391 34.5313C99.8882 35.369 98.2129 35.7878 96.3651 35.7878C93.8275 35.7878 91.8319 34.9871 90.3783 33.3857V42.6615H84.6133V15.6101H90.1197V17.9013C91.5486 16.1767 93.6304 15.3145 96.3651 15.3145ZM95.3673 31.0575C96.8456 31.0575 98.0528 30.5648 98.989 29.5793C99.9498 28.5692 100.43 27.2264 100.43 25.5511C100.43 23.8758 99.9498 22.5454 98.989 21.5599C98.0528 20.5498 96.8456 20.0448 95.3673 20.0448C93.8891 20.0448 92.6696 20.5498 91.7087 21.5599C90.7725 22.5454 90.3044 23.8758 90.3044 25.5511C90.3044 27.2264 90.7725 28.5692 91.7087 29.5793C92.6696 30.5648 93.8891 31.0575 95.3673 31.0575Z" fill="#0A1513"/>
<path d="M66.8571 35.9355C64.1717 35.9355 61.7449 35.3565 59.5768 34.1986C57.4334 33.0406 55.7458 31.4515 54.5139 29.4313C53.3067 27.3864 52.7031 25.0952 52.7031 22.5576C52.7031 20.02 53.3067 17.741 54.5139 15.7208C55.7458 13.6759 57.4334 12.0745 59.5768 10.9166C61.7449 9.75866 64.1717 9.17969 66.8571 9.17969C69.5425 9.17969 71.9569 9.75866 74.1004 10.9166C76.2438 12.0745 77.9314 13.6759 79.1633 15.7208C80.3951 17.741 81.011 20.02 81.011 22.5576C81.011 25.0952 80.3951 27.3864 79.1633 29.4313C77.9314 31.4515 76.2438 33.0406 74.1004 34.1986C71.9569 35.3565 69.5425 35.9355 66.8571 35.9355ZM66.8571 30.8356C68.3846 30.8356 69.7643 30.4907 70.9961 29.8009C72.228 29.0864 73.1888 28.1009 73.8786 26.8444C74.5931 25.5879 74.9503 24.159 74.9503 22.5576C74.9503 20.9562 74.5931 19.5272 73.8786 18.2707C73.1888 17.0143 72.228 16.0411 70.9961 15.3513C69.7643 14.6368 68.3846 14.2795 66.8571 14.2795C65.3296 14.2795 63.9499 14.6368 62.7181 15.3513C61.4862 16.0411 60.5131 17.0143 59.7986 18.2707C59.1087 19.5272 58.7638 20.9562 58.7638 22.5576C58.7638 24.159 59.1087 25.5879 59.7986 26.8444C60.5131 28.1009 61.4862 29.0864 62.7181 29.8009C63.9499 30.4907 65.3296 30.8356 66.8571 30.8356Z" fill="#0A1513"/>
<path d="M241.93 35.9354C238.259 35.9354 235.389 34.9129 233.319 32.8681C231.25 30.8232 230.215 27.9037 230.215 24.1096V9.62305H236.202V23.8879C236.202 26.3516 236.707 28.1254 237.717 29.2095C238.727 30.2935 240.144 30.8355 241.967 30.8355C243.79 30.8355 245.206 30.2935 246.217 29.2095C247.227 28.1254 247.732 26.3516 247.732 23.8879V9.62305H250.356L253.645 14.208V24.1096C253.645 27.9037 252.61 30.8232 250.54 32.8681C248.471 34.9129 245.601 35.9354 241.93 35.9354Z" fill="#0A1513"/>
<path d="M273.094 35.4929L266.848 26.5127L260.714 35.4929H253.84L263.411 22.3367L254.32 9.62402H261.12L267.07 18.0129L272.909 9.62402H279.376L270.359 22.115L280.004 35.4929H273.094Z" fill="#0A1513"/>
</g>
<defs>
<clipPath id="clip0_2864_1654">
<rect width="280" height="44" fill="white" transform="translate(0 0.263672)"/>
</clipPath>
</defs>
</svg>
