<svg width="32" height="32" viewBox="0 0 32 32" fill="none" xmlns="http://www.w3.org/2000/svg">
<g clip-path="url(#clip0_2326_955)">
<path d="M6.31007 28.4444C8.97674 30.4888 12.3545 31.7333 15.999 31.7333C19.999 31.7333 23.6434 30.2222 26.399 27.8222C25.1545 28.6222 21.599 30.4888 15.999 30.4888C11.1101 30.4888 7.99896 29.4222 6.31007 28.4444ZM17.0656 29.2444C20.9767 29.2444 25.2434 28.1777 27.7323 26.0444C28.4434 25.511 29.0656 24.711 29.6878 23.7333C30.0434 23.111 30.399 22.3999 30.6656 21.7777C28.2656 25.2444 21.4212 27.4666 14.3101 27.4666C9.33229 27.4666 3.91007 25.8666 1.77674 22.7555C3.73229 27.0222 9.68785 29.2444 17.0656 29.2444ZM12.799 22.311C4.71007 22.311 0.887847 18.5777 0.265625 15.9999C0.265625 16.8888 0.354514 17.9555 0.532292 18.7555C0.621181 19.111 0.887847 19.6444 1.33229 20.1777C3.28785 22.2222 8.17674 25.0666 16.6212 25.0666C28.0878 25.0666 30.7545 21.2444 31.2878 19.9999C31.6434 19.111 31.9101 17.511 31.9101 16.0888V15.1999C31.1101 18.2222 21.3323 22.311 12.799 22.311ZM1.68785 9.24438C1.2434 10.1333 0.710069 11.7333 0.532292 12.5333C0.443403 12.8888 0.532292 13.0666 0.621181 13.3333C1.59896 15.3777 6.48785 18.6666 17.8656 18.6666C24.799 18.6666 30.2212 16.9777 31.1101 13.8666C31.2878 13.3333 31.2878 12.711 31.1101 11.911C30.8434 11.0222 30.4878 9.95549 30.0434 9.15549C30.1323 13.2444 18.7545 15.911 12.9767 15.911C6.75451 15.911 1.51007 13.4222 1.51007 10.311C1.59896 9.8666 1.68785 9.51104 1.68785 9.24438ZM26.399 4.17771C26.4878 4.2666 26.4878 4.35549 26.4878 4.53327C26.4878 6.31105 21.1545 9.33327 12.6212 9.33327C6.31007 9.33327 5.15451 7.02216 5.15451 5.51105C5.15451 4.97771 5.33229 4.44438 5.77674 3.91105C4.97674 4.71105 4.26563 5.42216 3.55451 6.31105C3.28785 6.6666 3.11007 7.02216 3.11007 7.19993C3.11007 10.311 10.8434 12.4444 17.9545 12.4444C25.599 12.4444 29.0656 9.95549 29.0656 7.73327C29.0656 6.93327 28.799 6.48882 27.999 5.59993C27.4656 5.0666 26.9323 4.62216 26.399 4.17771ZM24.0878 2.48882C21.6878 1.0666 19.0212 0.266602 15.999 0.266602C12.9767 0.266602 10.2212 1.0666 7.82118 2.57771C7.11007 2.93327 6.66562 3.28882 6.66562 3.73327C6.66562 5.0666 9.77674 6.48882 15.2878 6.48882C20.7101 6.48882 24.9767 4.88882 24.9767 3.37771C25.0656 3.11105 24.7101 2.84438 24.0878 2.48882Z" fill="#12201C"/>
</g>
<defs>
<clipPath id="clip0_2326_955">
<rect width="32" height="32" fill="white"/>
</clipPath>
</defs>
</svg>
