<svg width="142" height="32" viewBox="0 0 142 32" fill="none" xmlns="http://www.w3.org/2000/svg">
<g clip-path="url(#clip0_2326_944)">
<path d="M14.1944 31.0776C10.2011 31.0776 6.20768 31.0791 2.2143 31.0748C1.86259 31.0743 1.508 31.0584 1.16014 31.0118C0.50147 30.9237 0.134369 30.5407 0.065567 29.8864C0.0285199 29.5366 0.00350112 29.1834 0.00301999 28.8317C-0.000829046 24.2128 -0.000829046 19.594 0.00205773 14.9752C0.00253886 14.5749 0.0492086 14.1736 0.040067 13.7738C0.0227463 12.9727 0.404283 12.3684 0.959506 11.8507C2.65549 10.2687 4.36158 8.69736 6.05661 7.11397C7.95899 5.33618 9.85176 3.54831 11.7527 1.76909C12.2531 1.30095 12.7636 0.843875 13.2745 0.387283C13.8495 -0.126564 14.5485 -0.129932 15.1163 0.397868C17.5503 2.65822 19.9766 4.92722 22.4093 7.18902C24.0249 8.69111 25.6536 10.1792 27.261 11.69C27.5699 11.9801 27.8378 12.326 28.0702 12.6816C28.4089 13.1998 28.382 13.8152 28.3916 14.4012C28.4143 15.7801 28.3998 17.1595 28.3998 18.5388C28.3998 21.9228 28.4032 25.3065 28.396 28.6908C28.3949 29.1214 28.3542 29.5529 28.305 29.9815C28.2425 30.5296 27.8769 30.9159 27.324 31.0001C26.9612 31.0556 26.5903 31.0748 26.2227 31.0753C22.2129 31.0795 18.2036 31.0776 14.1944 31.0776ZM14.2454 24.9249C16.6506 24.9249 19.0558 24.9264 21.4609 24.9245C22.3207 24.924 22.3212 24.9201 22.3217 24.0897C22.3217 21.3799 22.3168 18.6702 22.3274 15.9605C22.3289 15.6122 22.2269 15.3658 21.9672 15.1258C19.4984 12.8462 17.0413 10.5536 14.5808 8.26482C14.2243 7.93334 14.1579 7.93526 13.7961 8.27446C11.4621 10.4626 9.13583 12.659 6.78744 14.8308C6.33085 15.2533 6.12155 15.6944 6.12925 16.3281C6.16052 18.893 6.14225 21.4589 6.14225 24.0243C6.14225 24.1527 6.13984 24.2812 6.14995 24.4087C6.18024 24.7932 6.2707 24.8878 6.64551 24.9163C6.82112 24.9297 6.99818 24.9245 7.17427 24.9245C9.53132 24.9254 11.8884 24.9254 14.2454 24.9249Z" fill="#12201C"/>
<path d="M111.32 11.1594C111.475 10.9655 111.626 10.7668 111.787 10.5777C112.479 9.76944 113.377 9.28543 114.353 8.89956C115.77 8.34002 117.249 8.3275 118.704 8.50696C120.541 8.73357 122.142 9.54957 123.317 11.0276C123.86 11.7103 124.264 12.4888 124.557 13.3236C125.039 14.6938 125.258 16.0958 125.252 17.5478C125.237 21.7818 125.247 26.0159 125.247 30.2498C125.247 30.3138 125.247 30.3781 125.246 30.4421C125.24 31.0239 125.211 31.0676 124.615 31.0705C122.995 31.0788 121.375 31.0788 119.755 31.0715C119.133 31.0692 119.091 31.0143 119.091 30.3657C119.09 26.5007 119.091 22.6353 119.089 18.7704C119.089 18.3215 119.113 17.8683 119.062 17.4242C118.927 16.2792 118.532 15.2654 117.548 14.5514C117.108 14.231 116.602 14.0707 116.1 13.9923C114.971 13.8162 113.866 13.9192 112.895 14.6173C112.317 15.0335 111.895 15.5704 111.602 16.2281C111.216 17.0966 111.144 17.9982 111.148 18.9344C111.168 22.7032 111.157 26.4724 111.157 30.241C111.157 30.3695 111.145 30.4986 111.158 30.626C111.188 30.9454 111.016 31.057 110.731 31.0633C110.602 31.0661 110.474 31.0749 110.346 31.0749C108.839 31.0759 107.331 31.0759 105.824 31.0749C105.696 31.0749 105.567 31.0676 105.439 31.0643C105.149 31.0565 104.992 30.9228 105.006 30.6168C105.013 30.473 105.004 30.3281 105.004 30.1838C105.004 23.3839 105.004 16.5837 105.004 9.78388C105.004 8.79998 105.014 8.93662 105.875 8.93229C107.415 8.92506 108.954 8.92843 110.494 8.93131C111.147 8.93276 111.154 8.9419 111.155 9.61308C111.158 10.0913 111.156 10.5691 111.156 11.0473C111.211 11.0853 111.265 11.1224 111.32 11.1594Z" fill="#12201C"/>
<path d="M49.0109 23.5056C49.4491 22.3105 49.8523 21.2462 50.2296 20.1729C50.5654 19.2168 50.8598 18.2468 51.1956 17.2909C51.5304 16.3368 51.9028 15.3957 52.2415 14.4421C52.5105 13.6848 52.7424 12.915 53.0095 12.1572C53.2674 11.4268 53.5488 10.7051 53.8216 9.98056C53.9165 9.72941 54.0429 9.48643 54.1069 9.22807C54.1753 8.95335 54.3586 8.93314 54.5765 8.93314C54.9614 8.93314 55.3464 8.93122 55.7307 8.93122C57.1419 8.93073 58.5526 8.93073 59.9638 8.93169C60.1081 8.93169 60.2533 8.9264 60.3963 8.93987C60.6931 8.96778 60.748 9.04379 60.6498 9.30216C60.4295 9.87951 60.2028 10.454 59.9757 11.0285C59.6376 11.8829 59.2984 12.737 58.9563 13.5905C58.6026 14.4733 58.2413 15.3533 57.891 16.2377C57.5523 17.0931 57.228 17.9548 56.8898 18.8107C56.4702 19.8721 56.0387 20.9283 55.6206 21.99C55.2847 22.843 54.9639 23.7023 54.6304 24.5569C54.308 25.3835 53.979 26.2076 53.6527 27.0323C53.3742 27.7367 53.0951 28.441 52.8152 29.145C52.5875 29.717 52.3638 30.2904 52.1223 30.8568C52.0867 30.94 51.9688 31.0147 51.8745 31.0406C51.7383 31.0776 51.5887 31.0743 51.4449 31.0748C49.8417 31.0766 48.2381 31.0795 46.6349 31.0738C45.9778 31.0714 45.9513 31.0253 45.7117 30.4011C45.3779 29.5309 45.0136 28.6719 44.6705 27.8051C44.3279 26.939 44.0017 26.0661 43.6583 25.2006C43.2559 24.1869 42.8413 23.178 42.4357 22.1656C42.095 21.316 41.7607 20.4639 41.4228 19.6132C41.1603 18.9517 40.896 18.2906 40.6334 17.6291C40.2893 16.7621 39.9458 15.8946 39.6024 15.0271C39.2756 14.2015 38.9504 13.3754 38.6213 12.5508C38.2686 11.6684 37.9111 10.7874 37.5579 9.9055C37.4752 9.69957 37.3838 9.49509 37.3256 9.28195C37.2689 9.0741 37.3529 8.93842 37.5912 8.93795C37.7356 8.93795 37.8799 8.93218 38.0237 8.93218C39.6913 8.93169 41.3585 8.93169 43.026 8.93169C43.9146 8.93169 43.8988 8.93699 44.1683 9.76453C44.4473 10.6229 44.7672 11.4672 45.0584 12.3217C45.3846 13.2792 45.6871 14.2443 46.02 15.1989C46.3587 16.1713 46.7293 17.1325 47.0718 18.104C47.3356 18.8511 47.5741 19.6075 47.8292 20.358C48.0024 20.8681 48.1837 21.3747 48.3628 21.8827C48.4835 22.2253 48.6009 22.5693 48.7308 22.9085C48.7976 23.0812 48.8881 23.2449 49.0109 23.5056Z" fill="#12201C"/>
<path d="M82.0542 23.4198C82.2042 23.0474 82.3649 22.6784 82.5025 22.3013C82.7196 21.7071 82.9246 21.1081 83.128 20.509C83.3825 19.759 83.6227 19.0042 83.8839 18.2569C84.0764 17.707 84.3006 17.168 84.497 16.6191C84.6778 16.1125 84.8356 15.5977 85.0116 15.0891C85.2085 14.5219 85.4182 13.9589 85.6159 13.3922C85.7926 12.8865 85.9562 12.376 86.1337 11.8704C86.4117 11.0794 86.7668 10.3072 86.9554 9.49549C87.0911 8.91091 87.4174 8.92584 87.8514 8.92824C89.6311 8.93835 91.4111 8.93065 93.1908 8.93402C93.7308 8.93498 93.8068 9.07979 93.6047 9.56669C93.2346 10.4592 92.8907 11.3628 92.5327 12.2606C92.2095 13.0717 91.8812 13.8815 91.5555 14.6922C91.2072 15.5597 90.8602 16.4276 90.5096 17.2942C90.1588 18.1612 89.7999 19.0244 89.4521 19.8922C89.1162 20.7313 88.7934 21.5763 88.4594 22.4162C88.0323 23.4906 87.5939 24.5602 87.17 25.6359C86.8341 26.4886 86.5177 27.3487 86.1847 28.2023C85.8681 29.0136 85.5506 29.8247 85.2153 30.6282C85.094 30.9188 84.8895 31.0867 84.5209 31.0823C82.8697 31.0618 81.217 31.0458 79.5668 31.0872C78.9402 31.103 78.8518 30.671 78.6906 30.2774C78.1512 28.962 77.6225 27.6423 77.1009 26.3197C76.6891 25.2751 76.3028 24.2205 75.8879 23.177C75.479 22.1492 75.0408 21.133 74.6308 20.1055C74.2911 19.2543 73.9804 18.3916 73.6454 17.5386C73.3972 16.9055 73.1258 16.2814 72.8747 15.6492C72.5234 14.7668 72.1847 13.8791 71.8346 12.9962C71.578 12.3486 71.3106 11.7049 71.0507 11.0582C70.8087 10.4554 70.5672 9.85202 70.3339 9.2453C70.2718 9.08365 70.3204 8.95758 70.5195 8.9446C70.6475 8.93641 70.776 8.93304 70.904 8.93304C72.6677 8.93257 74.4316 8.93161 76.1955 8.93304C76.8296 8.93353 76.8835 8.99223 77.0928 9.61385C77.3704 10.4385 77.6778 11.2531 77.9612 12.0753C78.2239 12.8374 78.4606 13.6087 78.729 14.3689C79.0674 15.3249 79.4339 16.2708 79.7741 17.2258C80.0402 17.9731 80.2768 18.7308 80.5406 19.4794C80.872 20.4211 81.219 21.3578 81.5572 22.2975C81.6862 22.6554 81.8088 23.0163 81.9344 23.3757C81.9748 23.39 82.0148 23.405 82.0542 23.4198Z" fill="#12201C"/>
<path d="M129.969 20.4242C129.969 18.8206 129.971 17.2169 129.968 15.6134C129.968 15.0851 129.961 15.0769 129.43 15.0745C128.548 15.0702 127.666 15.0769 126.784 15.0707C126.353 15.0678 126.321 15.0394 126.32 14.5996C126.315 12.8839 126.315 11.1682 126.32 9.45202C126.321 8.98773 126.375 8.93866 126.859 8.93433C127.725 8.9271 128.591 8.93529 129.457 8.92806C129.956 8.92422 129.967 8.90979 129.968 8.40749C129.97 6.64367 129.968 4.87984 129.97 3.11553C129.97 2.5377 129.973 2.53384 130.56 2.53288C132.163 2.53096 133.767 2.53047 135.37 2.53288C135.965 2.53384 135.998 2.56415 135.999 3.16028C136.004 4.76388 136.001 6.36749 136.002 7.97109C136.002 8.11545 135.997 8.26025 136.005 8.40412C136.03 8.8583 136.094 8.92518 136.558 8.92806C137.568 8.93384 138.578 8.93047 139.588 8.93096C139.925 8.93096 140.262 8.93047 140.599 8.93096C141.456 8.93239 141.472 8.94539 141.473 9.82778C141.475 11.175 141.474 12.5216 141.474 13.8688C141.474 14.0771 141.477 14.2859 141.468 14.4943C141.443 15.0177 141.391 15.0707 140.874 15.0716C139.463 15.0745 138.052 15.0716 136.641 15.0735C136.066 15.0745 136.005 15.1284 136.004 15.7062C136 18.1436 135.994 20.581 136.01 23.0185C136.014 23.5285 136.069 24.0462 136.17 24.5461C136.285 25.1133 136.686 25.4717 137.211 25.6983C137.678 25.8999 138.17 25.9278 138.668 25.924C139.165 25.9201 139.663 25.9317 140.159 25.9037C140.427 25.8884 140.69 25.8047 140.955 25.7508C141.295 25.6819 141.397 25.7459 141.452 26.0823C141.472 26.2079 141.472 26.3378 141.472 26.4663C141.474 27.5886 141.476 28.7111 141.471 29.8337C141.468 30.4919 141.425 30.5471 140.803 30.7622C140.032 31.0293 139.243 31.2083 138.42 31.228C138.214 31.2328 138.01 31.3069 137.805 31.3117C137.296 31.3232 136.787 31.3203 136.278 31.3079C136.088 31.303 135.9 31.2395 135.71 31.228C134.514 31.1563 133.471 30.7103 132.499 30.0194C131.571 29.3597 130.918 28.4914 130.527 27.4578C130.254 26.7357 130.048 25.9514 130.01 25.1854C129.932 23.6021 129.987 22.0119 129.987 20.4242C129.981 20.4242 129.975 20.4242 129.969 20.4242Z" fill="#12201C"/>
<path d="M101.587 19.9873C101.587 23.3707 101.587 26.7545 101.586 30.1377C101.586 30.3139 101.584 30.4904 101.576 30.6666C101.566 30.8749 101.446 30.9884 101.245 31.012C101.118 31.0265 100.989 31.0255 100.861 31.0255C99.2896 31.0265 97.7182 31.0273 96.1465 31.0255C95.4497 31.0245 95.4469 31.0206 95.4469 30.3326C95.4464 24.079 95.4464 17.8251 95.4464 11.5714C95.4464 10.8978 95.443 10.2243 95.4482 9.55117C95.4521 9.01664 95.4993 8.96227 96.0227 8.96082C97.6904 8.95553 99.358 8.95601 101.025 8.96082C101.554 8.96227 101.585 8.99692 101.585 9.54925C101.588 12.4356 101.587 15.3219 101.587 18.2081C101.587 18.801 101.587 19.3942 101.587 19.9873Z" fill="#12201C"/>
<path d="M62.5122 19.9842C62.5122 16.6669 62.5122 13.35 62.5122 10.0326C62.5122 9.90465 62.5117 9.77618 62.5122 9.64821C62.5151 8.978 62.5324 8.95826 63.2257 8.95634C64.2673 8.95346 65.309 8.95538 66.3507 8.95585C66.9117 8.95634 67.4727 8.94864 68.0332 8.96212C68.4339 8.97173 68.4961 9.04727 68.5129 9.45286C68.5176 9.56496 68.5142 9.67708 68.5142 9.78918C68.5142 16.6159 68.5142 23.4428 68.5142 30.2694C68.5142 31.0229 68.5137 31.0234 67.7483 31.0239C66.2261 31.0244 64.7032 31.0248 63.181 31.0234C62.5136 31.0229 62.5117 31.0205 62.5117 30.3691C62.5117 26.9074 62.5122 23.4456 62.5122 19.9842Z" fill="#12201C"/>
<path d="M102.114 3.68608C102.25 5.69191 100.403 7.37395 98.4935 7.3138C96.3847 7.24739 94.8802 5.7713 94.8481 3.64903C94.8186 1.72211 96.3578 0.0227483 98.5959 0.000135223C100.342 -0.0171855 102.271 1.63165 102.114 3.68608Z" fill="#12201C"/>
<path d="M65.5358 0.0214933C67.4964 -0.113223 69.2183 1.7627 69.1708 3.69877C69.1198 5.77917 67.52 7.32024 65.494 7.31159C63.5151 7.3034 61.895 5.74165 61.8484 3.65259C61.8071 1.80937 63.5348 -0.0992703 65.5358 0.0214933Z" fill="#12201C"/>
<path d="M33.7504 31.0209C31.7474 31.1551 30.048 29.2971 30.0866 27.4197C30.1299 25.3075 31.6766 23.7645 33.7673 23.7453C35.7201 23.7274 37.3511 25.2016 37.3892 27.4591C37.42 29.2917 35.8025 31.1481 33.7504 31.0209Z" fill="#12201C"/>
</g>
<defs>
<clipPath id="clip0_2326_944">
<rect width="141.474" height="32" fill="white"/>
</clipPath>
</defs>
</svg>
