<svg width="114" height="32" viewBox="0 0 114 32" fill="none" xmlns="http://www.w3.org/2000/svg">
<g clip-path="url(#clip0_2347_1527)">
<path d="M53.0352 24.0635H58.6517V25.5513H54.7253V27.23H58.5686V28.7152H54.7253V31.9992H53.0352V24.0635Z" fill="white"/>
<path d="M62.2188 24.0635H63.9089V32.001H62.2188V24.0635Z" fill="white"/>
<path d="M68.0273 24.0635H72.2037C73.7154 24.0635 74.4885 25.0274 74.4885 26.0867C74.4885 27.086 73.87 27.753 73.1199 27.9076C73.9646 28.0384 74.6431 28.8592 74.6431 29.8593C74.6431 31.0485 73.8479 32.001 72.3345 32.001H68.0273V24.0635ZM71.8344 27.2441C72.406 27.2441 72.763 26.8907 72.763 26.3871C72.763 25.8835 72.4096 25.5186 71.8344 25.5186H69.714V27.2441H71.8344ZM71.8945 30.5396C72.5368 30.5396 72.9176 30.1951 72.9176 29.6234C72.9176 29.1242 72.5642 28.6957 71.8945 28.6957H69.714V30.5396H71.8945Z" fill="white"/>
<path d="M78.3672 24.0635H83.9837V25.5513H80.0538V27.23H83.898V28.7152H80.0538V30.5114H83.981V31.9992H78.3672V24.0635Z" fill="white"/>
<path d="M90.7548 29.1808H89.5179V32.001H87.8242V24.0635H91.535C93.1889 24.0635 94.2005 25.1467 94.2005 26.6257C94.2005 28.0305 93.317 28.7797 92.4627 28.982L94.2482 32.0045H92.3045L90.7548 29.1808ZM91.2902 25.5513H89.517V27.693H91.2902C91.9688 27.693 92.4803 27.2883 92.4803 26.6221C92.4803 25.956 91.9688 25.5513 91.2902 25.5513Z" fill="white"/>
<path d="M71.1971 2.12598H67.2266V13.8069C67.2266 17.8331 69.8197 20.4085 73.845 20.4085V16.438C72.5321 16.438 71.1944 15.6614 71.1944 14.0684V9.55456H73.845V5.58405H71.1944L71.1971 2.12598Z" fill="white"/>
<path d="M30.7716 13.6446C30.7716 15.6184 29.7812 16.4383 28.4683 16.4383C27.1554 16.4383 26.1649 15.4196 26.1649 14.0687V5.57812H22.1953V14.0687C22.1953 18.0136 24.4041 20.43 27.9205 20.43C29.4631 20.43 31.2186 19.7462 32.0642 18.6859C32.6137 19.7462 33.6306 20.1641 34.5309 20.1641H34.7412V5.57812H30.7716V13.6446Z" fill="white"/>
<path d="M57.0057 12.0266C57.0057 10.0519 57.9952 9.23204 59.309 9.23204C60.6228 9.23204 61.6123 10.2507 61.6123 11.6025V20.0922H65.5819V11.6025C65.5819 7.65762 63.3732 5.24121 59.8559 5.24121C58.3133 5.24121 56.5586 5.92505 55.7131 6.98615C55.1627 5.92593 54.1466 5.50803 53.2463 5.50803H53.0352V20.0922H57.0057V12.0266Z" fill="white"/>
<path d="M84.1119 13.6446C84.1119 15.6184 83.1215 16.4383 81.8086 16.4383C80.4957 16.4383 79.5053 15.4196 79.5053 14.0687V5.57812H75.5312V14.0687C75.5312 18.0136 77.74 20.43 81.2564 20.43C82.799 20.43 84.5546 19.7462 85.4001 18.6859C85.9497 19.7462 86.9666 20.1641 87.8669 20.1641H88.0772V5.57812H84.1119V13.6446Z" fill="white"/>
<path d="M51.1855 5.5092H50.7738C49.6756 5.5092 48.5526 6.034 47.9527 6.89013C46.6716 5.89971 45.1087 5.2627 43.4468 5.2627C39.2651 5.2627 36.043 8.66423 36.043 12.845C36.043 17.0258 39.2651 20.4273 43.4468 20.4273C45.1414 20.4273 46.7335 19.7656 48.0287 18.7425C48.6286 19.5986 49.6756 20.0925 50.7738 20.0925H51.1855V5.5092ZM47.4103 12.8424C47.4103 13.5569 47.1984 14.2554 46.8014 14.8495C46.4044 15.4436 45.8402 15.9066 45.1801 16.1801C44.52 16.4535 43.7936 16.525 43.0928 16.3856C42.392 16.2462 41.7483 15.9022 41.243 15.3969C40.7378 14.8917 40.3937 14.248 40.2543 13.5472C40.1149 12.8464 40.1864 12.12 40.4599 11.4598C40.7333 10.7997 41.1964 10.2355 41.7905 9.83852C42.3846 9.44155 43.083 9.22967 43.7976 9.22967C44.7559 9.23061 45.6746 9.6119 46.352 10.2898C47.0294 10.9677 47.41 11.8867 47.4103 12.845V12.8424Z" fill="white"/>
<path d="M16.247 20.0928C15.1886 21.0589 14.0028 21.8755 12.7227 22.5198C13.9118 23.5129 14.8646 24.7585 15.5119 26.1661L19.3287 24.0668C18.5395 22.5736 17.4968 21.2289 16.247 20.0928Z" fill="white"/>
<path d="M12.7231 17.6699C11.3058 18.8723 9.60696 19.696 7.78516 20.0642V20.1208C9.6075 20.49 11.3064 21.3153 12.7231 22.5195C14.0026 21.8751 15.1878 21.0586 16.2457 20.0925C15.1878 19.1277 14.0026 18.3126 12.7231 17.6699Z" fill="white"/>
<path d="M10.3839 3.75966e-08C9.02027 -0.000116005 7.66993 0.268393 6.41004 0.790194C5.15015 1.312 4.00539 2.07687 3.04113 3.04113C2.07687 4.00539 1.312 5.15015 0.790194 6.41004C0.268393 7.66993 -0.000116005 9.02027 3.75966e-08 10.3839C3.75966e-08 15.8697 4.09067 18.8189 6.85872 18.8189C8.90052 18.8189 10.4882 18.0025 11.1809 16.7965C8.79538 16.7965 4.45291 14.517 4.45203 10.3848C4.45203 9.60607 4.60542 8.83494 4.90343 8.11546C5.20145 7.39598 5.63826 6.74224 6.18893 6.19158C6.73959 5.64091 7.39333 5.2041 8.11281 4.90608C8.83228 4.60807 9.60342 4.45468 10.3822 4.45468C11.1609 4.45468 11.9321 4.60807 12.6515 4.90608C13.371 5.2041 14.0248 5.64091 14.5754 6.19158C15.1261 6.74224 15.5629 7.39598 15.8609 8.11546C16.1589 8.83494 16.3123 9.60607 16.3123 10.3848C16.3123 13.2668 14.8598 15.8626 12.7244 17.6659C14.004 18.3096 15.1893 19.126 16.2469 20.092C18.9593 17.6111 20.7697 14.1769 20.7697 10.3848C20.7694 7.63052 19.6751 4.9891 17.7274 3.04159C15.7798 1.09408 13.1383 2.76302e-08 10.3839 3.75966e-08Z" fill="white"/>
<path d="M89.9219 20.0922H93.8924V12.0266C93.8924 10.0519 94.8819 9.23204 96.1957 9.23204C97.5095 9.23204 98.499 10.2507 98.499 11.6025V20.0922H102.469V12.0266C102.469 10.0519 103.459 9.23204 104.772 9.23204C106.085 9.23204 107.075 10.2507 107.075 11.6025V20.0922H111.045V11.6025C111.045 7.65762 108.836 5.24121 105.32 5.24121C103.729 5.24121 102.139 5.89943 101.135 7.19113C100.14 5.93742 98.6307 5.24121 96.7426 5.24121C95.2 5.24121 93.4453 5.92505 92.5998 6.98615C92.0494 5.92593 91.0333 5.50803 90.133 5.50803H89.9219V20.0922Z" fill="white"/>
<path d="M112.047 7.90841C111.799 7.90465 111.562 7.8114 111.378 7.6459C111.194 7.48041 111.076 7.25388 111.046 7.00828C111.017 6.76267 111.077 6.51462 111.216 6.31005C111.355 6.10548 111.564 5.95826 111.803 5.89563C112.043 5.833 112.296 5.85922 112.518 5.96943C112.739 6.07963 112.913 6.26636 113.008 6.49504C113.102 6.72372 113.111 6.97886 113.031 7.21321C112.952 7.44757 112.791 7.64526 112.577 7.7697C112.416 7.86331 112.233 7.91127 112.047 7.90841ZM112.047 7.67516C112.189 7.67788 112.329 7.64184 112.452 7.5709C112.57 7.50139 112.667 7.40166 112.734 7.282C112.802 7.1546 112.838 7.01224 112.838 6.86763C112.838 6.72301 112.802 6.58065 112.734 6.45326C112.667 6.3343 112.57 6.23521 112.452 6.16612C112.328 6.09774 112.189 6.06188 112.048 6.06188C111.906 6.06188 111.767 6.09774 111.643 6.16612C111.524 6.23462 111.426 6.33381 111.359 6.45326C111.29 6.58048 111.254 6.72291 111.254 6.86763C111.254 7.01235 111.29 7.15477 111.359 7.282C111.426 7.40212 111.524 7.50195 111.643 7.5709C111.766 7.64128 111.905 7.67729 112.047 7.67516ZM111.682 7.33324V6.35342H112.018C112.128 6.34796 112.237 6.379 112.329 6.44177C112.365 6.46999 112.394 6.50667 112.414 6.54868C112.433 6.59068 112.442 6.63677 112.44 6.68297C112.445 6.74369 112.431 6.80452 112.401 6.85738C112.371 6.91024 112.325 6.95264 112.27 6.97895L112.494 7.33854H112.245L112.069 7.02754H111.908V7.33324H111.682ZM112.022 6.55575H111.905V6.8208H112.026C112.146 6.8208 112.203 6.77574 112.203 6.68474C112.203 6.59374 112.142 6.55751 112.026 6.55751L112.022 6.55575Z" fill="white"/>
</g>
<defs>
<clipPath id="clip0_2347_1527">
<rect width="113.09" height="32" fill="white"/>
</clipPath>
</defs>
</svg>
