<svg width="48" height="49" viewBox="0 0 48 49" fill="none" xmlns="http://www.w3.org/2000/svg">
<path d="M24 44.1465C35.0457 44.1465 44 35.1922 44 24.1465C44 13.1008 35.0457 4.14648 24 4.14648C12.9543 4.14648 4 13.1008 4 24.1465C4 35.1922 12.9543 44.1465 24 44.1465Z" stroke="#12201C" stroke-width="4" stroke-linecap="round" stroke-linejoin="round"/>
<path d="M24 36.1465C30.6274 36.1465 36 30.7739 36 24.1465C36 17.5191 30.6274 12.1465 24 12.1465C17.3726 12.1465 12 17.5191 12 24.1465C12 30.7739 17.3726 36.1465 24 36.1465Z" stroke="#12201C" stroke-width="4" stroke-linecap="round" stroke-linejoin="round"/>
<path d="M24 28.1465C26.2091 28.1465 28 26.3556 28 24.1465C28 21.9373 26.2091 20.1465 24 20.1465C21.7909 20.1465 20 21.9373 20 24.1465C20 26.3556 21.7909 28.1465 24 28.1465Z" stroke="#12201C" stroke-width="4" stroke-linecap="round" stroke-linejoin="round"/>
</svg>
