<svg width="36" height="36" viewBox="0 0 36 36" fill="none" xmlns="http://www.w3.org/2000/svg">
<path d="M0.400739 15.9991C0.294457 15.9991 0.192523 15.9569 0.11737 15.8818C0.0422165 15.8066 0 15.7047 0 15.5984V12.4004C0 12.2941 0.0422165 12.1922 0.11737 12.117C0.192523 12.0419 0.294457 11.9997 0.400739 11.9997H7.60842C7.66114 11.9995 7.71338 12.0097 7.76212 12.0298C7.81087 12.0499 7.85519 12.0794 7.89252 12.1167C7.92985 12.1538 7.95947 12.1981 7.97968 12.2468C7.99989 12.2955 8.0103 12.3477 8.0103 12.4004V15.5984C8.0103 15.6511 7.99989 15.7033 7.97968 15.752C7.95947 15.8007 7.92985 15.845 7.89252 15.8821C7.85519 15.9194 7.81087 15.9489 7.76212 15.969C7.71338 15.9891 7.66114 15.9993 7.60842 15.9991H0.400739ZM0.400739 9.99928H13.6015C13.7075 9.99928 13.8093 9.95724 13.8844 9.88239C13.9595 9.80746 14.0019 9.70577 14.0022 9.59972V6.39943C14.0019 6.29334 13.9595 6.19171 13.8844 6.1168C13.8093 6.04188 13.7075 5.99982 13.6015 5.99982H0.39961C0.293717 6.00012 0.192247 6.04232 0.11737 6.11719C0.0424927 6.19207 0.00029787 6.29354 0 6.39943V9.59972C0.00029787 9.70559 0.0424927 9.8071 0.11737 9.88195C0.192247 9.95679 0.293717 9.99902 0.39961 9.99928H0.400739ZM16.0003 0H0.400739C0.294457 0 0.192523 0.0422218 0.11737 0.117375C0.0422165 0.192529 0 0.294457 0 0.400741V3.59876C0 3.70505 0.0422165 3.80697 0.11737 3.88213C0.192523 3.95729 0.294457 3.99951 0.400739 3.99951H15.9991C18.2662 3.99945 20.4868 4.64156 22.4039 5.8515C24.321 7.06144 25.8562 8.78969 26.8316 10.8361C27.807 12.8825 28.1827 15.1634 27.9153 17.4145C27.6479 19.6658 26.7483 21.7951 25.3206 23.556C23.8929 25.3171 21.9957 26.6376 19.8484 27.3647C17.7013 28.0919 15.392 28.196 13.188 27.6648C10.9842 27.1337 8.9758 25.9891 7.39559 24.3636C5.81535 22.7382 4.72789 20.6983 4.25914 18.4803C4.23109 18.3445 4.15703 18.2224 4.04948 18.1349C3.94193 18.0472 3.80746 17.9994 3.66875 17.9994H0.585871C0.528248 17.9997 0.471345 18.0122 0.419012 18.0363C0.366677 18.0605 0.320143 18.0956 0.282563 18.1392C0.244983 18.1829 0.21723 18.2342 0.2012 18.2896C0.185169 18.3448 0.181228 18.403 0.189645 18.4601C0.65998 21.4831 1.98718 24.308 4.01393 26.5997C6.04068 28.8916 8.68202 30.5543 11.6249 31.3908C14.5677 32.2274 17.6887 32.2026 20.618 31.3196C23.5472 30.4365 26.1619 28.7321 28.152 26.4085C30.1422 24.0848 31.4245 21.2393 31.8468 18.2091C32.2692 15.1789 31.8139 12.0912 30.535 9.31189C29.2561 6.5326 27.2072 4.1782 24.6311 2.52778C22.055 0.877358 19.0597 0.000106347 16.0003 0Z" fill="#12201C"/>
<path d="M32.5169 2.8289V4.5522C32.5169 4.55624 32.5185 4.56012 32.5214 4.56297C32.5242 4.56583 32.5281 4.56744 32.5322 4.56744H32.8408L32.8464 4.56627L32.8511 4.56291L32.854 4.55794L32.8547 4.5522V2.8289H33.5138L33.5195 2.82823L33.5245 2.82529L33.5279 2.82059L33.529 2.81493V2.54063C33.529 2.53659 33.5274 2.53271 33.5246 2.52985C33.5217 2.527 33.5178 2.52539 33.5138 2.52539H31.8629C31.8589 2.52539 31.855 2.527 31.8521 2.52985C31.8493 2.53271 31.8477 2.53659 31.8477 2.54063V2.81493L31.8488 2.82059L31.8522 2.82529L31.8572 2.82823L31.8629 2.8289H32.5169Z" fill="#12201C"/>
<path d="M34.1494 4.55963L34.1547 4.55809L34.159 4.55466L34.1616 4.54984L34.1621 4.54439V3.06619L34.8707 3.97546C34.8729 3.97844 34.8758 3.98082 34.8791 3.98238C34.8825 3.98394 34.8861 3.98461 34.8898 3.98435H34.9355C34.939 3.98452 34.9424 3.98379 34.9456 3.98223C34.9487 3.98067 34.9513 3.97834 34.9533 3.97546L35.6556 3.07254V4.54439C35.6555 4.54822 35.657 4.55192 35.6596 4.55474C35.6622 4.55756 35.6657 4.55931 35.6695 4.55963H35.9819C35.9839 4.55964 35.9876 4.55846 35.9876 4.55846L35.9923 4.5551L35.9952 4.55013L35.9959 4.54439V2.53282L35.9952 2.52708L35.9923 2.52211L35.9876 2.51875C35.9876 2.51875 35.9839 2.51757 35.9819 2.51758H35.6911C35.6877 2.51753 35.6842 2.51831 35.6812 2.51986C35.6781 2.5214 35.6754 2.52367 35.6733 2.52647L34.9114 3.52337L34.1494 2.52647C34.1473 2.52381 34.1445 2.52164 34.1415 2.52011C34.1384 2.51858 34.1351 2.51771 34.1316 2.51758H33.8434C33.8393 2.51758 33.8354 2.51919 33.8326 2.52205C33.8297 2.5249 33.8281 2.52878 33.8281 2.53282V4.54439C33.8281 4.54843 33.8297 4.55231 33.8326 4.55517C33.8354 4.55802 33.8393 4.55963 33.8434 4.55963H34.1494Z" fill="#12201C"/>
</svg>
