<svg width="96" height="32" viewBox="0 0 96 32" fill="none" xmlns="http://www.w3.org/2000/svg">
<g clip-path="url(#clip0_2326_941)">
<path d="M77.1951 9.33276C76.4047 9.59996 75.7471 10.2672 75.6159 10.9328L73.7759 17.3328L73.3807 15.7328C73.1183 14.8 72.1967 14.2672 71.2767 14.5328C71.0581 14.5939 70.8537 14.6979 70.6755 14.8386C70.4974 14.9793 70.3489 15.154 70.2388 15.3526C70.1286 15.5511 70.059 15.7696 70.0339 15.9952C70.0089 16.2209 70.0288 16.4493 70.0927 16.6672L71.1455 20.2672C71.4079 21.2 72.3295 21.7328 73.2495 21.4672C73.9055 21.3328 74.3007 20.8 74.4335 20.2672L76.1423 14L77.7199 19.7328C78.1151 21.0672 79.4303 21.7328 80.6143 21.3328C81.4031 21.0672 82.0607 20.4 82.1919 19.7328L85.6111 7.59996L88.8991 19.0672C89.4239 20.8 91.2671 21.8672 92.9759 21.3328C94.6847 20.8 95.7375 18.9328 95.2111 17.2L91.1343 3.06716C90.6079 1.33276 88.7663 0.26716 87.0559 0.79996C85.8719 1.06716 85.0831 1.99996 84.8207 3.19996L81.4015 15.4672L80.0863 10.9328C79.8223 9.73276 78.5071 8.93276 77.1935 9.33276H77.1951Z" fill="#12201C"/>
<path fill-rule="evenodd" clip-rule="evenodd" d="M70.8864 29.3332L70.6688 29.8868L70.5376 30.258H70.5184L70.3872 29.8868L70.168 29.3332H69.824V30.8116H70.0864V30.1572L70.0544 29.658H70.0752L70.416 30.5812H70.6368L70.9808 29.658H70.9968L70.9648 30.1572V30.8116H71.224V29.3332H70.8864ZM68.3824 29.3332V29.5908H68.8464V30.8116H69.128V29.5908H69.5984V29.3348H68.3824V29.3332ZM67.9872 19.7332C67.9872 20.8004 67.7248 21.4676 66.2784 21.4676C64.8304 21.4676 64.568 20.6676 64.568 19.7332V19.6004C64.568 18.6676 64.8304 17.8676 66.2784 17.8676C67.7248 18.1332 67.9872 18.8004 67.9872 19.7332ZM63.5184 31.4676C62.5968 31.4676 61.6768 31.3332 61.0192 30.6676C59.968 29.7332 59.8352 28.4004 59.8352 27.2004V21.3332H58.1264C57.3376 21.3332 57.0736 21.2004 57.0736 19.7332C57.0736 18.2676 57.3376 18.1332 58.1264 18.1332H59.8352V15.8676C59.8352 14.8004 59.9664 14.5332 61.6768 14.5332C63.3856 14.5332 63.5168 14.8004 63.5168 15.8676V26.5332C63.5168 27.6004 63.6496 27.8676 64.0448 28.1332C64.5696 28.5332 65.4912 28.2676 66.4112 28.1332C67.0672 28.0004 67.0672 28.4004 67.3312 29.3332C67.4624 30.4004 67.4624 30.8004 66.8048 30.9332C66.1488 31.0676 64.9648 31.4676 63.5184 31.4676ZM47.08 21.4676C46.4224 21.6004 46.4224 21.3332 46.1584 20.2676C46.0272 19.2004 46.0272 18.9332 46.6864 18.6676C46.9472 18.6676 48.6576 18.0004 51.1568 18.0004C53.6544 18.0004 54.9696 19.3332 55.3648 20.5332C55.8912 21.8676 55.7584 22.5332 55.7584 24.5332V29.3332C55.7584 30.1332 55.3648 30.4004 54.8384 30.6676C54.312 30.9332 52.7344 31.4676 50.7616 31.4676C47.6048 31.4676 45.1072 30.5332 45.1072 27.3332C45.1072 24.2676 47.2112 23.2004 50.2352 23.2004C50.8928 23.2004 51.5504 23.2004 52.208 23.3332V22.6676C52.208 21.4676 51.6816 20.8004 50.104 20.8004C49.184 20.9332 47.2112 21.4676 47.08 21.4676ZM50.8928 28.9332C51.4192 28.9332 51.9456 28.8004 52.3392 28.6676V26.0004C52.3392 26.0004 52.3392 25.8676 52.208 25.8676C51.552 25.7332 51.1568 25.7332 50.6304 25.7332C49.4464 25.7332 48.5264 26.0004 48.5264 27.3332C48.6576 28.5332 49.4464 28.9332 50.8944 28.9332H50.8928ZM42.3456 30.5332C41.688 31.0676 40.5056 31.6004 38.9264 31.6004C36.8224 31.6004 34.8496 30.9332 34.8496 30.9332C34.192 30.6676 34.192 30.5332 34.3232 29.4676C34.4544 28.4004 34.5856 28.0004 35.2432 28.1332C36.1648 28.2676 37.7424 28.8004 38.6624 28.8004C39.4528 28.8004 39.9776 28.5332 40.1104 27.7332C40.1104 26.9332 39.4512 26.4004 38.1376 26.1332C36.5584 25.7332 34.4544 24.9332 34.3232 22.1332C34.3232 20.0004 35.9008 18.2676 38.6624 18.2676C40.768 18.2676 41.8192 18.6676 42.4768 18.9332C43.1328 19.0676 43.1328 19.4676 42.8704 20.5332C42.608 21.6004 42.608 21.8676 41.9504 21.7332C41.2944 21.6004 40.1104 21.2004 38.9264 21.2004C38.4 21.2004 37.7424 21.4676 37.7424 22.1332C37.7424 22.9332 38.5312 23.0676 39.4528 23.4676C40.7664 24.0004 41.688 24.2676 42.3456 24.9332C43.2656 25.7332 43.5296 26.5332 43.5296 27.4676C43.792 28.6676 43.2656 29.8676 42.3456 30.5332ZM23.6704 21.4676C23.0144 21.6004 23.0144 21.3332 22.7504 20.2676C22.488 19.2004 22.488 18.8004 23.1456 18.6676C23.408 18.6676 25.1184 18.0004 27.616 18.0004C30.1152 18.0004 31.4304 19.3332 31.824 20.5332C32.352 21.8676 32.2192 22.5332 32.2192 24.5332V29.3332C32.2192 30.1332 31.824 30.4004 31.2992 30.6676C30.7712 30.9332 29.1952 31.4676 27.2224 31.4676C24.0656 31.4676 21.568 30.5332 21.568 27.3332C21.568 24.2676 23.6704 23.2004 26.696 23.2004C27.352 23.2004 28.0112 23.2004 28.6688 23.3332V22.6676C28.6688 21.4676 28.1424 20.8004 26.5648 20.8004C25.776 20.9332 23.6704 21.4676 23.6704 21.4676ZM27.3536 28.9332C27.88 28.9332 28.4048 28.8004 28.8 28.6676V26.0004C28.8 26.0004 28.8 25.8676 28.6688 25.8676C28.0112 25.7332 27.616 25.7332 27.0896 25.7332C25.9056 25.7332 24.9856 26.0004 24.9856 27.3332C25.1184 28.5332 25.9072 28.9332 27.3536 28.9332ZM17.6224 31.4676C15.912 31.4676 15.7808 31.2004 15.7808 30.1332V19.6004C15.7808 18.5332 15.912 18.2676 17.6208 18.2676C19.3328 18.2676 19.4624 18.5332 19.4624 19.6004V30.1332C19.4624 31.2004 19.3312 31.4676 17.6224 31.4676ZM12.624 14.6676C11.0464 14.6676 10.784 14.9332 10.52 16.0004L7.496 27.4676L4.4704 16.0004C4.2064 14.9332 3.9424 14.6676 2.3648 14.6676C0.787199 14.6676 0.526399 14.9332 0.787199 16.0004L4.864 30.1332C5.2592 31.2004 5.9168 31.4676 7.6256 31.4676C9.336 31.4676 9.9936 31.2004 10.3872 30.1332L14.464 16.0004C14.464 14.9332 14.2016 14.6676 12.624 14.6676Z" fill="#12201C"/>
</g>
<defs>
<clipPath id="clip0_2326_941">
<rect width="96" height="32" fill="white"/>
</clipPath>
</defs>
</svg>
