<svg width="292" height="51" viewBox="0 0 292 51" fill="none" xmlns="http://www.w3.org/2000/svg">
<path fill-rule="evenodd" clip-rule="evenodd" d="M0 0.129883H29.6997V21.27H10.3675L0 33.3936V21.27V0.129883ZM35.2824 11.6153H33.422V15.336H35.2824H43.0737V38.4317L38.9919 32.6769L38.4357 31.8929H37.4745H18.1803V26.8527V24.9923H14.4596V26.8527V33.7532V35.6135H16.32H36.5132L43.4166 45.3464L46.7943 50.1085V44.2701V13.4757V11.6153H44.934H35.2824ZM224.946 32.8667C225.967 32.8667 226.868 32.7208 227.646 32.4288C228.449 32.1126 229.191 31.6261 229.872 30.9693L232.9 34.2533C231.052 36.3697 228.351 37.4278 224.8 37.4278C222.586 37.4278 220.628 37.0021 218.925 36.1507C217.222 35.275 215.909 34.0709 214.984 32.5383C214.06 31.0058 213.598 29.2665 213.598 27.3204C213.598 25.3986 214.048 23.6715 214.948 22.1389C215.872 20.582 217.125 19.3779 218.706 18.5265C220.312 17.6508 222.112 17.2129 224.107 17.2129C225.98 17.2129 227.682 17.6143 229.215 18.417C230.748 19.1955 231.964 20.3388 232.864 21.847C233.788 23.3309 234.25 25.0945 234.25 27.1379L219.728 29.9476C220.141 30.9206 220.786 31.6504 221.662 32.1369C222.562 32.6234 223.656 32.8667 224.946 32.8667ZM224.107 21.5186C222.671 21.5186 221.504 21.9808 220.604 22.9052C219.703 23.8296 219.229 25.1067 219.18 26.7365L228.741 24.8756C228.473 23.8539 227.926 23.039 227.099 22.4308C226.272 21.8227 225.274 21.5186 224.107 21.5186ZM192.785 33.0487V37.1355H211.03V31.954H201.501L210.665 21.4087V17.3584H193.041V22.5034H201.945L192.785 33.0487ZM182.846 17.5047H188.538V37.1359H182.846V17.5047ZM185.692 14.768C184.646 14.768 183.794 14.464 183.138 13.8558C182.481 13.2477 182.152 12.4936 182.152 11.5935C182.152 10.6934 182.481 9.93932 183.138 9.33117C183.794 8.72302 184.646 8.41895 185.692 8.41895C186.738 8.41895 187.589 8.71086 188.246 9.29469C188.903 9.87851 189.231 10.6083 189.231 11.484C189.231 12.4327 188.903 13.2233 188.246 13.8558C187.589 14.464 186.738 14.768 185.692 14.768ZM176.405 19.4022C174.97 17.9427 173.024 17.2129 170.567 17.2129C169.107 17.2129 167.757 17.4926 166.516 18.0521C165.3 18.6116 164.291 19.4022 163.488 20.4239C162.807 19.3779 161.907 18.5873 160.788 18.0521C159.669 17.4926 158.416 17.2129 157.029 17.2129C155.764 17.2129 154.597 17.4318 153.526 17.8697C152.48 18.3076 151.592 18.94 150.863 19.7671V17.5048H145.426V37.1359H151.118V27.2839C151.118 25.5811 151.507 24.3039 152.286 23.4525C153.064 22.5768 154.11 22.1389 155.424 22.1389C157.905 22.1389 159.146 23.6836 159.146 26.773V37.1359H164.838V27.2839C164.838 25.5811 165.227 24.3039 166.006 23.4525C166.784 22.5768 167.842 22.1389 169.18 22.1389C170.372 22.1389 171.284 22.5281 171.917 23.3066C172.574 24.0607 172.902 25.2162 172.902 26.773V37.1359H178.594V25.8973C178.594 23.0025 177.865 20.8375 176.405 19.4022ZM135.498 17.5047H141.19V37.1359H135.498V17.5047ZM138.344 14.768C137.298 14.768 136.447 14.464 135.79 13.8558C135.133 13.2477 134.805 12.4936 134.805 11.5935C134.805 10.6934 135.133 9.93932 135.79 9.33117C136.447 8.72302 137.298 8.41895 138.344 8.41895C139.39 8.41895 140.242 8.71086 140.898 9.29469C141.555 9.87851 141.884 10.6083 141.884 11.484C141.884 12.4327 141.555 13.2233 140.898 13.8558C140.242 14.464 139.39 14.768 138.344 14.768ZM129.821 37.136C130.648 36.9171 131.341 36.6008 131.901 36.1873L130.405 32.1735C129.723 32.66 128.945 32.9033 128.069 32.9033C127.291 32.9033 126.695 32.6843 126.281 32.2465C125.868 31.7843 125.661 31.1396 125.661 30.3125V22.3214H130.514V17.9427H125.661V8.41797L119.969 13.1627V30.3855C119.969 32.6965 120.601 34.448 121.866 35.6399C123.131 36.8319 124.943 37.4279 127.303 37.4279C128.179 37.4279 129.018 37.3306 129.821 37.136ZM106.635 17.2129C108.459 17.2129 110.113 17.6386 111.597 18.49C113.106 19.3171 114.285 20.4969 115.137 22.0294C115.988 23.5377 116.414 25.3013 116.414 27.3204C116.414 29.3394 115.988 31.1152 115.137 32.6478C114.285 34.156 113.106 35.3358 111.597 36.1872C110.113 37.0143 108.459 37.4278 106.635 37.4278C104.129 37.4278 102.159 36.6372 100.724 35.0561V44.2148L95.0312 50.2296V17.5048H100.468V19.7671C101.879 18.0643 103.935 17.2129 106.635 17.2129ZM105.65 32.7572C107.109 32.7572 108.301 32.2707 109.226 31.2977C110.174 30.3003 110.649 28.9745 110.649 27.3204C110.649 25.6662 110.174 24.3526 109.226 23.3795C108.301 22.3822 107.109 21.8835 105.65 21.8835C104.19 21.8835 102.986 22.3822 102.037 23.3795C101.113 24.3526 100.651 25.6662 100.651 27.3204C100.651 28.9745 101.113 30.3003 102.037 31.2977C102.986 32.2707 104.19 32.7572 105.65 32.7572ZM70.3104 35.8584C72.4511 37.0017 74.8472 37.5734 77.4988 37.5734C80.1503 37.5734 82.5343 37.0017 84.6506 35.8584C86.767 34.7151 88.4333 33.146 89.6496 31.1513C90.8659 29.1322 91.4741 26.8699 91.4741 24.3643C91.4741 21.8587 90.8659 19.6086 89.6496 17.6138C88.4333 15.5948 86.767 14.0136 84.6506 12.8703C82.5343 11.7269 80.1503 11.1553 77.4988 11.1553C74.8472 11.1553 72.4511 11.7269 70.3104 12.8703C68.194 14.0136 66.5277 15.5948 65.3114 17.6138C64.1194 19.6086 63.5234 21.8587 63.5234 24.3643C63.5234 26.8699 64.1194 29.1322 65.3114 31.1513C66.5277 33.146 68.194 34.7151 70.3104 35.8584ZM81.5855 31.5162C80.3692 32.1973 79.007 32.5379 77.4988 32.5379C75.9905 32.5379 74.6283 32.1973 73.412 31.5162C72.1957 30.8107 71.2348 29.8377 70.5293 28.5971C69.8482 27.3564 69.5076 25.9455 69.5076 24.3643C69.5076 22.7831 69.8482 21.3722 70.5293 20.1316C71.2348 18.891 72.1957 17.9301 73.412 17.249C74.6283 16.5435 75.9905 16.1908 77.4988 16.1908C79.007 16.1908 80.3692 16.5435 81.5855 17.249C82.8018 17.9301 83.7506 18.891 84.4317 20.1316C85.1371 21.3722 85.4899 22.7831 85.4899 24.3643C85.4899 25.9455 85.1371 27.3564 84.4317 28.5971C83.7506 29.8377 82.8018 30.8107 81.5855 31.5162ZM253.645 37.574C250.021 37.574 247.187 36.5644 245.143 34.5454C243.1 32.5263 242.078 29.6437 242.078 25.8975V11.5938H247.989V25.6785C247.989 28.1111 248.488 29.8626 249.485 30.933C250.483 32.0033 251.882 32.5385 253.682 32.5385C255.482 32.5385 256.881 32.0033 257.878 30.933C258.875 29.8626 259.374 28.1111 259.374 25.6785V11.5938H261.309L265.212 17.1053V25.8975C265.212 29.6437 264.191 32.5263 262.147 34.5454C260.104 36.5644 257.27 37.574 253.645 37.574ZM278.247 28.2702L284.413 37.1371H291.237L281.713 23.928L290.616 11.5947H284.231L278.466 19.8777L272.591 11.5947H265.877L274.853 24.1469L265.403 37.1371H272.19L278.247 28.2702Z" fill="url(#paint0_linear_2867_857)"/>
<defs>
<linearGradient id="paint0_linear_2867_857" x1="-4.33979e-06" y1="50.3629" x2="284.444" y2="-25.2834" gradientUnits="userSpaceOnUse">
<stop stop-color="#12201C"/>
<stop offset="1" stop-color="#204B4B"/>
</linearGradient>
</defs>
</svg>
