<svg width="89" height="32" viewBox="0 0 89 32" fill="none" xmlns="http://www.w3.org/2000/svg">
<path fill-rule="evenodd" clip-rule="evenodd" d="M47.9665 15.5879C47.9665 14.6222 49.3229 13.9214 51.4029 13.9214C53.7752 13.9214 56.0039 14.763 57.3909 15.9462C57.6488 16.1657 58.0425 16.0968 58.2108 15.8025L59.904 12.4359C60.0349 12.2086 59.9738 11.9211 59.7652 11.7636C57.6734 10.1916 54.8581 9.0625 51.3576 9.0625C45.6158 9.0625 42.4067 12.2725 42.4067 15.9344C42.4067 24.4847 55.3817 21.5256 55.3817 25.285C55.3817 26.3136 54.2064 27.1848 51.7199 27.1848C49.2491 27.1848 46.3294 26.2103 44.6324 24.8627C44.3794 24.6619 44.0063 24.7298 43.836 25.0054L41.9136 28.2214C41.7787 28.4389 41.823 28.7234 42.0199 28.8888C44.3361 30.8349 47.8306 31.9836 51.4492 31.9836C57.507 31.9836 60.8982 29 60.8982 24.9769C60.8952 16.3606 47.9665 19.0224 47.9665 15.5879Z" fill="white"/>
<path fill-rule="evenodd" clip-rule="evenodd" d="M21.8078 1.01172H16.757C16.5542 1.01172 16.3888 1.17611 16.3888 1.37987V12.0406C14.6967 10.192 12.4267 9.06586 9.87228 9.06586C4.41984 9.06586 0 14.1964 0 20.5249C0 26.8535 4.41984 31.984 9.87129 31.984C12.4257 31.984 14.6967 30.8579 16.3878 29.0093V31.0735C16.3878 31.2763 16.5522 31.4416 16.756 31.4416H21.8068C22.0096 31.4416 22.175 31.2773 22.175 31.0735V1.37889C22.175 1.17611 22.0106 1.01172 21.8078 1.01172ZM11.084 27.1714C8.15356 27.1714 5.77925 24.1947 5.77925 20.522C5.77925 16.8493 8.15455 13.8726 11.084 13.8726C14.0007 13.8726 16.3672 16.8237 16.3878 20.4728V20.5702C16.3682 24.2213 14.0017 27.1714 11.084 27.1714Z" fill="white"/>
<path fill-rule="evenodd" clip-rule="evenodd" d="M75.8128 9.0639C73.1442 9.0639 71.0918 10.1851 69.7442 12.015V1.3789C69.7442 1.17612 69.5798 1.01074 69.376 1.01074H64.3252C64.1224 1.01074 63.957 1.17513 63.957 1.3789V31.0735C63.957 31.2763 64.1214 31.4417 64.3252 31.4417H69.376C69.5788 31.4417 69.7442 31.2773 69.7442 31.0735V18.3751C69.7481 15.5007 71.8015 13.8982 74.2811 13.8982C76.7637 13.8982 78.7128 15.4239 78.7128 19.1705L78.7177 31.0735C78.7177 31.2763 78.8821 31.4417 79.0859 31.4417H84.1367C84.3395 31.4417 84.5048 31.2773 84.5048 31.0735V18.8181C84.5058 12.08 80.6382 9.0639 75.8128 9.0639Z" fill="white"/>
<path d="M28.7382 3.41971C28.7382 1.52972 30.3132 0 32.158 0C34.048 0 35.5777 1.52972 35.5777 3.41971C35.5777 5.30971 34.048 6.83942 32.158 6.83942C30.3132 6.83942 28.7382 5.30971 28.7382 3.41971ZM38.704 25.8841C36.3927 27.2268 33.9141 27.5811 32.2072 27.5841C30.5003 27.5811 28.0206 27.2278 25.7103 25.8841C25.3313 25.6725 25.1295 26.0426 25.2083 26.3654C25.9928 29.5893 28.817 31.9803 32.1865 32H32.2278C35.5974 31.9803 38.4215 29.5903 39.2061 26.3654C39.2848 26.0416 39.083 25.6715 38.704 25.8841ZM37.3367 17.7423C35.5117 18.8025 33.5548 19.0821 32.2072 19.084C30.8596 19.0821 28.9017 18.8025 27.0776 17.7423C26.7784 17.575 26.6189 17.8674 26.6809 18.1223C27.3001 20.6679 29.5297 22.5559 32.1904 22.5707H32.2229C34.8837 22.5549 37.1133 20.6679 37.7325 18.1223C37.7955 17.8674 37.636 17.575 37.3367 17.7423ZM35.8809 10.8035C34.5746 11.5624 33.1719 11.7633 32.2072 11.7642C31.2425 11.7623 29.8398 11.5624 28.5335 10.8035C28.3189 10.6834 28.2057 10.8931 28.25 11.0752C28.6939 12.8982 30.2906 14.2498 32.1954 14.2606H32.219C34.1247 14.2498 35.7214 12.8982 36.1644 11.0752C36.2087 10.8931 36.0945 10.6844 35.8809 10.8035Z" fill="white"/>
<path d="M86.9441 30.1162V30.3298H86.5317V31.4067H86.2757V30.3298H85.8633V30.1162H86.9441ZM88.339 31.4067L88.2917 30.6478C88.2868 30.5484 88.2868 30.4243 88.2819 30.2875H88.2681C88.2346 30.4017 88.1972 30.5533 88.1588 30.6714L87.9265 31.388H87.6608L87.4284 30.6527C87.4048 30.5533 87.3664 30.4017 87.3379 30.2875H87.3241C87.3241 30.4066 87.3192 30.5296 87.3142 30.6478L87.267 31.4067H87.0199L87.1144 30.1162H87.4983L87.7218 30.7472C87.7503 30.8466 87.7739 30.9421 87.8074 31.075H87.8123C87.8458 30.9559 87.8744 30.8476 87.9029 30.7521L88.1264 30.1162H88.4965L88.5949 31.4067H88.339Z" fill="white"/>
</svg>
