<svg width="145" height="32" viewBox="0 0 145 32" fill="none" xmlns="http://www.w3.org/2000/svg">
<g clip-path="url(#clip0_2324_840)">
<path d="M141.28 0.0581409C142.39 -0.000253229 143.499 -0.000253229 144.609 0.0289439C141.28 6.97785 138.069 13.9851 134.828 20.9633H132.113C130.623 17.4596 128.872 14.0435 127.324 10.5399C128.405 10.5107 129.485 10.5107 130.565 10.5399C131.499 12.7005 132.609 14.7735 133.456 16.9341C136.054 11.299 138.74 5.69318 141.28 0.0581409Z" fill="#12201C"/>
<path d="M57.6897 3.03613C59.8211 3.06533 61.9817 3.06533 64.1131 3.03613C64.0839 4.93394 64.0839 6.86095 64.1131 8.75876C61.9817 8.72956 59.8211 8.75876 57.6605 8.72956C57.7189 6.83175 57.6605 4.93394 57.6897 3.03613ZM25.3686 11.2113C29.7481 8.72956 36.1131 9.57628 39.062 13.8682C40.8722 16.4084 41.3978 19.6201 41.3686 22.6566C36.3467 22.6858 31.3248 22.6566 26.3029 22.6858C26.5364 24.2332 27.208 25.8682 28.6386 26.6858C30.6824 27.8828 33.8941 27.5325 34.916 25.1675C36.989 25.1091 39.0328 25.1091 41.1058 25.1675C40.4634 27.5325 38.7408 29.5471 36.5802 30.6566C34.2445 31.9412 31.4415 32.1748 28.843 31.7369C26.0985 31.2989 23.5583 29.7515 22.0109 27.4449C20.3175 24.9923 19.8795 21.8682 20.2591 18.9777C20.6386 15.7953 22.5364 12.788 25.3686 11.2113ZM28.7846 14.8609C27.354 15.5325 26.6532 17.0799 26.3321 18.569H34.916C34.7408 17.4303 34.3321 16.2332 33.4561 15.4449C32.2299 14.2478 30.2737 14.2186 28.7846 14.8609ZM92.697 10.1018C96.1423 9.48869 99.9671 10.2186 102.624 12.6128C107.15 16.642 107.354 24.4376 103.15 28.7588C99.8211 32.2332 94.2445 32.8755 89.9817 30.9193C86.6824 29.4303 84.4342 26.0726 84.0547 22.5106C83.9087 20.4376 83.9963 18.3062 84.843 16.3792C86.1277 13.0799 89.2518 10.6858 92.697 10.1018ZM93.4269 14.8609C91.6167 15.5033 90.77 17.4595 90.5072 19.2405C90.3029 21.4595 90.3321 23.9704 91.7627 25.8099C93.3102 27.8245 96.7262 27.7661 98.2737 25.7807C99.5583 24.1748 99.7627 21.985 99.6167 19.9996C99.5291 18.2478 98.916 16.3792 97.4561 15.2989C96.2883 14.5106 94.7408 14.3938 93.4269 14.8609ZM115.617 11.2989C117.748 9.63467 120.785 9.45949 123.237 10.4522C124.989 11.2113 126.303 12.7588 126.916 14.5398C127.617 16.3792 127.412 18.3646 127.412 20.2916C127.412 23.9704 127.383 27.6493 127.442 31.2989C125.31 31.3281 123.179 31.2989 121.018 31.3281V18.715C121.018 17.6347 120.609 16.4668 119.704 15.7953C118.332 14.8609 116.347 15.0361 115.179 16.204C114.244 17.1383 113.836 18.4814 113.865 19.7661V31.3281C111.763 31.2989 109.631 31.3281 107.529 31.2989C107.529 24.35 107.558 17.4011 107.529 10.4522C109.602 10.4814 111.646 10.423 113.719 10.4814C113.69 11.4449 113.69 12.4084 113.661 13.3719C114.303 12.6712 114.828 11.8828 115.617 11.2989ZM0.0546875 10.5106H6.71162C8.05469 14.9777 9.48534 19.4449 10.7408 23.9412C12.2883 19.5325 13.4561 14.9777 14.916 10.5106C17.0474 10.4814 19.208 10.5106 21.3394 10.4814C18.8868 17.4303 16.4926 24.3792 14.0693 31.3281C11.8503 31.3281 9.63133 31.2989 7.41235 31.3573C4.87221 24.4376 2.62403 17.4011 0.0546875 10.5106ZM42.8284 10.4814H48.9598C48.9306 11.6493 48.9598 12.8172 48.9014 13.985C49.4269 13.4011 49.8065 12.6712 50.3613 12.1164C51.7335 10.5982 53.9817 9.98504 55.9671 10.5106C55.9379 12.35 55.9379 14.1894 55.9671 15.9996C54.3905 15.8245 52.6386 15.8828 51.2956 16.8464C49.8649 17.8391 49.2226 19.6785 49.2518 21.3719C49.2226 24.7004 49.2518 27.9996 49.2518 31.3281C47.1204 31.3281 44.9598 31.2989 42.8284 31.3573C42.8576 24.3792 42.8576 17.4303 42.8284 10.4814ZM57.6897 10.5106C59.8503 10.4814 61.9817 10.5106 64.1423 10.4814C64.1131 17.4303 64.1423 24.3792 64.1423 31.3281C62.0109 31.2989 59.8503 31.3281 57.6897 31.3281V10.5106ZM65.8649 10.4814C71.6751 10.5106 77.4853 10.4814 83.2664 10.5106C83.208 12.1164 83.2664 13.6931 83.2372 15.2989C83.0328 15.7077 82.6824 15.9996 82.4196 16.35C79.4415 19.6493 76.5218 23.0361 73.4853 26.3062C76.9014 26.3646 80.3175 26.3062 83.7335 26.3354V31.3573C77.7773 31.3281 71.8211 31.3281 65.8649 31.3573V26.5106C68.989 23.0069 72.0839 19.5325 75.2372 16.058C75.3248 15.8828 75.7043 15.7077 75.4999 15.4741C72.2883 15.5617 69.0766 15.4741 65.8649 15.5325V10.4814Z" fill="#12201C"/>
</g>
<defs>
<clipPath id="clip0_2324_840">
<rect width="144.665" height="32" fill="white"/>
</clipPath>
</defs>
</svg>
