<svg width="175" height="33" viewBox="0 0 175 33" fill="none" xmlns="http://www.w3.org/2000/svg">
<g clip-path="url(#clip0_1801_912)">
<path d="M48.8471 8.6447H50.5291C50.5291 8.6447 50.6412 8.6447 50.6412 8.75684V13.0179C50.6412 13.0179 50.6412 13.13 50.5291 13.13H49.9684C48.8471 13.0179 47.6136 13.3543 46.7166 14.1392C46.268 14.4756 45.9316 14.9241 45.7074 15.4848C45.371 16.2697 45.2588 17.0547 45.371 17.8396V25.4646H40.9978V16.8304C40.9978 12.3451 44.4739 8.86897 48.8471 8.6447ZM17.562 17.8396C15.6558 21.0914 11.5069 22.1006 8.36715 20.1944C5.22744 18.2881 3.99398 14.2513 5.90023 10.9995C7.80649 7.74764 11.9554 6.73845 15.0951 8.6447C16.1043 9.20537 16.8892 10.1024 17.4499 10.9995L20.1411 7.41124C16.3286 2.70167 9.37635 2.02887 4.66677 5.95352C-0.0428018 9.87816 -0.715599 16.8304 3.09692 21.54C6.90943 26.2495 13.9738 26.9223 18.6834 23.1098C19.244 22.6613 19.8047 22.1006 20.2532 21.54L17.562 17.8396ZM29.7845 8.53257C25.0749 8.53257 21.3746 12.3451 21.3746 16.9425C21.3746 21.54 25.0749 25.4646 29.7845 25.4646C34.4941 25.4646 38.1945 21.6521 38.1945 17.0547C38.1945 12.3451 34.4941 8.53257 29.7845 8.53257ZM29.7845 20.9793C27.654 20.9793 25.8599 19.1852 25.8599 17.0547C25.8599 14.9241 27.654 13.13 29.7845 13.13C31.915 13.13 33.7092 14.9241 33.7092 17.0547C33.7092 19.1852 31.915 20.9793 29.7845 20.9793ZM147.075 8.86897H147.636C149.879 8.86897 152.009 9.87816 153.467 11.5602C154.813 13.0179 155.597 15.0363 155.597 17.0547V25.3525H151.336H151.224V17.0547C151.224 15.5969 150.439 14.3635 149.094 13.6907C148.645 13.4664 148.085 13.3543 147.524 13.2421H147.188C145.842 13.2421 144.608 14.0271 143.936 15.2605C143.599 16.0455 143.375 16.9425 143.487 17.8396V25.2404H139.226H139.114V16.8304C139.226 12.4572 142.702 8.9811 147.075 8.75684V8.86897ZM166.138 7.97191H166.699C168.941 7.97191 171.072 8.9811 172.53 10.6631C173.875 12.1208 174.66 14.1392 174.66 16.1576V24.5676C174.66 27.2587 173.314 29.7257 171.072 31.2955C169.726 32.1926 168.156 32.7532 166.474 32.7532H161.653H161.541V28.4922H166.474C167.932 28.4922 169.166 27.7073 169.838 26.4738C170.063 25.9131 170.287 25.3525 170.287 24.7918V23.6705C169.166 24.2312 167.82 24.5676 166.474 24.5676H166.362C164.344 24.5676 162.325 23.7826 160.868 22.3249C159.298 20.8672 158.289 18.7367 158.289 16.6061V16.0455C158.513 11.448 161.877 8.08404 166.138 7.97191ZM166.474 12.3451H166.362C165.017 12.3451 163.783 13.13 163.11 14.3635C162.774 14.9241 162.662 15.5969 162.662 16.1576C162.662 17.6153 163.559 19.0731 164.904 19.6337C165.353 19.858 165.914 19.9701 166.474 19.9701H166.699C168.156 19.9701 169.39 19.1852 170.063 17.8396C170.287 17.2789 170.511 16.7183 170.511 16.1576V15.9333C170.511 13.9149 168.941 12.233 166.923 12.233L166.474 12.3451ZM106.595 3.59873H110.857C110.857 3.59873 110.969 3.59873 110.969 3.71086V8.9811H116.127C116.127 8.9811 116.239 8.9811 116.239 9.09323V13.3543H111.081V16.494C110.969 17.5032 111.305 18.5124 111.866 19.4094C112.651 20.5308 113.996 21.2036 115.342 21.0914H116.239H116.351V25.3525H114.781C110.52 25.1282 107.044 21.7642 106.932 17.3911L106.595 3.59873ZM119.154 3.59873H123.415C123.415 3.59873 123.528 3.59873 123.528 3.71086V8.9811H128.686C128.686 8.9811 128.798 8.9811 128.798 9.09323V13.3543H123.64V16.494C123.528 17.5032 123.752 18.5124 124.312 19.4094C125.097 20.5308 126.443 21.2036 127.789 21.0914H128.686H128.798V25.3525H127.228C122.967 25.1282 119.491 21.7642 119.379 17.3911L119.154 3.59873ZM135.974 8.9811H131.713C131.713 8.9811 131.601 8.9811 131.601 9.09323V25.3525H135.862H135.974V8.9811ZM133.844 5.28072C135.077 5.28072 136.086 4.27153 136.086 3.03807C136.086 1.8046 135.077 0.79541 133.844 0.79541C132.61 0.79541 131.601 1.8046 131.601 3.03807C131.601 4.27153 132.61 5.28072 133.844 5.28072ZM82.599 10.9995L85.2902 7.41124C84.1689 5.95352 82.599 4.94432 81.0292 4.27153L78.338 7.85977C80.1321 8.30831 81.702 9.42963 82.599 10.9995ZM76.7681 21.2036C74.3012 21.2036 72.0586 19.858 70.8251 17.7275L68.1339 21.3157C71.9464 26.0253 78.8987 26.8102 83.6082 22.9977C84.1689 22.5492 84.7296 21.9885 85.1781 21.4278L82.4869 17.8396C81.3656 19.9701 79.1229 21.2036 76.7681 21.2036ZM87.0844 8.9811H91.3454C91.3454 8.9811 91.4575 8.9811 91.4575 9.09323V16.494C91.3454 17.6153 91.6818 18.6245 92.2425 19.5216C92.9153 20.4186 94.0366 20.9793 95.1579 20.9793H95.3822C96.8399 20.9793 98.2976 20.0822 98.8583 18.7367C99.0826 18.2881 99.0826 17.8396 99.0826 17.2789V9.09323C99.0826 9.09323 99.0826 8.9811 99.1947 8.9811H103.456C103.456 8.9811 103.568 8.9811 103.568 9.09323V17.2789C103.568 21.7642 99.9796 25.4646 95.4943 25.5768H95.27C90.8969 25.5768 87.3086 22.1006 87.1965 17.7275L87.0844 8.9811C86.9722 9.09323 86.9722 8.9811 87.0844 8.9811ZM68.246 14.3635V3.71086C68.246 3.71086 68.246 3.59873 68.1339 3.59873H63.8729C63.8729 3.59873 63.7607 3.59873 63.7607 3.71086V9.9903C62.6394 9.3175 61.2938 8.9811 59.9482 8.9811C57.9298 8.9811 55.9114 9.76603 54.3416 11.1116C52.6596 12.5694 51.6504 14.6999 51.6504 16.9425V17.5032C51.6504 19.6337 52.5475 21.6521 54.1173 23.1098C55.6872 24.5676 57.7056 25.4646 59.8361 25.4646L68.246 14.3635ZM56.1357 17.3911V17.0547C56.1357 16.7183 56.1357 16.494 56.2478 16.1576C56.9206 14.1392 59.0512 13.0179 61.1817 13.6907C61.4059 13.8028 61.6302 13.8028 61.8545 13.9149C63.0879 14.5877 63.8729 15.8212 63.8729 17.2789V17.3911C63.8729 17.8396 63.7607 18.2881 63.6486 18.7367C63.0879 20.1944 61.6302 21.2036 60.0604 21.2036C59.4997 21.2036 58.939 21.0914 58.3784 20.8672C57.0328 20.1944 56.1357 18.8488 56.1357 17.3911Z" fill="white"/>
</g>
<defs>
<clipPath id="clip0_1801_912">
<rect width="174.367" height="32" fill="white" transform="translate(0.630859 0.79541)"/>
</clipPath>
</defs>
</svg>
