<svg width="48" height="49" viewBox="0 0 48 49" fill="none" xmlns="http://www.w3.org/2000/svg">
<path d="M22 16.7954H10C7.79086 16.7954 6 18.5863 6 20.7954V40.7954C6 43.0045 7.79086 44.7954 10 44.7954H22C24.2091 44.7954 26 43.0045 26 40.7954V20.7954C26 18.5863 24.2091 16.7954 22 16.7954Z" stroke="#12201C" stroke-width="4" stroke-linecap="round" stroke-linejoin="round"/>
<path d="M10 8.79541C10 7.73454 10.4214 6.71713 11.1716 5.96698C11.9217 5.21684 12.9391 4.79541 14 4.79541H38C39.0609 4.79541 40.0783 5.21684 40.8284 5.96698C41.5786 6.71713 42 7.73454 42 8.79541V40.7954C42 41.8563 41.5786 42.8737 40.8284 43.6238C40.0783 44.374 39.0609 44.7954 38 44.7954H33.2" stroke="#12201C" stroke-width="4" stroke-linecap="round" stroke-linejoin="round"/>
<path d="M16 36.7954H16.02" stroke="#12201C" stroke-width="4" stroke-linecap="round" stroke-linejoin="round"/>
</svg>
