<svg width="226" height="33" viewBox="0 0 226 33" fill="none" xmlns="http://www.w3.org/2000/svg">
<g clip-path="url(#clip0_1833_958)">
<path fill-rule="evenodd" clip-rule="evenodd" d="M127.588 0.79541H122.922V13.7959H127.588V0.79541ZM143.331 0.817643C142.904 7.80419 136.855 13.3999 129.303 13.7957V9.51714C134.305 9.13583 138.294 5.44573 138.706 0.817643H143.331ZM212.884 18.1328C210.822 18.1328 209.642 19.2053 208.997 20.6751V14.4782H206.85V28.3816H208.997V24.1907C208.997 21.0327 210.157 19.7813 212.261 19.7813C213.613 19.7813 214.644 20.2779 214.644 22.3634V28.3816H216.791V22.1847C216.791 19.5827 215.739 18.1328 212.884 18.1328ZM167.728 15.1733H156.95V28.3816H159.162V22.562H167.084V20.9532H159.162V16.8219H167.728V15.1733ZM175.16 18.2917C173.164 18.2917 172.004 19.3841 171.36 20.8539V18.4506H169.235V28.3816H171.382V24.588C171.382 21.8867 172.069 20.2183 174.946 20.2183H175.482V18.2917H175.16ZM178.408 23.9722C178.58 26.4749 179.954 27.2296 181.801 27.2296C183.754 27.2296 184.613 26.4153 184.914 25.3824H186.889C186.696 26.7529 185.515 28.6994 181.736 28.6994C177.915 28.6994 176.304 26.3358 176.304 23.3962C176.304 20.4964 178.065 18.1328 181.736 18.1328C185.15 18.1328 186.911 20.3772 186.911 23.2175C186.911 23.4757 186.911 23.714 186.868 23.9722H178.408ZM184.849 22.5223C184.742 20.5162 183.669 19.6026 181.758 19.6026C179.911 19.6026 178.687 20.3176 178.43 22.5223H184.849ZM191.275 16.9609V15.1733H188.57V16.9609H191.275ZM190.996 28.3816V18.4506H188.849V28.3816H190.996ZM198.197 18.1924C200.086 18.1924 201.353 18.8677 202.061 20.0395V18.4506H204.208V28.3419C204.208 31.0431 202.705 32.5725 198.691 32.5725C195.427 32.5725 193.538 31.3013 193.344 28.9179H195.491C195.62 30.2487 196.565 31.0431 198.712 31.0431C201.052 31.0431 202.061 30.3281 202.061 28.2823V26.3755C201.353 27.5474 200.086 28.1234 198.197 28.1234C194.74 28.1234 193.13 26.0776 193.13 23.1579C193.13 20.2382 194.74 18.1924 198.197 18.1924ZM195.298 23.1579C195.298 25.6804 196.329 26.594 198.712 26.594C200.966 26.594 202.061 25.6009 202.061 23.1579C202.061 20.7149 200.966 19.7218 198.712 19.7218C196.329 19.7218 195.298 20.6354 195.298 23.1579ZM225.527 26.7927V28.3816H223.402C220.804 28.3816 220.16 27.4481 220.16 25.4619V19.98H218.12V18.9471L220.353 18.2321L221.233 16.2062H222.307V18.4506H225.742V19.98H222.307V26.7927H225.527ZM129.303 15.3815C136.855 15.7774 142.904 21.373 143.331 28.3595H138.706C138.294 23.7315 134.305 20.0413 129.303 19.6601V15.3815ZM122.922 15.3811H127.588V28.3816H122.922V15.3811ZM90.7164 13.7948C91.1444 6.80825 97.193 1.2126 104.745 0.816731V5.09529C99.7425 5.47661 95.7536 9.16671 95.3415 13.7948H90.7164ZM104.745 24.0808C99.7425 23.6995 95.7536 20.0094 95.3415 15.3813H90.7164C91.1444 22.3678 97.193 27.9635 104.745 28.3593V24.0808ZM106.444 24.0814C108.94 23.891 111.184 22.8768 112.857 21.3333L116.12 24.3516C113.611 26.6681 110.215 28.1623 106.444 28.3599V24.0814ZM116.127 4.83145L112.864 7.84969C111.19 6.30258 108.944 5.28584 106.444 5.09529V0.816731C110.218 1.01458 113.617 2.51134 116.127 4.83145ZM55.4628 13.7965C55.8907 6.80986 61.9393 1.21422 69.4916 0.818347V5.09692C64.4888 5.47822 60.4999 9.16833 60.0878 13.7965H55.4628ZM71.2054 0.818347C78.7575 1.21422 84.8063 6.80986 85.2341 13.7965H80.6092C80.197 9.16833 76.2082 5.47822 71.2054 5.09692V0.818347ZM60.0878 15.3818C60.4999 20.01 64.4888 23.7 69.4916 24.0814V28.3599C61.9393 27.9641 55.8907 22.3684 55.4628 15.3818H60.0878ZM71.2054 24.0814C76.2082 23.7 80.197 20.01 80.6092 15.3818H85.2341C84.8063 22.3684 78.7575 27.9641 71.2054 28.3599V24.0814ZM44.3142 28.3593C36.762 27.9635 30.7134 22.3678 30.2854 15.3813H34.9103C35.3225 20.0094 39.3115 23.6995 44.3142 24.0808V28.3593ZM30.2855 0.79541H34.9523V13.7959H30.2855V0.79541ZM53.0524 28.3698V24.0526H46.0259V28.3698H53.0524ZM0.492188 13.783C0.920111 6.79639 6.96881 1.20075 14.521 0.804877V5.08344C9.51821 5.46475 5.52935 9.15486 5.11716 13.783H0.492188ZM5.15895 28.3699H0.492188V15.3694H5.15895V28.3699ZM6.75432 15.4162V19.7335H19.5769V15.4162H6.75432ZM23.259 0.795555V5.11278H16.2326V0.795556L23.259 0.795555Z" fill="white"/>
</g>
<defs>
<clipPath id="clip0_1833_958">
<rect width="225.437" height="32" fill="white" transform="translate(0.492188 0.79541)"/>
</clipPath>
</defs>
</svg>
