<svg width="300" height="61" viewBox="0 0 300 61" fill="none" xmlns="http://www.w3.org/2000/svg">
<path d="M17.1384 48.171C13.7923 48.171 10.8339 47.4365 8.26314 45.9675C5.69238 44.4985 3.6725 42.4786 2.2035 39.9079C0.734501 37.3371 0 34.3991 0 31.0939C0 27.7478 0.754904 24.7894 2.26471 22.2187C3.77452 19.6479 5.8148 17.628 8.38555 16.159C10.9971 14.69 13.9147 13.9555 17.1384 13.9555C20.4844 13.9555 23.4224 14.69 25.9524 16.159C28.5231 17.628 30.543 19.6479 32.012 22.2187C33.481 24.7894 34.2155 27.7478 34.2155 31.0939V43.0907C34.2155 46.396 33.481 49.3748 32.012 52.0272C30.543 54.6795 28.5435 56.7606 26.0136 58.2704C23.4836 59.821 20.6068 60.5963 17.3832 60.5963C13.9963 60.5963 11.0991 59.9638 8.69159 58.6989C6.32487 57.4339 4.3662 55.8221 2.81559 53.8634C2.48914 53.4553 2.32592 53.0269 2.32592 52.578C2.32592 52.1292 2.52995 51.7619 2.938 51.4763C3.34606 51.1498 3.81532 51.0274 4.3458 51.109C4.91708 51.1906 5.34553 51.4559 5.63117 51.9047C6.89615 53.4145 8.50797 54.6591 10.4666 55.6385C12.4253 56.6586 14.7308 57.1687 17.3832 57.1687C19.9131 57.1687 22.1574 56.5566 24.1161 55.3324C26.1156 54.1082 27.6866 52.4148 28.8292 50.2521C29.9717 48.1302 30.543 45.7431 30.543 43.0907V40.3976C29.3596 42.7643 27.605 44.6617 25.2791 46.0899C22.9532 47.4773 20.2396 48.171 17.1384 48.171ZM17.1384 44.7434C19.7499 44.7434 22.0554 44.1721 24.0549 43.0295C26.0952 41.8462 27.6866 40.2343 28.8292 38.1941C29.9717 36.113 30.543 33.7462 30.543 31.0939C30.543 28.4007 29.9717 26.034 28.8292 23.9937C27.6866 21.9126 26.0952 20.3008 24.0549 19.1582C22.0554 17.9749 19.7499 17.3832 17.1384 17.3832C14.5268 17.3832 12.2009 17.9749 10.1606 19.1582C8.12032 20.3008 6.5289 21.9126 5.38634 23.9937C4.24378 26.034 3.6725 28.4007 3.6725 31.0939C3.6725 33.7462 4.24378 36.113 5.38634 38.1941C6.5289 40.2343 8.12032 41.8462 10.1606 43.0295C12.2009 44.1721 14.5268 44.7434 17.1384 44.7434Z" fill="white"/>
<path d="M46.4395 47.8038C45.909 47.8038 45.4602 47.6405 45.0929 47.3141C44.7665 46.9469 44.6032 46.498 44.6032 45.9675V16.159C44.6032 15.5877 44.7665 15.1389 45.0929 14.8124C45.4602 14.486 45.909 14.3228 46.4395 14.3228C47.0108 14.3228 47.4596 14.486 47.7861 14.8124C48.1125 15.1389 48.2757 15.5877 48.2757 16.159V45.9675C48.2757 46.498 48.1125 46.9469 47.7861 47.3141C47.4596 47.6405 47.0108 47.8038 46.4395 47.8038ZM46.3783 7.2838C45.603 7.2838 44.9297 7.01856 44.3584 6.48809C43.8279 5.91681 43.5627 5.22312 43.5627 4.407C43.5627 3.46847 43.8483 2.77478 44.4196 2.32592C45.0317 1.83625 45.705 1.59142 46.4395 1.59142C47.1332 1.59142 47.7657 1.83625 48.337 2.32592C48.949 2.77478 49.2551 3.46847 49.2551 4.407C49.2551 5.22312 48.9694 5.91681 48.3982 6.48809C47.8677 7.01856 47.1944 7.2838 46.3783 7.2838Z" fill="white"/>
<path d="M65.1248 47.8038C64.5943 47.8038 64.1455 47.6405 63.7782 47.3141C63.4518 46.9469 63.2885 46.498 63.2885 45.9675V18.8522H58.5143C58.0246 18.8522 57.6166 18.7094 57.2901 18.4237C57.0045 18.0973 56.8617 17.6892 56.8617 17.1996C56.8617 16.7099 57.0045 16.3222 57.2901 16.0366C57.6166 15.7102 58.0246 15.5469 58.5143 15.5469H63.2885V14.2616C63.2885 11.4868 63.717 9.03844 64.5739 6.91655C65.4308 4.75385 66.757 3.06042 68.5525 1.83625C70.3887 0.612084 72.7146 0 75.5302 0C76.1015 0 76.5504 0.163222 76.8768 0.489665C77.2033 0.775305 77.3665 1.16296 77.3665 1.65263C77.3665 2.14229 77.2033 2.55035 76.8768 2.8768C76.5504 3.16243 76.1015 3.30525 75.5302 3.30525C73.4491 3.30525 71.7761 3.79492 70.5111 4.77426C69.287 5.71279 68.3892 7.01857 67.818 8.69159C67.2875 10.3238 67.0223 12.1805 67.0223 14.2616V15.5469H75.1018C75.5914 15.5469 75.9791 15.7102 76.2647 16.0366C76.5912 16.3222 76.7544 16.7099 76.7544 17.1996C76.7544 17.6892 76.5912 18.0973 76.2647 18.4237C75.9791 18.7094 75.5914 18.8522 75.1018 18.8522H67.0223V45.9675C67.0223 46.498 66.8386 46.9469 66.4714 47.3141C66.1449 47.6405 65.6961 47.8038 65.1248 47.8038Z" fill="white"/>
<path d="M96.6003 47.8038C94.356 47.763 92.3565 47.2529 90.6018 46.2736C88.8472 45.2534 87.4802 43.866 86.5009 42.1114C85.5215 40.3159 85.0319 38.2961 85.0319 36.0518V18.8522H80.2576C79.7679 18.8522 79.3599 18.7094 79.0334 18.4237C78.7478 18.0973 78.605 17.6892 78.605 17.1996C78.605 16.7099 78.7478 16.3222 79.0334 16.0366C79.3599 15.7102 79.7679 15.5469 80.2576 15.5469H85.0319V5.56996C85.0319 4.99868 85.1951 4.54982 85.5215 4.22338C85.8888 3.85613 86.3377 3.67251 86.8681 3.67251C87.4394 3.67251 87.8883 3.85613 88.2147 4.22338C88.582 4.54982 88.7656 4.99868 88.7656 5.56996V15.5469H96.8451C97.3348 15.5469 97.7224 15.7102 98.0081 16.0366C98.3345 16.3222 98.4977 16.7099 98.4977 17.1996C98.4977 17.6892 98.3345 18.0973 98.0081 18.4237C97.7224 18.7094 97.3348 18.8522 96.8451 18.8522H88.7656V36.0518C88.7656 38.4185 89.5001 40.3567 90.9691 41.8666C92.4381 43.3356 94.3355 44.0701 96.6615 44.0701H98.0081C98.5793 44.0701 99.0282 44.2537 99.3546 44.6209C99.7219 44.9474 99.9055 45.3962 99.9055 45.9675C99.9055 46.498 99.7219 46.9469 99.3546 47.3141C99.0282 47.6405 98.5793 47.8038 98.0081 47.8038H96.6003Z" fill="white"/>
<path d="M124.408 48.0486C121.226 48.0486 118.369 47.3141 115.839 45.8451C113.309 44.3353 111.31 42.295 109.841 39.7243C108.372 37.1535 107.617 34.2563 107.576 31.0327V3.12163C107.576 2.1831 107.862 1.4282 108.433 0.856918C109.045 0.285639 109.8 0 110.698 0C111.636 0 112.391 0.285639 112.962 0.856918C113.534 1.4282 113.819 2.1831 113.819 3.12163V19.6479C115.248 17.9341 116.961 16.5875 118.961 15.6081C121.001 14.588 123.225 14.0779 125.633 14.0779C128.611 14.0779 131.284 14.8328 133.651 16.3426C136.018 17.8116 137.874 19.8315 139.221 22.4023C140.608 24.9322 141.302 27.809 141.302 31.0327C141.302 34.2563 140.547 37.1535 139.037 39.7243C137.568 42.295 135.569 44.3353 133.039 45.8451C130.509 47.3141 127.632 48.0486 124.408 48.0486ZM124.408 42.5398C126.49 42.5398 128.346 42.0502 129.978 41.0708C131.611 40.0507 132.896 38.6633 133.835 36.9087C134.814 35.154 135.304 33.1954 135.304 31.0327C135.304 28.8292 134.814 26.8705 133.835 25.1567C132.896 23.4428 131.611 22.0962 129.978 21.1169C128.346 20.0968 126.49 19.5867 124.408 19.5867C122.368 19.5867 120.512 20.0968 118.839 21.1169C117.206 22.0962 115.921 23.4428 114.982 25.1567C114.044 26.8705 113.575 28.8292 113.575 31.0327C113.575 33.1954 114.044 35.154 114.982 36.9087C115.921 38.6633 117.206 40.0507 118.839 41.0708C120.512 42.0502 122.368 42.5398 124.408 42.5398Z" fill="white"/>
<path d="M166.344 48.0486C162.957 48.0486 159.937 47.3345 157.285 45.9063C154.673 44.4373 152.613 42.4378 151.103 39.9079C149.634 37.3371 148.899 34.3991 148.899 31.0939C148.899 27.7478 149.593 24.8098 150.981 22.2799C152.409 19.7091 154.367 17.7096 156.857 16.2814C159.346 14.8124 162.202 14.0779 165.426 14.0779C168.609 14.0779 171.343 14.792 173.628 16.2202C175.913 17.6076 177.647 19.5459 178.83 22.035C180.055 24.4834 180.667 27.3194 180.667 30.543C180.667 31.3183 180.401 31.9712 179.871 32.5017C179.34 32.9913 178.667 33.2362 177.851 33.2362H154.592C155.041 36.0518 156.326 38.3573 158.448 40.1527C160.611 41.9074 163.243 42.7847 166.344 42.7847C167.609 42.7847 168.894 42.5603 170.2 42.1114C171.547 41.6217 172.628 41.0708 173.444 40.4588C174.056 40.0099 174.709 39.7855 175.403 39.7855C176.137 39.7447 176.77 39.9487 177.3 40.3976C177.994 41.0096 178.361 41.6829 178.402 42.4174C178.443 43.1519 178.116 43.7844 177.423 44.3149C176.035 45.4166 174.301 46.3144 172.22 47.0081C170.18 47.7018 168.221 48.0486 166.344 48.0486ZM165.426 19.3419C162.406 19.3419 159.978 20.1784 158.142 21.8514C156.306 23.5244 155.143 25.6871 154.653 28.3395H175.035C174.668 25.7279 173.668 23.5856 172.036 21.9126C170.404 20.1988 168.201 19.3419 165.426 19.3419Z" fill="white"/>
<path d="M200.81 47.8038C198.77 47.8038 196.933 47.2937 195.301 46.2736C193.669 45.2126 192.384 43.7844 191.445 41.989C190.507 40.1935 190.037 38.1736 190.037 35.9293V20.8109H187.222C186.365 20.8109 185.671 20.566 185.141 20.0764C184.61 19.5867 184.345 18.9746 184.345 18.2401C184.345 17.424 184.61 16.7711 185.141 16.2814C185.671 15.7918 186.365 15.5469 187.222 15.5469H190.037V6.73293C190.037 5.8352 190.323 5.1007 190.894 4.52942C191.465 3.95814 192.2 3.67251 193.098 3.67251C193.995 3.67251 194.73 3.95814 195.301 4.52942C195.872 5.1007 196.158 5.8352 196.158 6.73293V15.5469H201.361C202.218 15.5469 202.911 15.7918 203.442 16.2814C203.972 16.7711 204.238 17.424 204.238 18.2401C204.238 18.9746 203.972 19.5867 203.442 20.0764C202.911 20.566 202.218 20.8109 201.361 20.8109H196.158V35.9293C196.158 37.5616 196.607 38.9286 197.505 40.0303C198.402 41.1321 199.504 41.6829 200.81 41.6829H202.891C203.626 41.6829 204.238 41.9686 204.727 42.5398C205.258 43.1111 205.523 43.8456 205.523 44.7434C205.523 45.6411 205.176 46.3756 204.482 46.9469C203.83 47.5181 202.973 47.8038 201.912 47.8038H200.81Z" fill="white"/>
<path d="M225.377 47.8038C223.337 47.8038 221.5 47.2937 219.868 46.2736C218.236 45.2126 216.951 43.7844 216.012 41.989C215.074 40.1935 214.604 38.1736 214.604 35.9293V20.8109H211.789C210.932 20.8109 210.238 20.566 209.708 20.0764C209.177 19.5867 208.912 18.9746 208.912 18.2401C208.912 17.424 209.177 16.7711 209.708 16.2814C210.238 15.7918 210.932 15.5469 211.789 15.5469H214.604V6.73293C214.604 5.8352 214.89 5.1007 215.461 4.52942C216.033 3.95814 216.767 3.67251 217.665 3.67251C218.562 3.67251 219.297 3.95814 219.868 4.52942C220.44 5.1007 220.725 5.8352 220.725 6.73293V15.5469H225.928C226.785 15.5469 227.478 15.7918 228.009 16.2814C228.539 16.7711 228.805 17.424 228.805 18.2401C228.805 18.9746 228.539 19.5867 228.009 20.0764C227.478 20.566 226.785 20.8109 225.928 20.8109H220.725V35.9293C220.725 37.5616 221.174 38.9286 222.072 40.0303C222.969 41.1321 224.071 41.6829 225.377 41.6829H227.458C228.193 41.6829 228.805 41.9686 229.294 42.5398C229.825 43.1111 230.09 43.8456 230.09 44.7434C230.09 45.6411 229.743 46.3756 229.05 46.9469C228.397 47.5181 227.54 47.8038 226.479 47.8038H225.377Z" fill="white"/>
<path d="M253.494 48.0486C250.107 48.0486 247.088 47.3345 244.435 45.9063C241.824 44.4373 239.763 42.4378 238.253 39.9079C236.784 37.3371 236.05 34.3991 236.05 31.0939C236.05 27.7478 236.743 24.8098 238.131 22.2799C239.559 19.7091 241.518 17.7096 244.007 16.2814C246.496 14.8124 249.352 14.0779 252.576 14.0779C255.759 14.0779 258.493 14.792 260.778 16.2202C263.063 17.6076 264.797 19.5459 265.981 22.035C267.205 24.4834 267.817 27.3194 267.817 30.543C267.817 31.3183 267.552 31.9712 267.021 32.5017C266.491 32.9913 265.817 33.2362 265.001 33.2362H241.742C242.191 36.0518 243.476 38.3573 245.598 40.1527C247.761 41.9074 250.393 42.7847 253.494 42.7847C254.759 42.7847 256.044 42.5603 257.35 42.1114C258.697 41.6217 259.778 41.0708 260.594 40.4588C261.206 40.0099 261.859 39.7855 262.553 39.7855C263.287 39.7447 263.92 39.9487 264.45 40.3976C265.144 41.0096 265.511 41.6829 265.552 42.4174C265.593 43.1519 265.267 43.7844 264.573 44.3149C263.185 45.4166 261.451 46.3144 259.37 47.0081C257.33 47.7018 255.371 48.0486 253.494 48.0486ZM252.576 19.3419C249.556 19.3419 247.128 20.1784 245.292 21.8514C243.456 23.5244 242.293 25.6871 241.803 28.3395H262.186C261.818 25.7279 260.819 23.5856 259.187 21.9126C257.554 20.1988 255.351 19.3419 252.576 19.3419Z" fill="white"/>
<path d="M278.84 47.8038C276.8 47.8038 275.78 46.7836 275.78 44.7434V17.3832C275.78 15.3429 276.8 14.3228 278.84 14.3228C280.88 14.3228 281.901 15.3429 281.901 17.3832V18.5462C283.125 17.118 284.614 15.9958 286.369 15.1797C288.164 14.3636 290.103 13.9555 292.184 13.9555C294.632 13.9555 296.448 14.3636 297.631 15.1797C298.855 15.955 299.325 16.8935 299.039 17.9953C298.835 18.8522 298.427 19.4235 297.815 19.7091C297.203 19.9539 296.489 19.9947 295.672 19.8315C293.061 19.3011 290.715 19.2602 288.634 19.7091C286.552 20.158 284.9 20.9945 283.676 22.2187C282.492 23.4428 281.901 24.9934 281.901 26.8705V44.7434C281.901 46.7836 280.88 47.8038 278.84 47.8038Z" fill="white"/>
</svg>
