<svg width="229" height="33" viewBox="0 0 229 33" fill="none" xmlns="http://www.w3.org/2000/svg">
<g clip-path="url(#clip0_1801_892)">
<mask id="mask0_1801_892" style="mask-type:luminance" maskUnits="userSpaceOnUse" x="0" y="0" width="229" height="33">
<path d="M228.631 0.79541H0.216797V32.7954H228.631V0.79541Z" fill="white"/>
</mask>
<g mask="url(#mask0_1801_892)">
<path d="M0.216797 24.7971L14.5883 16.7954L28.9597 24.7971L14.5883 32.7954L0.216797 24.7971Z" fill="white"/>
<path d="M7.40092 4.79639L0.216797 8.79399L7.40415 12.7948L14.5883 8.79399L7.40092 4.79639Z" fill="white"/>
<path d="M14.5852 0.79541L7.4043 4.79302L14.5884 8.79381L21.7726 4.7962L14.5852 0.79541Z" fill="white"/>
<path d="M21.772 4.79639L14.5879 8.79399L21.772 12.7948L28.9561 8.79399L21.772 4.79639Z" fill="white"/>
<path d="M43.4277 28.561V4.76416H47.416V28.561H43.4277Z" fill="white"/>
<path d="M54.4316 28.561V4.76416H58.4199L63.4757 19.4754V4.76416H67.1211V28.561H63.3366L58.0771 13.092V28.561H54.4316Z" fill="white"/>
<path d="M102.335 8.23087H98.3111V28.561H94.3228V8.23087H90.2988V4.76416H102.335V8.23087Z" fill="white"/>
<path d="M116.879 28.561L113.816 19.0756H111.811V28.561H107.836V4.76416H114.076C117.721 4.76416 120.128 6.1905 120.128 9.79474V14.045C120.128 16.322 119.157 17.7515 117.514 18.4647L120.952 28.561H116.879ZM111.811 15.676H113.907C115.201 15.676 116.11 15.1995 116.11 13.5013V10.4056C116.11 8.7074 115.214 8.23087 113.907 8.23087H111.811V15.676Z" fill="white"/>
<path d="M138.713 23.8023C138.713 27.4737 136.375 28.8329 132.729 28.8329H132.593C128.948 28.8329 126.609 27.5089 126.609 23.8023V4.76416H130.597V23.1819C130.597 24.88 131.354 25.3566 132.662 25.3566C133.968 25.3566 134.725 24.88 134.725 23.1819V4.76416H138.713V23.8023Z" fill="white"/>
<path d="M157.558 23.8022C157.558 27.4736 155.151 28.8328 151.506 28.8328H151.438C147.793 28.8328 145.387 27.5088 145.387 23.8022V9.52278C145.387 5.98569 147.793 4.49219 151.438 4.49219H151.506C155.151 4.49219 157.558 5.98569 157.558 9.52278V12.2763H153.57V10.1336C153.57 8.4674 152.745 7.95891 151.47 7.95891C150.197 7.95891 149.375 8.4674 149.375 10.1336V23.1818C149.375 24.8448 150.199 25.3565 151.47 25.3565C152.742 25.3565 153.57 24.8448 153.57 23.1818V20.4699H157.558V23.8022Z" fill="white"/>
<path d="M174.683 8.23087H170.659V28.561H166.671V8.23087H162.646V4.76416H174.683V8.23087Z" fill="white"/>
<path d="M192.221 23.8023C192.221 27.4737 189.883 28.8329 186.237 28.8329H186.098C182.456 28.8329 180.117 27.5089 180.117 23.8023V4.76416H184.106V23.1819C184.106 24.88 184.863 25.3566 186.17 25.3566C187.476 25.3566 188.233 24.88 188.233 23.1819V4.76416H192.221V23.8023Z" fill="white"/>
<path d="M208.075 28.561L205.012 19.0756H203.029V28.561H199.031V4.76416H205.255C208.899 4.76416 211.306 6.1905 211.306 9.79474V14.045C211.306 16.322 210.336 17.7515 208.693 18.4647L212.131 28.561H208.075ZM203.029 15.676H205.126C206.419 15.676 207.328 15.1995 207.328 13.5013V10.4056C207.328 8.7074 206.432 8.23087 205.126 8.23087H203.029V15.676Z" fill="white"/>
<path d="M81.4922 11.6687V9.93212C81.4922 8.43543 80.6351 7.89175 79.4642 7.89175C78.2932 7.89175 77.4361 8.43543 77.4361 9.93212V11.5632C77.4361 12.788 77.8469 13.3316 78.9822 13.9777L81.8027 15.5415C84.1059 16.8208 85.4839 17.8858 85.4839 20.4379V23.8694C85.4839 27.5408 83.1775 28.8328 79.5321 28.8328H79.4642C75.8188 28.8328 73.5156 27.576 73.5156 23.8694V21.3109H77.4361V23.3161C77.4361 24.7776 78.2964 25.4237 79.4997 25.4237C80.703 25.4237 81.5634 24.784 81.5634 23.3161V21.4548C81.5634 20.2332 81.185 19.6191 79.9817 18.9731L77.1999 17.4252C74.8613 16.1012 73.5189 15.0139 73.5189 12.529V9.38525C73.5189 5.86736 76.1325 4.49219 79.4351 4.49219H79.5029C82.8022 4.49219 85.4159 5.85137 85.4159 9.38525V11.6687H81.4922Z" fill="white"/>
<path d="M217.977 28.5482V4.76416H228.528V8.22769H221.964V14.7517H227.461V18.2185H221.964V25.0815H228.631V28.5482H217.977Z" fill="white"/>
</g>
</g>
<defs>
<clipPath id="clip0_1801_892">
<rect width="228.414" height="32" fill="white" transform="translate(0.216797 0.79541)"/>
</clipPath>
</defs>
</svg>
