<svg xmlns="http://www.w3.org/2000/svg" width="673" height="96" viewBox="0 0 673 96">
  <g fill="none" fill-rule="evenodd">
    <path fill="#00ACC1" d="M28.4634994,5.78640333 C58.7174811,-9.41519931 124.598404,10.1420966 126.100006,10.1420966 C125.890747,27.7519161 126.100006,42.6084676 124.904832,56.3134927 C123.009446,62.9971492 112.859119,62.6043625 106.644985,64.8081473 C99.4773188,70.4445028 91.1462505,85 58.7174811,85 C26.2887117,85 -1.42108547e-14,77.7477699 -1.42108547e-14,68.8016907 C-1.42108547e-14,63.7758432 26.0740816,56.4205951 26.3728753,54.7144921 C27.7452213,46.8784373 27.3785943,41.349505 28.4634994,5.78640333 Z M50.1951673,11 C45.1601995,11 40.428477,11.9352232 36,13.8056697 L36,13.8056697 L36,28.5 C36,36.6154545 40.3873016,43.5985432 49.5,44.0971651 C58.6126984,44.5957871 66,37.6126984 66,28.5 L66,28.5 L66,12 C60.4984127,11.3333333 55.2301351,11 50.1951673,11 Z" transform="matrix(-1 0 0 1 126.1 0)"/>
    <path fill="#1F2C3D" d="M12.448964 39.3075822L12.448964 65.8785618-3.26849658e-13 65.8785618-3.26849658e-13 5.04725159 12.448964 5.04725159 12.448964 29.9949238 33.4834203 5.04725159 47.9929025 5.04725159 23.1808295 34.095911 49.3665812 65.8785618 33.5692752 65.8785618 12.448964 39.3075822zM64.5629028 47.4241194C64.6773766 49.3037479 64.9492478 50.8700816 65.3785245 52.1231672 65.8078013 53.3762529 66.5089428 54.4014895 67.4819702 55.1989076 68.4549975 55.9963258 69.7428085 56.5659017 71.3454418 56.9076523 72.948075 57.249403 75.0085726 57.4202757 77.5269963 57.4202757 79.9881831 57.4202757 82.2346978 57.2921211 84.2666078 57.0358082 86.2985178 56.7794952 88.2016163 56.5089467 89.9759602 56.2241544L88.3447167 64.9387523C86.6848465 65.5083367 84.4526408 65.9782368 81.6480326 66.3484666 78.8434244 66.7186965 76.0960943 66.9038086 73.4059599 66.9038086 69.4566137 66.9038086 66.1083051 66.4339085 63.3609338 65.4940943 60.6135625 64.55428 58.3813568 63.1588192 56.6642498 61.3076698 54.9471427 59.4565205 53.7022588 57.1924565 52.9295606 54.5154098 52.1568624 51.8383631 51.7705191 48.7626534 51.7705191 45.2881886L51.7705191 42.5541971C51.7705191 39.5353997 52.1139354 36.673281 52.8007782 33.9677551 53.487621 31.2622292 54.6323419 28.8984894 56.2349751 26.8764647 57.8376084 24.8544401 59.969651 23.2596277 62.631167 22.0919797 65.2926829 20.9243316 68.6266825 20.3405164 72.6332656 20.3405164 76.4109012 20.3405164 79.5302655 20.8531347 81.9914523 21.8783866 84.4526391 22.9036385 86.4272826 24.28486 87.9154421 26.0220924 89.4036015 27.7593248 90.4481593 29.738601 91.0491468 31.9599801 91.6501343 34.1813593 91.9506235 36.4881416 91.9506235 38.8803961L91.9506235 42.2978854C91.9506235 44.4623061 91.5785892 45.857767 90.8345095 46.4843098 90.0904297 47.1108527 88.6595287 47.4241194 86.5417633 47.4241194L64.5629028 47.4241194zM72.4615558 29.3968631C69.7141845 29.3968631 67.7109229 30.1942693 66.4517111 31.7891057 65.1924992 33.383942 64.5056667 35.9470334 64.3911929 39.4784567L79.8450792 39.4784567 79.8450792 37.9405865C79.8450792 35.0926645 79.2727188 32.956755 78.1279807 31.532794 76.9832427 30.108833 75.0944533 29.3968631 72.4615558 29.3968631zM130.842904 41.9561365C130.842904 37.7981703 130.256235 34.807897 129.082878 32.9852269 127.909522 31.1625568 125.806097 30.2512355 122.772541 30.2512355 119.967933 30.2512355 117.893126 31.0486417 116.548059 32.643478 115.202992 34.2383143 114.530468 36.8298845 114.530468 40.4182663L114.530468 55.1989076C115.846917 55.8254505 117.077492 56.2953506 118.22223 56.608622 119.366968 56.9218934 120.597543 57.0785268 121.913992 57.0785268 125.004785 57.0785268 127.265608 56.1956842 128.696531 54.4299725 130.127453 52.6642609 130.842904 49.7879028 130.842904 45.800812L130.842904 41.9561365zM143.721143 44.9464396C143.721143 52.1232031 142.132842 57.5484132 138.956194 61.2222326 135.779546 64.896052 131.329444 66.7329342 125.605754 66.7329342 121.42746 66.7329342 117.735735 65.7076976 114.530468 63.6571938L101.82394 85.7 101.82394 21.3657632 112.899225 21.3657632 113.586064 25.8084993C115.074224 24.0427877 116.891468 22.690045 119.037852 21.7502307 121.184236 20.8104165 123.745549 20.3405164 126.721868 20.3405164 132.388321 20.3405164 136.638097 22.0919622 139.471324 25.5949062 142.304551 29.0978503 143.721143 34.6369756 143.721143 42.2124482L143.721143 44.9464396zM160.376998 16.0686547C157.686863 16.0686547 155.769456 15.4706001 154.624718 14.2744728 153.47998 13.0783456 152.907619 11.4835331 152.907619 9.48998773 152.907619 7.49644232 153.47998 5.90162991 154.624718 4.70550266 155.769456 3.50937541 157.686863 2.91132075 160.376998 2.91132075 163.067132 2.91132075 164.98454 3.50937541 166.129278 4.70550266 167.274016 5.90162991 167.846376 7.49644232 167.846376 9.48998773 167.846376 11.4835331 167.274016 13.0783456 166.129278 14.2744728 164.98454 15.4706001 163.067132 16.0686547 160.376998 16.0686547zM154.023733 21.3657632L166.730262 21.3657632 166.730262 65.8785618 154.023733 65.8785618 154.023733 21.3657632zM213.741657 66.8174387C208.213798 66.8174387 203.668738 66.1784805 200.10634 64.900545 196.543942 63.6226094 193.749345 61.7361614 191.722463 59.2411444 189.695582 56.7461274 188.282928 53.6426162 187.484459 49.9305177 186.685991 46.2184192 186.286763 41.9282714 186.286763 37.0599455L186.286763 30.3964578C186.286763 25.64984 186.716701 21.3901188 187.57659 17.6171662 188.436479 13.8442137 189.941262 10.664636 192.090985 8.07833787 194.240708 5.49203975 197.11208 3.49909873 200.705189 2.09945504 204.298297.699811349 208.828002 6.39488462e-14 214.29444 6.39488462e-14 217.058369 6.39488462e-14 219.622643.212986063 221.987338.638964578 224.352033 1.06494309 226.33282 1.55176838 227.929757 2.09945504L226.271407 9.21934605C224.858732 8.85422161 223.154335 8.50431593 221.158164 8.16961853 219.161992 7.83492112 217.150496 7.66757493 215.123615 7.66757493 211.499796 7.66757493 208.45952 8.00226732 206.002693 8.67166213 203.545867 9.34105693 201.549726 10.5429069 200.01421 12.277248 198.478693 14.0115891 197.373138 16.369649 196.697511 19.3514986 196.021884 22.3333482 195.684075 26.1062442 195.684075 30.6702997L195.684075 36.6948229C195.684075 41.1980243 196.006529 44.8948538 196.651446 47.7854223 197.296363 50.6759908 198.371208 52.9579844 199.876014 54.6314714 201.38082 56.3049584 203.392316 57.4763818 205.910563 58.1457766 208.42881 58.8151714 211.561216 59.1498638 215.307876 59.1498638 217.089075 59.1498638 219.131281 59.0281574 221.434555 58.7847411 223.73783 58.5413249 225.780036 58.2674856 227.561235 57.9632153L226.087146 65.2656676C224.183106 65.7525002 222.1409 66.1328324 219.960467 66.4066757 217.780034 66.6805191 215.707118 66.8174387 213.741657 66.8174387zM265.979661 26.4713896C265.181192 26.2888274 264.275251 26.1214812 263.261811 25.969346 262.24837 25.8172109 261.250299 25.7411444 260.267569 25.7411444 258.48637 25.7411444 256.843392 25.9693438 255.338586 26.4257493 253.83378 26.8821549 252.528611 27.6580327 251.423039 28.753406 250.317467 29.8487793 249.457591 31.3396818 248.843384 33.226158 248.229178 35.1126343 247.922079 37.455481 247.922079 40.2547684L247.922079 65.9046322 238.985419 65.9046322 238.985419 18.8038147 246.724383 18.8038147 247.461427 25.1021798C248.996943 22.789725 250.91631 21.05541 253.219584 19.8991826 255.522859 18.7429552 258.332811 18.1648501 261.649526 18.1648501 263.983511 18.1648501 265.979653 18.4691159 267.63801 19.0776567L265.979661 26.4713896zM281.273327 45.1839237C281.334747 47.922357 281.626491 50.2195638 282.148567 52.0756131 282.670642 53.9316623 283.545873 55.4529913 284.774287 56.6396458 286.0027 57.8263002 287.661032 58.6782445 289.749335 59.1955041 291.837637 59.7127637 294.509395 59.9713896 297.76469 59.9713896 300.344357 59.9713896 302.693662 59.8192567 304.812674 59.5149864 306.931687 59.210716 308.697504 58.9064502 310.110179 58.6021798L308.912482 65.1743869C307.376966 65.7220736 305.319405 66.163259 302.739738 66.4979564 300.16007 66.8326538 297.641861 67 295.185035 67 290.885589 67 287.27718 66.4979614 284.359699 65.4938692 281.442218 64.489777 279.108268 63.0293011 277.35778 61.1123978 275.607291 59.1954945 274.348187 56.8222212 273.580429 53.9925068 272.81267 51.1627924 272.428797 47.9223616 272.428797 44.2711172L272.428797 40.5286104C272.428797 37.1207822 272.828025 34.017271 273.626494 31.2179837 274.424962 28.4186963 275.668712 26.0149964 277.35778 24.006812 279.046848 21.9986276 281.227248 20.446872 283.899047 19.3514986 286.570845 18.2561253 289.749316 17.7084469 293.434555 17.7084469 296.996953 17.7084469 299.991165 18.2256987 302.417281 19.260218 304.843397 20.2947372 306.808828 21.6791466 308.313634 23.4134877 309.81844 25.1478288 310.90864 27.1711964 311.584267 29.4836512 312.259895 31.796106 312.597703 34.2302325 312.597703 36.7861035L312.597703 40.0722071C312.597703 42.2020997 312.275249 43.5865091 311.630333 44.2254768 310.985416 44.8644446 309.680246 45.1839237 307.714786 45.1839237L281.273327 45.1839237zM293.066033 24.4632153C289.01227 24.4632153 286.033413 25.5737854 284.129373 27.7949591 282.225333 30.0161328 281.242617 33.7129623 281.181196 38.8855586L304.121695 38.8855586 304.121695 36.5122616C304.121695 32.6176009 303.292529 29.635796 301.634171 27.5667575 299.975814 25.497719 297.119796 24.4632153 293.066033 24.4632153zM330.286763 51.8474114C330.286763 54.5858448 331.069864 56.6244256 332.636091 57.9632153 334.202317 59.3020049 336.889431 59.9713896 340.697511 59.9713896 342.417289 59.9713896 343.998847 59.8192567 345.442233 59.5149864 346.885618 59.210716 348.129368 58.7086774 349.173519 58.0088556 350.21767 57.3090337 351.046836 56.4114496 351.661043 55.3160763 352.275249 54.220703 352.582348 52.8515069 352.582348 51.2084469L352.582348 50.4782016C352.582348 48.0440387 351.737827 46.172804 350.048759 44.8644414 348.359691 43.5560788 345.641868 42.9019074 341.895208 42.9019074L340.328989 42.9019074C336.828012 42.9019074 334.279093 43.5560788 332.682156 44.8644414 331.085219 46.172804 330.286763 48.2570248 330.286763 51.1171662L330.286763 51.8474114zM321.718624 51.3910082C321.718624 48.5917208 322.148562 46.2640874 323.008452 44.4080381 323.868341 42.5519889 325.096735 41.0458732 326.693672 39.8896458 328.290609 38.7334184 330.194621 37.9119007 332.405764 37.4250681 334.616908 36.9382355 337.073697 36.6948229 339.776206 36.6948229 342.601556 36.6948229 345.089055 36.9838754 347.238778 37.5619891 349.388501 38.1401028 351.169673 39.1593932 352.582348 40.619891L352.582348 36.9686649C352.582348 34.6562101 352.275249 32.7089089 351.661043 31.126703 351.046836 29.5444971 350.15625 28.281794 348.989258 27.3385559 347.822265 26.3953177 346.394257 25.7107197 344.705189 25.2847411 343.016121 24.8587626 341.096754 24.6457766 338.947031 24.6457766 336.797308 24.6457766 334.570843 24.8131228 332.267569 25.1478202 329.964294 25.4825176 327.829959 25.8932764 325.864498 26.380109L327.062194 19.5340599C328.781973 19.0472274 330.824179 18.6212552 333.188874 18.2561308 335.553569 17.8910063 338.056423 17.7084469 340.697511 17.7084469 347.392362 17.7084469 352.474845 19.1993493 355.945112 22.1811989 359.415379 25.1630485 361.150486 29.6053293 361.150486 35.5081744L361.150486 65.9046322 353.503653 65.9046322 352.766609 60.8841962C351.231093 63.0749428 349.219596 64.6114851 346.73206 65.4938692 344.244524 66.3762533 341.465281 66.8174387 338.394248 66.8174387 332.92781 66.8174387 328.781978 65.6612286 325.956628 63.3487738 323.131278 61.036319 321.718624 57.415556 321.718624 52.486376L321.718624 51.3910082zM386.394248 25.7411444L386.394248 50.113079C386.394248 53.6426153 387.069865 56.1528082 388.42112 57.643733 389.772374 59.1346578 392.106324 59.880109 395.423039 59.880109 396.835714 59.880109 398.064109 59.8040425 399.10826 59.6519074 400.152411 59.4997722 401.042997 59.3628526 401.780045 59.2411444L400.674478 65.6307902C399.691748 65.9959146 398.478708 66.2849671 397.035323 66.4979564 395.591938 66.7109457 394.163929 66.8174387 392.751254 66.8174387 390.171587 66.8174387 387.929766 66.5283862 386.025726 65.9502725 384.121686 65.3721588 382.540128 64.4289348 381.281004 63.1205722 380.021881 61.8122096 379.08523 60.0778945 378.471024 57.9175749 377.856817 55.7572553 377.549718 53.0949295 377.549718 49.9305177L377.549718 25.7411444 368.244536 25.7411444 369.350102 18.8038147 377.549718 18.8038147 377.549718 7.02861035 386.394248 5.7506812 386.394248 18.8038147 401.595784 18.8038147 400.398087 25.7411444 386.394248 25.7411444zM415.968145.182561308C419.776225.182561308 421.680237 1.94730297 421.680237 5.47683924 421.680237 9.0063755 419.776225 10.7711172 415.968145 10.7711172 412.160064 10.7711172 410.256052 9.0063755 410.256052 5.47683924 410.256052 1.94730297 412.160064.182561308 415.968145.182561308zM411.54588 18.8038147L420.48254 18.8038147 420.48254 65.9046322 411.54588 65.9046322 411.54588 18.8038147zM429.787722 18.8038147L439.645688 18.8038147 453.188874 57.0504087 466.824191 18.8038147 476.405764 18.8038147 457.703269 65.9046322 448.398087 65.9046322 429.787722 18.8038147zM490.962386 45.1839237C491.023807 47.922357 491.315551 50.2195638 491.837626 52.0756131 492.359702 53.9316623 493.234933 55.4529913 494.463346 56.6396458 495.691759 57.8263002 497.350092 58.6782445 499.438394 59.1955041 501.526696 59.7127637 504.198455 59.9713896 507.453749 59.9713896 510.033417 59.9713896 512.382721 59.8192567 514.501734 59.5149864 516.620746 59.210716 518.386564 58.9064502 519.799239 58.6021798L518.601542 65.1743869C517.066026 65.7220736 515.008465 66.163259 512.428797 66.4979564 509.84913 66.8326538 507.330921 67 504.874095 67 500.574649 67 496.96624 66.4979614 494.048759 65.4938692 491.131278 64.489777 488.797328 63.0293011 487.046839 61.1123978 485.296351 59.1954945 484.037246 56.8222212 483.269488 53.9925068 482.50173 51.1627924 482.117857 47.9223616 482.117857 44.2711172L482.117857 40.5286104C482.117857 37.1207822 482.517085 34.017271 483.315553 31.2179837 484.114022 28.4186963 485.357771 26.0149964 487.046839 24.006812 488.735907 21.9986276 490.916308 20.446872 493.588106 19.3514986 496.259905 18.2561253 499.438376 17.7084469 503.123615 17.7084469 506.686013 17.7084469 509.680225 18.2256987 512.10634 19.260218 514.532456 20.2947372 516.497887 21.6791466 518.002693 23.4134877 519.507499 25.1478288 520.5977 27.1711964 521.273327 29.4836512 521.948954 31.796106 522.286763 34.2302325 522.286763 36.7861035L522.286763 40.0722071C522.286763 42.2020997 521.964309 43.5865091 521.319392 44.2254768 520.674475 44.8644446 519.369306 45.1839237 517.403845 45.1839237L490.962386 45.1839237zM502.755093 24.4632153C498.70133 24.4632153 495.722473 25.5737854 493.818432 27.7949591 491.914392 30.0161328 490.931676 33.7129623 490.870256 38.8855586L513.810755 38.8855586 513.810755 36.5122616C513.810755 32.6176009 512.981588 29.635796 511.323231 27.5667575 509.664873 25.497719 506.808856 24.4632153 502.755093 24.4632153z" transform="translate(150 10)"/>
  </g>
</svg>
