<svg width="660" height="96" viewBox="0 0 660 96" fill="none" xmlns="http://www.w3.org/2000/svg">
<path fill-rule="evenodd" clip-rule="evenodd" d="M97.6366 5.78641C67.3826 -9.4152 1.50165 10.1421 4.64559e-05 10.1421C0.209306 27.7519 4.7648e-05 42.6085 1.19522 56.3135C3.09061 62.9972 13.2409 62.6044 19.4551 64.8082C26.6227 70.4445 34.9538 85 67.3826 85C99.8114 85 126.1 77.7478 126.1 68.8017C126.1 63.7759 100.026 56.4206 99.7272 54.7145C98.3549 46.8785 98.7215 41.3495 97.6366 5.78641ZM75.9049 11C80.9399 11 85.6716 11.9352 90.1001 13.8057V28.5C90.1001 36.6155 85.7128 43.5986 76.6001 44.0972C67.4874 44.5958 60.1001 37.6127 60.1001 28.5V12C65.6017 11.3333 70.8699 11 75.9049 11Z" fill="white"/>
<path fill-rule="evenodd" clip-rule="evenodd" d="M162.448 49.3076V75.8786H150V15.0473H162.448V39.995L183.483 15.0473H197.992L173.18 44.0959L199.366 75.8786H183.569L162.448 49.3076ZM214.562 57.4242C214.677 59.3038 214.949 60.8701 215.378 62.1232C215.807 63.3763 216.508 64.4015 217.482 65.1989C218.455 65.9964 219.742 66.5659 221.345 66.9077C222.948 67.2494 225.008 67.4203 227.527 67.4203C229.988 67.4203 232.234 67.2922 234.266 67.0358C236.298 66.7795 238.201 66.509 239.976 66.2242L234.107 75.9726C233.343 76.1076 232.523 76.2329 231.648 76.3485C228.843 76.7187 226.096 76.9039 223.405 76.9039C219.456 76.9039 216.108 76.434 213.36 75.4941C210.613 74.5543 208.381 73.1589 206.664 71.3077C204.947 69.4566 203.702 67.1925 202.929 64.5155C202.156 61.8384 201.77 58.7627 201.77 55.2882V52.5542C201.77 49.5354 202.113 46.6733 202.8 43.9678C203.487 41.2623 204.632 38.8985 206.235 36.8765C207.837 34.8545 209.969 33.2596 212.631 32.092C215.292 30.9243 218.626 30.3405 222.633 30.3405C226.41 30.3405 229.53 30.8531 231.991 31.8784C234.452 32.9036 236.427 34.2849 237.915 36.0221C239.403 37.7594 240.448 39.7386 241.049 41.96C241.65 44.1814 241.95 46.4882 241.95 48.8804V52.2979C241.95 54.4623 241.578 55.8578 240.834 56.4843C240.09 57.1109 238.659 57.4242 236.541 57.4242H214.562ZM222.461 39.3969C219.714 39.3969 217.71 40.1943 216.451 41.7891C215.192 43.384 214.505 45.9471 214.391 49.4785H229.845V47.9406C229.845 45.0927 229.272 42.9568 228.128 41.5328C226.983 40.1089 225.094 39.3969 222.461 39.3969ZM280.842 51.9562C280.842 47.7982 280.256 44.8079 279.082 42.9853C277.909 41.1626 275.806 40.2513 272.772 40.2513C269.967 40.2513 267.893 41.0487 266.548 42.6435C265.203 44.2384 264.53 46.8299 264.53 50.4183V65.1989C265.846 65.8255 267.077 66.2954 268.222 66.6087C269.367 66.9219 270.597 67.0786 271.914 67.0786C275.004 67.0786 277.265 66.1957 278.696 64.43C280.127 62.6643 280.842 59.7879 280.842 55.8008V51.9562ZM293.721 54.9465C293.721 62.1232 292.132 67.5485 288.956 71.2223C285.779 74.8961 281.329 76.733 275.605 76.733C271.427 76.733 267.735 75.7077 264.53 73.6572L251.823 95.7V31.3658H262.899L263.586 35.8085C265.074 34.0428 266.891 32.6901 269.037 31.7502C271.184 30.8104 273.745 30.3405 276.721 30.3405C282.388 30.3405 286.638 32.092 289.471 35.5949C292.304 39.0979 293.721 44.637 293.721 52.2125V54.9465ZM304.023 31.3658H316.73V75.8786H304.023V31.3658Z" fill="white"/>
<path d="M304.023 12.8893V31.3658L315.109 12.8893L304.023 12.8893Z" fill="white"/>
<path fill-rule="evenodd" clip-rule="evenodd" d="M363.242 77.0326C357.931 77.0326 353.564 76.4187 350.142 75.1909C346.719 73.9631 344.034 72.1506 342.086 69.7534C340.139 67.3562 338.782 64.3743 338.015 60.8077C337.247 57.2412 336.864 53.1192 336.864 48.4417V42.0394C336.864 37.4789 337.277 33.3862 338.103 29.7611C338.929 26.1361 340.375 23.0812 342.44 20.5962C344.506 18.1113 347.265 16.1965 350.717 14.8517C354.169 13.507 358.521 12.8346 363.773 12.8346C366.429 12.8346 368.893 13.0392 371.165 13.4485C373.437 13.8578 375.34 14.3255 376.874 14.8517L373.202 21.212C372.338 21.0318 371.393 20.8558 370.368 20.6839C368.45 20.3624 366.518 20.2016 364.57 20.2016C361.088 20.2016 358.167 20.5232 355.807 21.1663C353.446 21.8095 351.528 22.9642 350.053 24.6306C348.578 26.2969 347.516 28.5625 346.866 31.4275C346.217 34.2924 345.893 37.9174 345.893 42.3026V48.0909C345.893 52.4176 346.202 55.9695 346.822 58.7467C347.442 61.524 348.474 63.7165 349.92 65.3244C351.366 66.9323 353.299 68.0578 355.718 68.7009C358.138 69.3441 361.147 69.6657 364.747 69.6657C366.459 69.6657 368.421 69.5487 370.634 69.3149C372.847 69.081 374.809 68.8179 376.52 68.5255L372.053 76.2047C371.137 76.3712 370.191 76.5157 369.217 76.638C367.122 76.9011 365.131 77.0326 363.242 77.0326ZM410.821 37.7859C409.848 37.6397 408.889 37.5666 407.944 37.5666C406.233 37.5666 404.654 37.7859 403.209 38.2244C401.763 38.6629 400.509 39.4084 399.447 40.4608C398.384 41.5132 397.558 42.9457 396.968 44.7582C396.378 46.5707 396.083 48.8217 396.083 51.5113V76.1556H387.497V30.9013H394.932L395.64 36.9527C397.116 34.7309 398.96 33.0646 401.173 31.9537C403.386 30.8428 406.085 30.2873 409.272 30.2873C411.515 30.2873 413.433 30.5797 415.026 31.1644L411.183 37.8416C411.064 37.8228 410.944 37.8042 410.821 37.7859ZM428.968 62.8687C428.466 61.0854 428.186 58.8783 428.127 56.2472H453.532C455.42 56.2472 456.674 55.9403 457.294 55.3263C457.913 54.7124 458.223 53.3823 458.223 51.3359V48.1786C458.223 45.7229 457.898 43.3842 457.249 41.1624C456.6 38.9406 455.553 36.9966 454.107 35.3302C452.661 33.6639 450.773 32.3337 448.442 31.3398C446.111 30.3458 443.234 29.8488 439.811 29.8488C436.27 29.8488 433.217 30.375 430.649 31.4275C428.082 32.4799 425.987 33.9708 424.365 35.9003C422.742 37.8297 421.547 40.1392 420.78 42.8288C420.012 45.5183 419.629 48.5002 419.629 51.7744V55.3702C419.629 58.8783 419.998 61.9917 420.735 64.7105C421.473 67.4293 422.683 69.7095 424.365 71.5513C426.046 73.393 428.289 74.7962 431.092 75.761C433.895 76.7257 437.362 77.2081 441.493 77.2081C443.854 77.2081 446.273 77.0473 448.752 76.7257C449.838 76.5847 450.828 76.4241 451.722 76.2438L455.833 69.1395C454.476 69.4318 452.779 69.7241 450.743 70.0165C448.707 70.3088 446.45 70.455 443.972 70.455C440.844 70.455 438.277 70.2065 436.27 69.7095C434.264 69.2125 432.671 68.394 431.49 67.2539C430.31 66.1137 429.469 64.652 428.968 62.8687ZM466.986 62.211C466.986 59.5214 467.4 57.285 468.226 55.5017C469.052 53.7185 470.232 52.2714 471.766 51.1605C473.301 50.0496 475.13 49.2603 477.255 48.7925C479.379 48.3248 481.74 48.0909 484.336 48.0909C487.051 48.0909 489.441 48.3686 491.506 48.9241C493.572 49.4795 495.283 50.4589 496.64 51.8621V48.354C496.64 46.1322 496.345 44.2612 495.755 42.7411C495.165 41.2209 494.309 40.0077 493.188 39.1014C492.067 38.1952 490.695 37.5374 489.072 37.1281C487.449 36.7188 485.605 36.5142 483.539 36.5142C481.474 36.5142 479.335 36.675 477.122 36.9966C474.909 37.3181 472.858 37.7128 470.97 38.1806L475.212 30.8671C476.085 30.692 477.017 30.528 478.007 30.375C480.279 30.0242 482.684 29.8488 485.221 29.8488C491.654 29.8488 496.537 31.2813 499.871 34.1462C503.205 37.0112 504.872 41.2793 504.872 46.9508V76.1556H497.525L496.817 71.332C495.342 73.4369 493.409 74.9132 491.019 75.761C488.629 76.6088 485.959 77.0326 483.008 77.0326C477.756 77.0326 473.773 75.9218 471.058 73.7C468.344 71.4782 466.986 67.9993 466.986 63.2634V62.211ZM529.127 60.9831V37.5666H539.889L543.732 30.9013H529.127V18.18H520.629V30.9013H515.501L511.688 37.5666H520.629V60.8077C520.629 63.8481 520.924 66.4061 521.514 68.4817C522.104 70.5573 523.004 72.2236 524.214 73.4807C525.424 74.7378 526.943 75.644 528.773 76.1995C530.602 76.7549 532.756 77.0326 535.234 77.0326C536.592 77.0326 537.964 76.9303 539.351 76.7257L539.462 76.709C539.52 76.7002 539.578 76.6912 539.636 76.6821L539.724 76.6679L543.909 69.7534C543.201 69.8703 542.345 70.0019 541.342 70.148C540.339 70.2942 539.159 70.3673 537.801 70.3673C534.615 70.3673 532.372 69.6511 531.074 68.2186C529.776 66.7861 529.127 64.3743 529.127 60.9831ZM553.292 30.9013H561.879V76.1556H553.292V30.9013ZM580.291 30.9013H570.819L588.7 76.1556H597.64L615.61 30.9013H606.404L593.303 67.6485L580.291 30.9013ZM629.595 56.2472C629.654 58.8783 629.935 61.0854 630.436 62.8687C630.938 64.652 631.779 66.1137 632.959 67.2539C634.139 68.394 635.733 69.2125 637.739 69.7095C639.746 70.2065 642.313 70.455 645.44 70.455C647.919 70.455 650.176 70.3088 652.212 70.0165C654.248 69.7241 655.945 69.4318 657.302 69.1395L653.188 76.2444C652.295 76.4245 651.306 76.5849 650.22 76.7257C647.742 77.0473 645.322 77.2081 642.962 77.2081C638.831 77.2081 635.364 76.7257 632.561 75.761C629.758 74.7962 627.515 73.393 625.833 71.5513C624.152 69.7095 622.942 67.4293 622.204 64.7105C621.467 61.9917 621.098 58.8783 621.098 55.3702V51.7744C621.098 48.5002 621.481 45.5183 622.248 42.8288C623.016 40.1392 624.211 37.8297 625.833 35.9003C627.456 33.9708 629.551 32.4799 632.118 31.4275C634.685 30.375 637.739 29.8488 641.28 29.8488C644.703 29.8488 647.58 30.3458 649.911 31.3398C652.242 32.3337 654.13 33.6639 655.576 35.3302C657.022 36.9966 658.069 38.9406 658.718 41.1624C659.367 43.3842 659.692 45.7229 659.692 48.1786V51.3359C659.692 53.3823 659.382 54.7124 658.762 55.3263C658.143 55.9403 656.889 56.2472 655 56.2472H629.595ZM439.457 36.3388C435.562 36.3388 432.7 37.4058 430.87 39.5399C429.041 41.674 428.097 45.2259 428.038 50.1957H450.079V47.9155C450.079 44.1735 449.282 41.3086 447.689 39.3206C446.096 37.3327 443.352 36.3388 439.457 36.3388ZM640.926 36.3388C637.031 36.3388 634.169 37.4058 632.34 39.5399C630.51 41.674 629.566 45.2259 629.507 50.1957H651.548V47.9155C651.548 44.1735 650.752 41.3086 649.158 39.3206C647.565 37.3327 644.821 36.3388 640.926 36.3388ZM477.476 68.5255C475.971 67.2392 475.219 65.2805 475.219 62.6495V61.9478C475.219 59.1998 475.986 57.1973 477.52 55.9402C479.055 54.6832 481.504 54.0546 484.867 54.0546H486.372C489.972 54.0546 492.583 54.6832 494.206 55.9402C495.829 57.1973 496.64 58.9952 496.64 61.3339V62.0355C496.64 63.6142 496.345 64.9297 495.755 65.9821C495.165 67.0346 494.368 67.897 493.365 68.5694C492.362 69.2417 491.167 69.7241 489.78 70.0164C488.393 70.3088 486.874 70.455 485.222 70.455C481.563 70.455 478.981 69.8118 477.476 68.5255Z" fill="white"/>
<path d="M553.286 18.183V30.9748L560.66 18.183H553.286Z" fill="white"/>
</svg>
