<svg width="48" height="49" viewBox="0 0 48 49" fill="none" xmlns="http://www.w3.org/2000/svg">
<path d="M12.0007 33.4474C9.89314 32.4467 8.06911 30.9351 6.69439 29.0501C5.31966 27.165 4.43783 24.9663 4.12903 22.6538C3.82024 20.3412 4.09427 17.9882 4.92623 15.8085C5.75818 13.6288 7.12168 11.6916 8.8928 10.1729C10.6639 8.65422 12.7865 7.60225 15.0676 7.11259C17.3487 6.62293 19.716 6.71112 21.9544 7.36913C24.1927 8.02714 26.2312 9.23412 27.8844 10.8804C29.5376 12.5266 30.7532 14.5599 31.4207 16.7954H35.0007C37.3036 16.7914 39.5205 17.6704 41.1951 19.2514C42.8696 20.8325 43.8743 22.9953 44.0024 25.2947C44.1306 27.5941 43.3724 29.8551 41.8839 31.6124C40.3954 33.3697 38.2898 34.4896 36.0007 34.7414" stroke="#12201C" stroke-width="4" stroke-linecap="round" stroke-linejoin="round"/>
<path d="M26 24.7954L20 34.7954H28L22 44.7954" stroke="#12201C" stroke-width="4" stroke-linecap="round" stroke-linejoin="round"/>
</svg>
