<svg width="300" height="47" viewBox="0 0 300 47" fill="none" xmlns="http://www.w3.org/2000/svg">
<mask id="path-1-inside-1_1915_67" fill="white">
<path fill-rule="evenodd" clip-rule="evenodd" d="M0.649764 12C0.224127 13.9726 0 16.0202 0 18.1202C0 34.0701 12.9299 47 28.8799 47C44.8297 47 57.7597 34.0701 57.7597 18.1202C57.7597 16.0202 57.5356 13.9726 57.1099 12H44.616C45.3545 13.8975 45.7597 15.9615 45.7597 18.1202C45.7597 27.4426 38.2023 35 28.8799 35C19.5574 35 12 27.4426 12 18.1202C12 15.9615 12.4052 13.8975 13.1437 12H0.649764Z"/>
</mask>
<path d="M0.649764 12L0.649764 2.37347H-7.12117L-8.7602 9.96959L0.649764 12ZM57.1099 12L66.5199 9.9696L64.8809 2.37347H57.1099V12ZM44.616 12V2.37347L30.5394 2.37347L35.645 15.4916L44.616 12ZM13.1437 12L22.1147 15.4916L27.2203 2.37347L13.1437 2.37347V12ZM-8.7602 9.96959C-9.32891 12.6053 -9.62653 15.3334 -9.62653 18.1202H9.62653C9.62653 16.707 9.77716 15.34 10.0597 14.0304L-8.7602 9.96959ZM-9.62653 18.1202C-9.62653 39.3866 7.61336 56.6265 28.8799 56.6265V37.3735C18.2465 37.3735 9.62653 28.7535 9.62653 18.1202H-9.62653ZM28.8799 56.6265C50.1463 56.6265 67.3862 39.3866 67.3862 18.1202H48.1332C48.1332 28.7535 39.5132 37.3735 28.8799 37.3735V56.6265ZM67.3862 18.1202C67.3862 15.3334 67.0886 12.6052 66.5199 9.9696L47.7 14.0304C47.9825 15.34 48.1332 16.707 48.1332 18.1202H67.3862ZM57.1099 2.37347H44.616V21.6265H57.1099V2.37347ZM55.3862 18.1202C55.3862 14.748 54.7518 11.5012 53.587 8.50844L35.645 15.4916C35.9572 16.2938 36.1332 17.175 36.1332 18.1202H55.3862ZM28.8799 44.6265C43.5189 44.6265 55.3862 32.7592 55.3862 18.1202H36.1332C36.1332 22.1261 32.8857 25.3735 28.8799 25.3735V44.6265ZM2.37347 18.1202C2.37347 32.7592 14.2408 44.6265 28.8799 44.6265V25.3735C24.874 25.3735 21.6265 22.1261 21.6265 18.1202H2.37347ZM4.17269 8.50845C3.00792 11.5011 2.37347 14.748 2.37347 18.1202H21.6265C21.6265 17.175 21.8025 16.2938 22.1147 15.4916L4.17269 8.50845ZM13.1437 2.37347H0.649764L0.649764 21.6265H13.1437V2.37347Z" fill="white" fill-opacity="0.7" mask="url(#path-1-inside-1_1915_67)"/>
<path d="M114.974 13.516C117.278 13.516 119.312 13.984 121.076 14.92C122.876 15.82 124.28 17.224 125.288 19.132C126.332 21.004 126.854 23.416 126.854 26.368V43H118.43V27.664C118.43 25.324 117.944 23.596 116.972 22.48C116 21.364 114.632 20.806 112.868 20.806C111.644 20.806 110.546 21.094 109.574 21.67C108.602 22.21 107.846 23.038 107.306 24.154C106.766 25.27 106.496 26.692 106.496 28.42V43H98.0716V27.664C98.0716 25.324 97.5856 23.596 96.6136 22.48C95.6776 21.364 94.3276 20.806 92.5636 20.806C91.3396 20.806 90.2416 21.094 89.2696 21.67C88.2976 22.21 87.5416 23.038 87.0016 24.154C86.4616 25.27 86.1916 26.692 86.1916 28.42V43H77.7676V13.948H85.8136V21.886L84.3016 19.564C85.3096 17.584 86.7316 16.09 88.5676 15.082C90.4396 14.038 92.5636 13.516 94.9396 13.516C97.6036 13.516 99.9256 14.2 101.906 15.568C103.922 16.9 105.254 18.952 105.902 21.724L102.932 20.914C103.904 18.646 105.452 16.846 107.576 15.514C109.736 14.182 112.202 13.516 114.974 13.516Z" fill="white"/>
<path d="M149.033 43.432C145.721 43.432 142.805 42.784 140.285 41.488C137.801 40.192 135.875 38.428 134.507 36.196C133.139 33.928 132.455 31.354 132.455 28.474C132.455 25.558 133.121 22.984 134.453 20.752C135.821 18.484 137.675 16.72 140.015 15.46C142.355 14.164 145.001 13.516 147.953 13.516C150.797 13.516 153.353 14.128 155.621 15.352C157.925 16.54 159.743 18.268 161.075 20.536C162.407 22.768 163.073 25.45 163.073 28.582C163.073 28.906 163.055 29.284 163.019 29.716C162.983 30.112 162.947 30.49 162.911 30.85H139.313V25.936H158.483L155.243 27.394C155.243 25.882 154.937 24.568 154.325 23.452C153.713 22.336 152.867 21.472 151.787 20.86C150.707 20.212 149.447 19.888 148.007 19.888C146.567 19.888 145.289 20.212 144.173 20.86C143.093 21.472 142.247 22.354 141.635 23.506C141.023 24.622 140.717 25.954 140.717 27.502V28.798C140.717 30.382 141.059 31.786 141.743 33.01C142.463 34.198 143.453 35.116 144.713 35.764C146.009 36.376 147.521 36.682 149.249 36.682C150.797 36.682 152.147 36.448 153.299 35.98C154.487 35.512 155.567 34.81 156.539 33.874L161.021 38.734C159.689 40.246 158.015 41.416 155.999 42.244C153.983 43.036 151.661 43.432 149.033 43.432Z" fill="white"/>
<path d="M205.888 13.516C208.192 13.516 210.226 13.984 211.99 14.92C213.79 15.82 215.194 17.224 216.202 19.132C217.246 21.004 217.768 23.416 217.768 26.368V43H209.344V27.664C209.344 25.324 208.858 23.596 207.886 22.48C206.914 21.364 205.546 20.806 203.782 20.806C202.558 20.806 201.46 21.094 200.488 21.67C199.516 22.21 198.76 23.038 198.22 24.154C197.68 25.27 197.41 26.692 197.41 28.42V43H188.986V27.664C188.986 25.324 188.5 23.596 187.528 22.48C186.592 21.364 185.242 20.806 183.478 20.806C182.254 20.806 181.156 21.094 180.184 21.67C179.212 22.21 178.456 23.038 177.916 24.154C177.376 25.27 177.106 26.692 177.106 28.42V43H168.682V13.948H176.728V21.886L175.216 19.564C176.224 17.584 177.646 16.09 179.482 15.082C181.354 14.038 183.478 13.516 185.854 13.516C188.518 13.516 190.84 14.2 192.82 15.568C194.836 16.9 196.168 18.952 196.816 21.724L193.846 20.914C194.818 18.646 196.366 16.846 198.49 15.514C200.65 14.182 203.116 13.516 205.888 13.516Z" fill="white"/>
<path d="M225.318 43V13.948H233.742V43H225.318ZM229.53 9.89795C227.982 9.89795 226.722 9.44795 225.75 8.54796C224.778 7.64795 224.292 6.53195 224.292 5.19995C224.292 3.86795 224.778 2.75195 225.75 1.85196C226.722 0.951954 227.982 0.501953 229.53 0.501953C231.078 0.501953 232.338 0.933954 233.31 1.79796C234.282 2.62596 234.768 3.70596 234.768 5.03796C234.768 6.44195 234.282 7.61195 233.31 8.54796C232.374 9.44795 231.114 9.89795 229.53 9.89795Z" fill="white"/>
<path d="M255.979 43.432C252.667 43.432 249.751 42.784 247.231 41.488C244.747 40.192 242.821 38.428 241.453 36.196C240.085 33.928 239.401 31.354 239.401 28.474C239.401 25.558 240.067 22.984 241.399 20.752C242.767 18.484 244.621 16.72 246.961 15.46C249.301 14.164 251.947 13.516 254.899 13.516C257.743 13.516 260.299 14.128 262.567 15.352C264.871 16.54 266.689 18.268 268.021 20.536C269.353 22.768 270.019 25.45 270.019 28.582C270.019 28.906 270.001 29.284 269.965 29.716C269.929 30.112 269.893 30.49 269.857 30.85H246.259V25.936H265.429L262.189 27.394C262.189 25.882 261.883 24.568 261.271 23.452C260.659 22.336 259.813 21.472 258.733 20.86C257.653 20.212 256.393 19.888 254.953 19.888C253.513 19.888 252.235 20.212 251.119 20.86C250.039 21.472 249.193 22.354 248.581 23.506C247.969 24.622 247.663 25.954 247.663 27.502V28.798C247.663 30.382 248.005 31.786 248.689 33.01C249.409 34.198 250.399 35.116 251.659 35.764C252.955 36.376 254.467 36.682 256.195 36.682C257.743 36.682 259.093 36.448 260.245 35.98C261.433 35.512 262.513 34.81 263.485 33.874L267.967 38.734C266.635 40.246 264.961 41.416 262.945 42.244C260.929 43.036 258.607 43.432 255.979 43.432Z" fill="white"/>
<path d="M285.401 43.432C282.917 43.432 280.523 43.144 278.219 42.568C275.951 41.956 274.151 41.2 272.819 40.3L275.627 34.252C276.959 35.08 278.525 35.764 280.325 36.304C282.161 36.808 283.961 37.06 285.725 37.06C287.669 37.06 289.037 36.826 289.829 36.358C290.657 35.89 291.071 35.242 291.071 34.414C291.071 33.73 290.747 33.226 290.099 32.902C289.487 32.542 288.659 32.272 287.615 32.092C286.571 31.912 285.419 31.732 284.159 31.552C282.935 31.372 281.693 31.138 280.433 30.85C279.173 30.526 278.021 30.058 276.977 29.446C275.933 28.834 275.087 28.006 274.439 26.962C273.827 25.918 273.521 24.568 273.521 22.912C273.521 21.076 274.043 19.456 275.087 18.052C276.167 16.648 277.715 15.55 279.731 14.758C281.747 13.93 284.159 13.516 286.967 13.516C288.947 13.516 290.963 13.732 293.015 14.164C295.067 14.596 296.777 15.226 298.145 16.054L295.337 22.048C293.933 21.22 292.511 20.662 291.071 20.374C289.667 20.05 288.299 19.888 286.967 19.888C285.095 19.888 283.727 20.14 282.863 20.644C281.999 21.148 281.567 21.796 281.567 22.588C281.567 23.308 281.873 23.848 282.485 24.208C283.133 24.568 283.979 24.856 285.023 25.072C286.067 25.288 287.201 25.486 288.425 25.666C289.685 25.81 290.945 26.044 292.205 26.368C293.465 26.692 294.599 27.16 295.607 27.772C296.651 28.348 297.497 29.158 298.145 30.202C298.793 31.21 299.117 32.542 299.117 34.198C299.117 35.998 298.577 37.6 297.497 39.004C296.417 40.372 294.851 41.452 292.799 42.244C290.783 43.036 288.317 43.432 285.401 43.432Z" fill="white"/>
</svg>
