<svg width="660" height="96" viewBox="0 0 660 96" fill="none" xmlns="http://www.w3.org/2000/svg">
<path fill-rule="evenodd" clip-rule="evenodd" d="M441.867 23.7551C446.027 21.3579 450.719 20.1836 455.881 20.1836C460.725 20.1836 465.153 21.2941 469.112 23.5545C473.115 25.8032 476.287 28.9413 478.602 32.9347C480.804 36.6308 482.033 40.7801 482.321 45.3381C482.436 47.1617 481.151 48.693 479.456 49.0226L441.679 56.3681C442.863 58.8716 444.565 60.9021 446.799 62.4961C449.763 64.5034 453.334 65.5496 457.611 65.5496C460.479 65.5496 463.058 65.0543 465.379 64.0942C467.334 63.2544 469.021 62.1186 470.458 60.6871C471.864 59.2861 474.327 59.1534 475.791 60.8373L477.92 63.2861C479.051 64.5866 479.138 66.6119 477.872 67.9845C475.535 70.5179 472.72 72.475 469.454 73.8566C465.811 75.3979 461.821 76.1508 457.515 76.1508C451.998 76.1508 447.005 74.9902 442.595 72.6102L442.571 72.597C438.182 70.1586 434.738 66.7909 432.284 62.5141C429.826 58.2291 428.619 53.4112 428.619 48.1191C428.619 42.85 429.751 38.05 432.064 33.7738L432.078 33.7486C434.451 29.4904 437.721 26.1445 441.867 23.7551ZM455.881 30.5925C452.732 30.5925 449.965 31.3321 447.522 32.7754L447.509 32.7836C445.135 34.1635 443.245 36.1224 441.832 38.7201C440.579 41.0724 439.884 43.8193 439.804 47.0137L470.502 41.0562C469.633 38.3246 468.116 36.047 465.936 34.1783L465.916 34.161C463.229 31.8032 459.932 30.5925 455.881 30.5925Z" fill="white"/>
<path fill-rule="evenodd" clip-rule="evenodd" d="M366.851 26.5572C366.851 24.7638 368.305 23.3101 370.098 23.3101H407.388C409.181 23.3101 410.635 24.7638 410.635 26.5572V29.2302C410.635 29.958 410.39 30.6647 409.941 31.2369L380.965 68.0994H408.061C409.854 68.0994 411.308 69.5532 411.308 71.3465V74.4196C411.308 76.2129 409.854 77.6667 408.061 77.6667H369.521C367.728 77.6667 366.274 76.2129 366.274 74.4196V71.6522C366.274 70.9217 366.521 70.2125 366.973 69.6393L396.018 32.8773H370.098C368.305 32.8773 366.851 31.4236 366.851 29.6302V26.5572Z" fill="white"/>
<path fill-rule="evenodd" clip-rule="evenodd" d="M337.019 3.91724C338.297 2.63925 339.901 2 341.723 2C343.536 2 345.133 2.63266 346.408 3.89751C347.675 5.08963 348.345 6.59787 348.345 8.33317C348.345 10.1556 347.706 11.7594 346.428 13.0374C345.15 14.3154 343.546 14.9547 341.723 14.9547C339.901 14.9547 338.297 14.3154 337.019 13.0374C335.757 11.7753 335.102 10.2104 335.102 8.42928C335.102 6.689 335.774 5.16236 337.019 3.91724ZM336.64 25.6831C336.64 24.0691 337.948 22.7607 339.562 22.7607H343.789C345.403 22.7607 346.711 24.0691 346.711 25.6831V73.6417C346.711 75.2557 345.403 76.5641 343.789 76.5641H339.562C337.948 76.5641 336.64 75.2557 336.64 73.6417V25.6831Z" fill="white"/>
<path fill-rule="evenodd" clip-rule="evenodd" d="M245.927 25.4267C249.342 23.6507 253.238 22.7812 257.579 22.7812C261.992 22.7812 265.878 23.7183 269.185 25.6464C271.783 27.1317 273.876 29.1705 275.453 31.7458C275.477 31.7835 275.548 31.8491 275.692 31.8561C275.837 31.8631 275.909 31.8051 275.933 31.773C277.765 29.317 280.097 27.3333 282.912 25.8212C286.647 23.7845 290.869 22.7812 295.544 22.7812C302.146 22.7812 307.477 24.6894 311.364 28.6442C315.338 32.62 317.219 38.384 317.219 45.7059V73.67C317.219 75.1047 316.056 76.5794 314.622 76.5794H310.395C308.961 76.5794 307.798 75.1047 307.798 73.67V46.3787C307.798 41.3219 306.565 37.6828 304.301 35.249L304.29 35.237C302.094 32.8162 298.925 31.5303 294.583 31.5303C289.62 31.5303 285.86 33.0612 283.139 36.0135L283.131 36.0229C280.407 38.9209 278.966 43.0195 278.966 48.4932V73.67C278.966 75.1047 277.803 76.5794 276.368 76.5794H272.142C270.707 76.5794 269.544 75.1047 269.544 73.67V46.3787C269.544 41.3219 268.311 37.6828 266.047 35.249L266.036 35.237C263.844 32.8199 260.646 31.5303 256.233 31.5303C251.34 31.5303 247.572 33.0576 244.781 36.0229C242.057 38.9208 240.616 43.0195 240.616 48.4932V73.67C240.616 75.1047 239.453 76.5794 238.018 76.5794H233.792C232.357 76.5794 231.194 75.1047 231.194 73.67V25.7634C231.194 24.3287 232.357 23.1657 233.792 23.1657H237.73C239.165 23.1657 240.328 24.3287 240.328 25.7634V28.8765L240.332 28.8813C240.357 28.9105 240.425 28.966 240.546 29.006C240.665 29.0455 240.788 29.0535 240.885 29.0373C240.977 29.022 241.019 28.991 241.036 28.9742C242.453 27.5661 244.085 26.3842 245.927 25.4267Z" fill="white"/>
<path fill-rule="evenodd" clip-rule="evenodd" d="M204.347 3.72703C205.498 2.57577 206.935 2 208.592 2C210.243 2 211.676 2.57182 212.825 3.71518C213.97 4.78915 214.564 6.12992 214.564 7.68375C214.564 9.34108 213.988 10.7775 212.837 11.9288C211.686 13.0801 210.249 13.6558 208.592 13.6558C206.935 13.6558 205.498 13.0801 204.347 11.9288C203.205 10.7871 202.62 9.38675 202.62 7.77986C202.62 6.22309 203.215 4.85857 204.347 3.72703ZM204.158 25.0337C204.158 23.7784 205.175 22.7607 206.431 22.7607H210.657C211.912 22.7607 212.93 23.7784 212.93 25.0337V72.9922C212.93 74.2476 211.912 75.2652 210.657 75.2652H206.431C205.175 75.2652 204.158 74.2476 204.158 72.9923V25.0337Z" fill="white"/>
<path fill-rule="evenodd" clip-rule="evenodd" d="M158.459 14.3394C158.459 13.2634 159.331 12.3911 160.407 12.3911H164.634C165.71 12.3911 166.582 13.2634 166.582 14.3394V22.7949C166.582 23.1535 166.873 23.4443 167.232 23.4443H179.916C180.992 23.4443 181.864 24.3165 181.864 25.3925V28.5617C181.864 29.6377 180.992 30.51 179.916 30.51H167.232C166.873 30.51 166.582 30.8008 166.582 31.1594V60.0405C166.582 62.9489 167.292 65.0737 168.617 66.5162C169.932 67.8856 171.884 68.6181 174.583 68.6181C176.876 68.6181 178.793 68.1181 180.365 67.1494C181.357 66.5378 182.838 66.7442 183.42 67.9307L184.634 70.4076C185.012 71.1776 184.855 72.1578 184.12 72.7164C182.931 73.6205 181.55 74.3398 179.985 74.8794L179.966 74.886C178.042 75.4831 176.022 75.7799 173.91 75.7799C169.051 75.7799 165.213 74.4641 162.494 71.7451C159.777 69.0277 158.459 65.2225 158.459 60.425V14.3394Z" fill="white"/>
<path d="M35.3701 78.2265C28.7062 78.2265 22.651 76.7527 17.2045 73.8052C11.8221 70.7936 7.59305 66.6928 4.51738 61.5026C1.50579 56.3124 0 50.4814 0 44.0097C0 37.538 1.50579 31.7071 4.51738 26.5169C7.59305 21.3267 11.8221 17.2579 17.2045 14.3103C22.651 11.2988 28.7062 9.79297 35.3701 9.79297C42.0341 9.79297 48.0252 11.2667 53.3436 14.2142C58.726 17.1617 62.955 21.2626 66.0307 26.5169C69.1063 31.7071 70.6442 37.538 70.6442 44.0097C70.6442 50.4814 69.1063 56.3444 66.0307 61.5987C62.955 66.7889 58.726 70.8577 53.3436 73.8052C48.0252 76.7527 42.0341 78.2265 35.3701 78.2265ZM35.3701 71.8829C40.6885 71.8829 45.4942 70.6975 49.7873 68.3267C54.0804 65.8918 57.4444 62.5598 59.8793 58.3308C62.3142 54.0377 63.5317 49.264 63.5317 44.0097C63.5317 38.7555 62.3142 34.0138 59.8793 29.7848C57.4444 25.4917 54.0804 22.1597 49.7873 19.7889C45.4942 17.354 40.6885 16.1365 35.3701 16.1365C30.0518 16.1365 25.214 17.354 20.8568 19.7889C16.5637 22.1597 13.1677 25.4917 10.6687 29.7848C8.23381 34.0138 7.01636 38.7555 7.01636 44.0097C7.01636 49.264 8.23381 54.0377 10.6687 58.3308C13.1677 62.5598 16.5637 65.8918 20.8568 68.3267C25.214 70.6975 30.0518 71.8829 35.3701 71.8829Z" fill="white"/>
<path fill-rule="evenodd" clip-rule="evenodd" d="M103.104 25.5101C106.551 23.6888 110.417 22.7812 114.693 22.7812C119.486 22.7812 123.834 23.8827 127.731 26.0903C131.629 28.2348 134.684 31.2904 136.891 35.2505C139.099 39.213 140.2 43.7218 140.2 48.7685C140.2 53.8785 139.1 58.4196 136.891 62.3827C134.684 66.3426 131.63 69.4296 127.733 71.638C123.898 73.7824 119.548 74.8519 114.693 74.8519C110.547 74.8519 106.78 74.0094 103.399 72.3187L103.392 72.3153C101.359 71.239 99.5454 69.8692 97.9521 68.2069C97.6096 67.8495 97.0713 67.7671 96.5966 67.9277C96.1241 68.0875 95.795 68.4573 95.795 68.9295V91.394C95.795 92.2907 95.0681 93.0176 94.1714 93.0176H89.945C89.0483 93.0176 88.3214 92.2907 88.3214 91.394V24.7893C88.3214 23.8926 89.0483 23.1657 89.945 23.1657H93.8831C94.7797 23.1657 95.5066 23.8926 95.5066 24.7893V28.8975C95.5066 29.3733 95.8457 29.7492 96.3361 29.911C96.8284 30.0734 97.3816 29.9858 97.7253 29.622C99.2847 27.9717 101.079 26.6001 103.104 25.5101ZM104.669 31.8444C101.903 33.4792 99.7008 35.774 98.0617 38.7366C96.4896 41.6297 95.6988 44.9706 95.6988 48.7685C95.6988 52.5658 96.4893 55.9395 98.0624 58.8979C99.701 61.8591 101.902 64.153 104.666 65.7874C107.497 67.3588 110.676 68.1473 114.213 68.1473C117.685 68.1473 120.833 67.359 123.664 65.7866C126.492 64.1518 128.692 61.8587 130.265 58.9003L130.268 58.8956C131.904 55.9376 132.726 52.5647 132.726 48.7685C132.726 44.9722 131.904 41.6326 130.269 38.7402L130.265 38.7329C128.691 35.7736 126.491 33.48 123.662 31.8452C120.83 30.2094 117.683 29.3898 114.213 29.3898C110.677 29.3898 107.499 30.2097 104.669 31.8444Z" fill="white"/>
<path fill-rule="evenodd" clip-rule="evenodd" d="M566.721 80.4748C566.483 80.8056 566.72 81.267 567.127 81.267H589.45C589.618 81.267 589.775 81.1826 589.867 81.0423L604.203 59.3099C604.4 59.0116 604.837 59.01 605.036 59.3068L619.604 81.0453C619.697 81.1838 619.853 81.267 620.02 81.267H642.556C642.963 81.267 643.199 80.8063 642.962 80.4755L616.451 43.5313L605.192 29.3697L590.703 8.48307C590.609 8.3484 590.456 8.26807 590.292 8.26807H568.264C567.858 8.26807 567.621 8.72546 567.855 9.05664L592.559 44.0117C592.682 44.186 592.681 44.4192 592.557 44.5924L566.721 80.4748ZM614.453 8.26807H644.795C645.072 8.26807 645.295 8.49192 645.295 8.76807V30.0777C645.295 30.3538 645.072 30.5777 644.795 30.5777H622.54C622.397 30.5777 622.261 30.639 622.166 30.746L614.827 39.0279C614.522 39.3723 613.953 39.1564 613.953 38.6963V30.5777V8.76807C613.953 8.49192 614.177 8.26807 614.453 8.26807Z" fill="white"/>
<path d="M651.131 22.0059H657.5C657.776 22.0059 658 22.2297 658 22.5059V52.9159L649.414 43.4051H627.59C627.314 43.4051 627.09 43.1813 627.09 42.9051V36.272" stroke="white" stroke-width="2.5" stroke-linecap="square" stroke-linejoin="round"/>
<path fill-rule="evenodd" clip-rule="evenodd" d="M514.24 73.8628C520.288 79.7722 528.7 82.727 539.476 82.727C550.252 82.727 558.665 79.7722 564.713 73.8628C570.762 67.9534 573.786 59.5759 573.786 48.7303V27.6344C573.786 27.3673 573.715 27.1059 573.58 26.8768L563.31 12.3441L560.726 8.69066C560.539 8.42563 560.234 8.26807 559.91 8.26807H553.95C553.674 8.26807 553.45 8.49192 553.45 8.76807V48.1046C553.45 54.3617 552.234 58.8459 549.8 61.5573C547.367 64.2687 543.995 65.6244 539.685 65.6244C535.375 65.6244 531.968 64.2687 529.465 61.5573C527.032 58.8459 525.815 54.3617 525.815 48.1046V8.76807C525.815 8.49192 525.591 8.26807 525.315 8.26807H505.667C505.391 8.26807 505.167 8.49192 505.167 8.76807V48.7303C505.167 59.5759 508.191 67.9534 514.24 73.8628Z" fill="white"/>
</svg>
