<svg width="258" height="179" viewBox="0 0 258 179" fill="none" xmlns="http://www.w3.org/2000/svg">
<path fill-rule="evenodd" clip-rule="evenodd" d="M103.575 174.286C102.892 175.235 103.57 176.559 104.74 176.559H140.561C141.043 176.559 141.493 176.317 141.759 175.915L165.048 140.61C165.613 139.753 166.867 139.749 167.438 140.601L191.11 175.923C191.377 176.321 191.824 176.559 192.303 176.559H228.484C229.653 176.559 230.332 175.237 229.65 174.288L186.017 113.482L167.198 89.8106L143.156 55.1552C142.888 54.7687 142.448 54.5381 141.977 54.5381H106.627C105.463 54.5381 104.783 55.851 105.455 56.8016L145.834 113.936C146.188 114.436 146.185 115.106 145.827 115.603L103.575 174.286ZM183.277 54.5381H232.797C233.59 54.5381 234.232 55.1807 234.232 55.9733V90.3945C234.232 91.1871 233.59 91.8297 232.797 91.8297H196.466C196.055 91.8297 195.664 92.0057 195.392 92.313L184.351 104.772C183.475 105.761 181.841 105.141 181.841 103.82V91.8297V55.9733C181.841 55.1807 182.484 54.5381 183.277 54.5381Z" fill="#051511"/>
<path d="M243.987 77.5015H254.033C254.826 77.5015 255.468 78.144 255.468 78.9367V129.169L241.116 113.271H205.236C204.443 113.271 203.801 112.629 203.801 111.836V101.348" stroke="#F4F1EC" stroke-width="5" stroke-linecap="square" stroke-linejoin="round"/>
<path fill-rule="evenodd" clip-rule="evenodd" d="M15.1655 164.183C25.2759 174.061 39.3374 179 57.3501 179C75.3627 179 89.4243 174.061 99.5346 164.183C109.645 154.305 114.7 140.302 114.7 122.173V87.4815C114.7 86.6845 114.479 85.905 114.064 85.2289L97.2711 61.4678L93.2283 55.7511C92.6903 54.9904 91.8165 54.5381 90.8847 54.5381H82.1436C81.351 54.5381 80.7084 55.1807 80.7084 55.9733V121.127C80.7084 131.586 78.6748 139.081 74.6074 143.614C70.54 148.146 64.9038 150.412 57.6987 150.412C50.4936 150.412 44.7993 148.146 40.6157 143.614C36.5483 139.081 34.5146 131.586 34.5146 121.127V55.9733C34.5146 55.1807 33.8721 54.5381 33.0794 54.5381H1.43521C0.642568 54.5381 0 55.1806 0 55.9733V122.173C0 140.302 5.05517 154.305 15.1655 164.183Z" fill="#051511"/>
<path fill-rule="evenodd" clip-rule="evenodd" d="M234.038 11.5235C236.241 10.2538 238.726 9.63184 241.461 9.63184C244.026 9.63184 246.371 10.22 248.468 11.4173C250.588 12.6083 252.268 14.2704 253.495 16.3856C254.661 18.3432 255.312 20.5409 255.464 22.9551C255.525 23.921 254.845 24.732 253.947 24.9066L233.938 28.7972C234.565 30.1232 235.467 31.1986 236.65 32.0429C238.22 33.1061 240.111 33.6602 242.377 33.6602C243.895 33.6602 245.262 33.3979 246.491 32.8893C247.527 32.4446 248.42 31.843 249.181 31.0848C249.926 30.3428 251.23 30.2725 252.006 31.1643L253.133 32.4614C253.732 33.1502 253.779 34.2229 253.108 34.9499C251.87 36.2917 250.379 37.3283 248.649 38.0601C246.72 38.8764 244.607 39.2752 242.326 39.2752C239.404 39.2752 236.759 38.6605 234.423 37.3999L234.411 37.3929C232.086 36.1014 230.262 34.3177 228.962 32.0525C227.66 29.7829 227.021 27.2311 227.021 24.4281C227.021 21.6373 227.62 19.0949 228.846 16.83L228.853 16.8166C230.11 14.5612 231.842 12.7891 234.038 11.5235ZM241.461 15.145C239.792 15.145 238.327 15.5367 237.033 16.3012L237.026 16.3055C235.769 17.0364 234.768 18.0739 234.019 19.4498C233.355 20.6957 232.987 22.1506 232.945 23.8426L249.204 20.6872C248.744 19.2403 247.941 18.034 246.786 17.0442L246.775 17.0351C245.352 15.7862 243.606 15.145 241.461 15.145Z" fill="#051511"/>
<path fill-rule="evenodd" clip-rule="evenodd" d="M194.305 13.007C194.305 12.0571 195.075 11.2871 196.025 11.2871H215.776C216.725 11.2871 217.495 12.0571 217.495 13.007V14.4228C217.495 14.8082 217.366 15.1825 217.128 15.4856L201.781 35.0101H216.132C217.082 35.0101 217.852 35.7801 217.852 36.7299V38.3576C217.852 39.3075 217.082 40.0775 216.132 40.0775H195.719C194.77 40.0775 194 39.3075 194 38.3576V36.8919C194 36.5049 194.13 36.1293 194.37 35.8257L209.753 16.3545H196.025C195.075 16.3545 194.305 15.5845 194.305 14.6346V13.007Z" fill="#051511"/>
<path fill-rule="evenodd" clip-rule="evenodd" d="M178.504 1.01548C179.181 0.338583 180.031 0 180.996 0C181.956 0 182.802 0.335092 183.477 1.00503C184.148 1.63644 184.503 2.43529 184.503 3.3544C184.503 4.31968 184.165 5.16915 183.488 5.84605C182.811 6.52295 181.961 6.86153 180.996 6.86153C180.031 6.86153 179.181 6.52294 178.504 5.84605C177.836 5.17755 177.489 4.34868 177.489 3.40531C177.489 2.48356 177.845 1.67496 178.504 1.01548ZM178.303 12.5439C178.303 11.6891 178.996 10.9961 179.851 10.9961H182.09C182.945 10.9961 183.638 11.6891 183.638 12.5439V37.9455C183.638 38.8003 182.945 39.4933 182.09 39.4933H179.851C178.996 39.4933 178.303 38.8003 178.303 37.9455V12.5439Z" fill="#051511"/>
<path fill-rule="evenodd" clip-rule="evenodd" d="M130.257 12.4075C132.066 11.4668 134.129 11.0063 136.428 11.0063C138.766 11.0063 140.824 11.5027 142.576 12.5239C143.951 13.3106 145.06 14.3905 145.896 15.7545C145.908 15.7745 145.945 15.8092 146.022 15.8129C146.099 15.8166 146.137 15.7859 146.15 15.7689C147.12 14.468 148.355 13.4174 149.846 12.6165C151.825 11.5377 154.061 11.0063 156.537 11.0063C160.033 11.0063 162.857 12.017 164.916 14.1117C167.021 16.2175 168.017 19.2704 168.017 23.1485V37.9599C168.017 38.7198 167.401 39.5009 166.641 39.5009H164.403C163.643 39.5009 163.027 38.7198 163.027 37.9599V23.5049C163.027 20.8265 162.374 18.8991 161.175 17.61L161.169 17.6036C160.006 16.3214 158.327 15.6403 156.028 15.6403C153.399 15.6403 151.408 16.4512 149.967 18.0149L149.962 18.0199C148.519 19.5548 147.756 21.7257 147.756 24.6248V37.9599C147.756 38.7198 147.14 39.5009 146.38 39.5009H144.142C143.382 39.5009 142.766 38.7198 142.766 37.9599V23.5049C142.766 20.8265 142.113 18.8991 140.914 17.61L140.908 17.6036C139.747 16.3234 138.053 15.6403 135.716 15.6403C133.124 15.6403 131.128 16.4493 129.65 18.0198C128.207 19.5548 127.444 21.7257 127.444 24.6248V37.9599C127.444 38.7198 126.828 39.5009 126.068 39.5009H123.829C123.069 39.5009 122.453 38.7198 122.453 37.9599V12.5859C122.453 11.826 123.069 11.21 123.829 11.21H125.915C126.675 11.21 127.291 11.826 127.291 12.5859V14.2348L127.293 14.2373C127.307 14.2527 127.343 14.2822 127.407 14.3034C127.47 14.3243 127.535 14.3285 127.586 14.3199C127.635 14.3118 127.657 14.2954 127.666 14.2865C128.417 13.5407 129.281 12.9147 130.257 12.4075Z" fill="#051511"/>
<path fill-rule="evenodd" clip-rule="evenodd" d="M108.233 0.914734C108.843 0.304962 109.604 0 110.482 0C111.357 0 112.115 0.302869 112.724 0.908453C113.33 1.47729 113.645 2.18744 113.645 3.01043C113.645 3.88825 113.34 4.64908 112.73 5.25885C112.121 5.86862 111.36 6.17359 110.482 6.17359C109.604 6.17359 108.843 5.86862 108.233 5.25885C107.629 4.65412 107.319 3.91244 107.319 3.06134C107.319 2.23679 107.634 1.51406 108.233 0.914734ZM108.133 12.2C108.133 11.5351 108.672 10.9961 109.337 10.9961H111.576C112.241 10.9961 112.78 11.5351 112.78 12.2V37.6015C112.78 38.2664 112.241 38.8054 111.576 38.8054H109.337C108.672 38.8054 108.133 38.2664 108.133 37.6015V12.2Z" fill="#051511"/>
<path fill-rule="evenodd" clip-rule="evenodd" d="M83.9288 6.53582C83.9288 5.96591 84.3908 5.50391 84.9607 5.50391H87.1993C87.7692 5.50391 88.2312 5.96591 88.2312 6.53582V11.0143C88.2312 11.2043 88.3852 11.3583 88.5752 11.3583H95.2936C95.8635 11.3583 96.3255 11.8203 96.3255 12.3902V14.0688C96.3255 14.6387 95.8635 15.1007 95.2936 15.1007H88.5752C88.3852 15.1007 88.2312 15.2547 88.2312 15.4447V30.7417C88.2312 32.2821 88.6075 33.4076 89.3089 34.1716C90.0055 34.8969 91.0394 35.2849 92.4689 35.2849C93.6833 35.2849 94.6989 35.0201 95.5313 34.507C96.0569 34.183 96.8414 34.2924 97.1495 34.9208L97.7926 36.2327C97.9925 36.6405 97.9095 37.1597 97.5203 37.4556C96.8903 37.9344 96.159 38.3154 95.3301 38.6012L95.32 38.6047C94.301 38.921 93.2313 39.0782 92.1126 39.0782C89.5392 39.0782 87.506 38.3813 86.0659 36.9411C84.6266 35.5019 83.9288 33.4864 83.9288 30.9454V6.53582Z" fill="#051511"/>
<path d="M18.734 40.3737C15.2044 40.3737 11.9972 39.5931 9.11247 38.0319C6.26164 36.4368 4.02171 34.2648 2.39266 31.5158C0.797554 28.7668 0 25.6783 0 22.2506C0 18.8228 0.797554 15.7344 2.39266 12.9854C4.02171 10.2364 6.26164 8.08127 9.11247 6.5201C11.9972 4.92499 15.2044 4.12744 18.734 4.12744C22.2636 4.12744 25.4369 4.90802 28.2538 6.46919C31.1046 8.03036 33.3445 10.2024 34.9736 12.9854C36.6026 15.7344 37.4171 18.8228 37.4171 22.2506C37.4171 25.6783 36.6026 28.7837 34.9736 31.5667C33.3445 34.3157 31.1046 36.4708 28.2538 38.0319C25.4369 39.5931 22.2636 40.3737 18.734 40.3737ZM18.734 37.0138C21.5509 37.0138 24.0963 36.3859 26.3702 35.1302C28.644 33.8405 30.4258 32.0757 31.7155 29.8358C33.0051 27.5619 33.65 25.0335 33.65 22.2506C33.65 19.4676 33.0051 16.9562 31.7155 14.7162C30.4258 12.4424 28.644 10.6776 26.3702 9.42184C24.0963 8.13218 21.5509 7.48735 18.734 7.48735C15.9171 7.48735 13.3548 8.13218 11.047 9.42184C8.77309 10.6776 6.97435 12.4424 5.65075 14.7162C4.36109 16.9562 3.71626 19.4676 3.71626 22.2506C3.71626 25.0335 4.36109 27.5619 5.65075 29.8358C6.97435 32.0757 8.77309 33.8405 11.047 35.1302C13.3548 36.3859 15.9171 37.0138 18.734 37.0138Z" fill="#051511"/>
<path fill-rule="evenodd" clip-rule="evenodd" d="M54.6095 12.4517C56.4354 11.487 58.4828 11.0063 60.7479 11.0063C63.2864 11.0063 65.5895 11.5898 67.6533 12.759C69.718 13.8948 71.3359 15.5132 72.505 17.6108C73.6748 19.7095 74.2577 22.0977 74.2577 24.7707C74.2577 27.4772 73.675 29.8824 72.505 31.9815C71.336 34.0789 69.7184 35.7139 67.6543 36.8836C65.6235 38.0195 63.3194 38.5859 60.7479 38.5859C58.5518 38.5859 56.5567 38.1397 54.7657 37.2442L54.7621 37.2424C53.6853 36.6723 52.7248 35.9468 51.8809 35.0663C51.6995 34.8771 51.4144 34.8334 51.1629 34.9184C50.9126 35.0031 50.7383 35.1989 50.7383 35.4491V47.3475C50.7383 47.8225 50.3533 48.2075 49.8784 48.2075H47.6398C47.1649 48.2075 46.7799 47.8225 46.7799 47.3475V12.0699C46.7799 11.595 47.1649 11.21 47.6398 11.21H49.7257C50.2006 11.21 50.5856 11.595 50.5856 12.0699V14.2458C50.5856 14.4979 50.7652 14.6969 51.0249 14.7827C51.2857 14.8687 51.5787 14.8223 51.7608 14.6296C52.5867 13.7555 53.5373 13.029 54.6095 12.4517ZM55.4384 15.8067C53.9734 16.6726 52.8071 17.888 51.9389 19.4572C51.1062 20.9895 50.6874 22.7591 50.6874 24.7707C50.6874 26.7819 51.1061 28.5688 51.9393 30.1358C52.8072 31.7042 53.973 32.9191 55.4372 33.7848C56.9362 34.6171 58.6202 35.0348 60.4933 35.0348C62.3323 35.0348 63.9998 34.6172 65.4994 33.7844C66.9974 32.9185 68.1623 31.704 68.9958 30.137L68.9971 30.1345C69.8638 28.5678 70.2992 26.7813 70.2992 24.7707C70.2992 22.7599 69.8638 20.9911 68.9979 19.4591L68.9957 19.4553C68.162 17.8879 66.9967 16.673 65.4981 15.8071C63.9985 14.9407 62.3316 14.5066 60.4933 14.5066C58.6209 14.5066 56.9373 14.9409 55.4384 15.8067Z" fill="#051511"/>
</svg>
