<svg width="224" height="31" viewBox="0 0 224 31" fill="none" xmlns="http://www.w3.org/2000/svg">
<path fill-rule="evenodd" clip-rule="evenodd" d="M150.19 7.36074C151.597 6.54965 153.185 6.15234 154.931 6.15234C156.57 6.15234 158.068 6.52808 159.408 7.29287C160.762 8.05373 161.835 9.11548 162.619 10.4666C163.364 11.7172 163.78 13.1211 163.877 14.6632C163.916 15.2803 163.481 15.7984 162.907 15.9099L150.126 18.3952C150.527 19.2423 151.102 19.9293 151.858 20.4686C152.861 21.1478 154.069 21.5018 155.517 21.5018C156.487 21.5018 157.36 21.3342 158.145 21.0093C158.806 20.7252 159.377 20.3409 159.863 19.8565C160.339 19.3825 161.172 19.3376 161.668 19.9073L162.388 20.7359C162.771 21.1759 162.8 21.8612 162.372 22.3256C161.581 23.1827 160.628 23.8449 159.524 24.3124C158.291 24.8339 156.941 25.0886 155.484 25.0886C153.618 25.0886 151.928 24.6959 150.436 23.8907L150.428 23.8862C148.943 23.0612 147.777 21.9217 146.947 20.4747C146.115 19.0249 145.707 17.3948 145.707 15.6042C145.707 13.8214 146.09 12.1974 146.873 10.7505L146.877 10.742C147.68 9.30126 148.787 8.16918 150.19 7.36074ZM154.931 9.67416C153.866 9.67416 152.929 9.92439 152.103 10.4127L152.098 10.4155C151.295 10.8824 150.656 11.5452 150.178 12.4241C149.754 13.22 149.519 14.1494 149.492 15.2302L159.878 13.2145C159.584 12.2903 159.071 11.5197 158.333 10.8874L158.326 10.8815C157.417 10.0838 156.302 9.67416 154.931 9.67416Z" fill="#12201C"/>
<path fill-rule="evenodd" clip-rule="evenodd" d="M124.808 8.30885C124.808 7.70209 125.3 7.21021 125.907 7.21021H138.524C139.131 7.21021 139.623 7.70208 139.623 8.30885V9.21327C139.623 9.45951 139.54 9.69861 139.388 9.89221L129.584 22.3645H138.752C139.358 22.3645 139.85 22.8564 139.85 23.4631V24.5029C139.85 25.1097 139.358 25.6015 138.752 25.6015H125.712C125.105 25.6015 124.613 25.1097 124.613 24.5029V23.5666C124.613 23.3194 124.697 23.0794 124.85 22.8855L134.677 10.4473H125.907C125.3 10.4473 124.808 9.95537 124.808 9.34861V8.30885Z" fill="#12201C"/>
<path fill-rule="evenodd" clip-rule="evenodd" d="M114.715 0.648691C115.148 0.216288 115.69 0 116.307 0C116.92 0 117.46 0.214058 117.892 0.642014C118.32 1.04536 118.547 1.55567 118.547 2.1428C118.547 2.75942 118.331 3.30207 117.898 3.73447C117.466 4.16688 116.923 4.38316 116.307 4.38316C115.69 4.38316 115.148 4.16687 114.715 3.73447C114.288 3.30743 114.066 2.77795 114.066 2.17532C114.066 1.5865 114.294 1.06997 114.715 0.648691ZM114.587 8.01309C114.587 7.467 115.029 7.02431 115.576 7.02431H117.005C117.552 7.02431 117.994 7.467 117.994 8.01309V24.2397C117.994 24.7857 117.552 25.2284 117.005 25.2284H115.576C115.029 25.2284 114.587 24.7857 114.587 24.2397V8.01309Z" fill="#12201C"/>
<path fill-rule="evenodd" clip-rule="evenodd" d="M83.8928 7.92633C85.0484 7.32542 86.3665 7.03125 87.8354 7.03125C89.3286 7.03125 90.6432 7.34831 91.7623 8.00067C92.6411 8.50319 93.3494 9.19304 93.8831 10.0644C93.8909 10.0771 93.9149 10.0993 93.9639 10.1017C94.0127 10.1041 94.0374 10.0844 94.0455 10.0736C94.6651 9.24258 95.4544 8.57141 96.4066 8.05982C97.6705 7.3707 99.0989 7.03125 100.681 7.03125C102.914 7.03125 104.718 7.67686 106.033 9.01496C107.378 10.3602 108.014 12.3104 108.014 14.7877V24.2492C108.014 24.7347 107.621 25.2336 107.136 25.2336H105.706C105.22 25.2336 104.827 24.7347 104.827 24.2492V15.0153C104.827 13.3044 104.41 12.0731 103.643 11.2497L103.64 11.2456C102.897 10.4265 101.825 9.99144 100.356 9.99144C98.6762 9.99144 97.4042 10.5094 96.4836 11.5083L96.4807 11.5115C95.559 12.492 95.0715 13.8788 95.0715 15.7308V24.2492C95.0715 24.7347 94.678 25.2336 94.1926 25.2336H92.7626C92.2772 25.2336 91.8837 24.7347 91.8837 24.2492V15.0153C91.8837 13.3044 91.4666 12.0731 90.7005 11.2497L90.6968 11.2456C89.955 10.4278 88.8729 9.99144 87.3801 9.99144C85.7246 9.99144 84.4496 10.5082 83.5052 11.5115C82.5835 12.492 82.096 13.8788 82.096 15.7308V24.2492C82.096 24.7347 81.7025 25.2336 81.2171 25.2336H79.7871C79.3017 25.2336 78.9082 24.7347 78.9082 24.2492V8.04025C78.9082 7.55484 79.3017 7.16133 79.7871 7.16133H81.1196C81.605 7.16133 81.9985 7.55483 81.9985 8.04025V9.09356L81.9998 9.09517C82.0084 9.10505 82.0315 9.12384 82.0723 9.13738C82.1127 9.15075 82.1542 9.15343 82.187 9.14797C82.2183 9.14278 82.2323 9.13229 82.238 9.1266C82.7174 8.65018 83.2698 8.25029 83.8928 7.92633Z" fill="#12201C"/>
<path fill-rule="evenodd" clip-rule="evenodd" d="M69.8246 0.584334C70.2141 0.19481 70.7001 0 71.2609 0C71.8197 0 72.3043 0.193474 72.6931 0.580322C73.0805 0.943698 73.2815 1.39734 73.2815 1.92307C73.2815 2.48382 73.0867 2.96984 72.6972 3.35937C72.3076 3.74889 71.8216 3.9437 71.2609 3.9437C70.7001 3.9437 70.2141 3.74889 69.8246 3.35937C69.4383 2.97306 69.2402 2.49928 69.2402 1.95559C69.2402 1.42886 69.4417 0.967184 69.8246 0.584334ZM69.7606 7.79336C69.7606 7.36862 70.1049 7.02431 70.5296 7.02431H71.9596C72.3843 7.02431 72.7287 7.36862 72.7287 7.79336V24.0199C72.7287 24.4447 72.3843 24.789 71.9596 24.789H70.5296C70.1049 24.789 69.7606 24.4447 69.7606 24.0199V7.79336Z" fill="#12201C"/>
<path fill-rule="evenodd" clip-rule="evenodd" d="M54.2988 4.17506C54.2988 3.811 54.594 3.51587 54.958 3.51587H56.388C56.7521 3.51587 57.0472 3.811 57.0472 4.17506V7.03593C57.0472 7.15728 57.1456 7.25566 57.2669 7.25566H61.5587C61.9227 7.25566 62.2179 7.55079 62.2179 7.91485V8.98713C62.2179 9.35119 61.9227 9.64632 61.5587 9.64632H57.2669C57.1456 9.64632 57.0472 9.74469 57.0472 9.86605V19.6378C57.0472 20.6219 57.2875 21.3408 57.7356 21.8289C58.1806 22.2922 58.8411 22.54 59.7543 22.54C60.53 22.54 61.1788 22.3709 61.7105 22.0431C62.0463 21.8362 62.5474 21.906 62.7442 22.3075L63.155 23.1455C63.2827 23.406 63.2297 23.7377 62.9811 23.9267C62.5787 24.2326 62.1115 24.4759 61.582 24.6585L61.5755 24.6608C60.9246 24.8628 60.2413 24.9632 59.5266 24.9632C57.8827 24.9632 56.5839 24.518 55.664 23.5981C54.7446 22.6786 54.2988 21.3911 54.2988 19.7679V4.17506Z" fill="#12201C"/>
<path d="M12.6529 25.7909C10.3982 25.7909 8.34941 25.2923 6.50662 24.295C4.6855 23.276 3.25462 21.8885 2.21398 20.1324C1.19503 18.3764 0.685547 16.4035 0.685547 14.2138C0.685547 12.0241 1.19503 10.0513 2.21398 8.29519C3.25462 6.53911 4.6855 5.16243 6.50662 4.16516C8.34941 3.1462 10.3982 2.63672 12.6529 2.63672C14.9076 2.63672 16.9347 3.13536 18.7341 4.13264C20.5552 5.12991 21.9861 6.51743 23.0267 8.29519C24.0674 10.0513 24.5877 12.0241 24.5877 14.2138C24.5877 16.4035 24.0674 18.3872 23.0267 20.165C21.9861 21.921 20.5552 23.2977 18.7341 24.295C16.9347 25.2923 14.9076 25.7909 12.6529 25.7909ZM12.6529 23.6446C14.4523 23.6446 16.0783 23.2435 17.5309 22.4414C18.9834 21.6175 20.1216 20.4902 20.9455 19.0593C21.7693 17.6067 22.1812 15.9916 22.1812 14.2138C22.1812 12.4361 21.7693 10.8317 20.9455 9.40087C20.1216 7.94831 18.9834 6.82095 17.5309 6.01879C16.0783 5.19495 14.4523 4.78303 12.6529 4.78303C10.8534 4.78303 9.21661 5.19495 7.74237 6.01879C6.28982 6.82095 5.14078 7.94831 4.29526 9.40087C3.47142 10.8317 3.0595 12.4361 3.0595 14.2138C3.0595 15.9916 3.47142 17.6067 4.29526 19.0593C5.14078 20.4902 6.28982 21.6175 7.74237 22.4414C9.21661 23.2435 10.8534 23.6446 12.6529 23.6446Z" fill="#12201C"/>
<path fill-rule="evenodd" clip-rule="evenodd" d="M35.5699 7.95453C36.7363 7.33832 38.0442 7.03125 39.4911 7.03125C41.1127 7.03125 42.584 7.40393 43.9023 8.15086C45.2213 8.87643 46.2548 9.91027 47.0016 11.2502C47.7489 12.5909 48.1212 14.1164 48.1212 15.8239C48.1212 17.5529 47.749 19.0893 47.0016 20.4302C46.2548 21.7701 45.2215 22.8145 43.903 23.5617C42.6057 24.2873 41.1338 24.6491 39.4911 24.6491C38.0883 24.6491 36.8138 24.3641 35.6697 23.792L35.6674 23.7909C34.9796 23.4267 34.3659 22.9633 33.8269 22.4008C33.711 22.2799 33.5289 22.252 33.3682 22.3063C33.2083 22.3604 33.097 22.4855 33.097 22.6453V30.2461C33.097 30.5495 32.8511 30.7954 32.5477 30.7954H31.1177C30.8143 30.7954 30.5684 30.5495 30.5684 30.2461V7.71065C30.5684 7.40727 30.8143 7.16133 31.1177 7.16133H32.4501C32.7535 7.16133 32.9994 7.40727 32.9994 7.71065V9.10064C32.9994 9.26164 33.1142 9.38881 33.2801 9.44356C33.4467 9.49852 33.6338 9.46889 33.7501 9.34579C34.2777 8.78743 34.885 8.32335 35.5699 7.95453ZM36.0994 10.0977C35.1636 10.6509 34.4185 11.4273 33.8639 12.4297C33.332 13.4085 33.0645 14.5389 33.0645 15.8239C33.0645 17.1087 33.3319 18.2502 33.8642 19.2512C34.4186 20.2531 35.1633 21.0292 36.0986 21.5822C37.0562 22.1139 38.132 22.3807 39.3285 22.3807C40.5033 22.3807 41.5684 22.1139 42.5264 21.5819C43.4833 21.0288 44.2275 20.2529 44.7599 19.252L44.7608 19.2504C45.3144 18.2495 45.5926 17.1083 45.5926 15.8239C45.5926 14.5395 45.3144 13.4095 44.7613 12.4309L44.7599 12.4284C44.2273 11.4272 43.4829 10.6511 42.5256 10.098C41.5676 9.54454 40.5028 9.26722 39.3285 9.26722C38.1324 9.26722 37.0569 9.54463 36.0994 10.0977Z" fill="#12201C"/>
<path fill-rule="evenodd" clip-rule="evenodd" d="M192.433 26.5517C192.352 26.6636 192.432 26.8197 192.57 26.8197H200.123C200.18 26.8197 200.233 26.7912 200.264 26.7437L205.114 19.3906C205.181 19.2897 205.329 19.2892 205.396 19.3896L210.325 26.7447C210.357 26.7916 210.409 26.8197 210.466 26.8197H218.091C218.229 26.8197 218.309 26.6638 218.228 26.5519L209.258 14.052L205.449 9.2605L200.547 2.19359C200.515 2.14803 200.463 2.12085 200.408 2.12085H192.954C192.817 2.12085 192.737 2.27561 192.816 2.38766L201.175 14.2146C201.216 14.2735 201.216 14.3524 201.174 14.411L192.433 26.5517ZM208.583 2.12085H218.849C218.942 2.12085 219.018 2.19659 219.018 2.29002V9.50003C219.018 9.59346 218.942 9.6692 218.849 9.6692H211.319C211.271 9.6692 211.225 9.68994 211.192 9.72618L208.709 12.5283C208.606 12.6448 208.413 12.5718 208.413 12.4161V9.6692V2.29002C208.413 2.19659 208.489 2.12085 208.583 2.12085Z" fill="#12201C"/>
<path d="M220.992 6.7688H223.147C223.24 6.7688 223.316 6.84454 223.316 6.93797V17.2271L220.411 14.0091H213.027C212.933 14.0091 212.857 13.9334 212.857 13.84V11.5957" stroke="#12201C" stroke-width="0.845864" stroke-linecap="square" stroke-linejoin="round"/>
<path fill-rule="evenodd" clip-rule="evenodd" d="M190.829 2.86521L190.404 2.26383C190.34 2.17416 190.237 2.12085 190.127 2.12085H188.111C188.018 2.12085 187.942 2.19659 187.942 2.29002V15.5994C187.942 17.7164 187.53 19.2336 186.707 20.151C185.884 21.0684 184.743 21.5271 183.285 21.5271C181.826 21.5271 180.673 21.0684 179.827 20.151C179.003 19.2336 178.592 17.7164 178.592 15.5994V2.29002C178.592 2.19659 178.516 2.12085 178.423 2.12085H171.775C171.681 2.12085 171.605 2.19659 171.605 2.29002V15.8111C171.605 19.4806 172.629 22.3151 174.675 24.3145C176.722 26.314 179.568 27.3137 183.214 27.3137C186.86 27.3137 189.706 26.314 191.753 24.3145C193.799 22.3151 194.822 19.4806 194.822 15.8111V8.67335C194.822 8.58392 194.799 8.49637 194.754 8.41941L190.829 2.86521Z" fill="#12201C"/>
</svg>
