<svg width="224" height="32" viewBox="0 0 224 32" fill="none" xmlns="http://www.w3.org/2000/svg">
<path fill-rule="evenodd" clip-rule="evenodd" d="M149.504 8.15567C150.912 7.34457 152.499 6.94727 154.246 6.94727C155.884 6.94727 157.383 7.323 158.722 8.0878C160.077 8.84865 161.15 9.9104 161.933 11.2616C162.678 12.5121 163.094 13.916 163.191 15.4582C163.23 16.0752 162.795 16.5933 162.222 16.7048L149.44 19.1901C149.841 20.0372 150.417 20.7242 151.173 21.2635C152.176 21.9427 153.384 22.2967 154.831 22.2967C155.801 22.2967 156.674 22.1291 157.459 21.8042C158.121 21.5201 158.691 21.1358 159.178 20.6514C159.653 20.1774 160.487 20.1325 160.982 20.7023L161.702 21.5308C162.085 21.9708 162.115 22.6561 161.686 23.1205C160.896 23.9777 159.943 24.6398 158.838 25.1073C157.605 25.6288 156.255 25.8835 154.799 25.8835C152.932 25.8835 151.243 25.4908 149.75 24.6856L149.742 24.6811C148.257 23.8561 147.092 22.7167 146.262 21.2696C145.43 19.8198 145.021 18.1897 145.021 16.3991C145.021 14.6164 145.405 12.9923 146.187 11.5455L146.192 11.5369C146.995 10.0962 148.101 8.9641 149.504 8.15567ZM154.246 10.4691C153.18 10.4691 152.244 10.7193 151.417 11.2076L151.413 11.2104C150.61 11.6773 149.97 12.3401 149.492 13.219C149.068 14.0149 148.833 14.9443 148.806 16.0251L159.193 14.0094C158.898 13.0852 158.385 12.3146 157.648 11.6823L157.641 11.6765C156.732 10.8787 155.616 10.4691 154.246 10.4691Z" fill="white"/>
<path fill-rule="evenodd" clip-rule="evenodd" d="M124.123 9.10353C124.123 8.49676 124.615 8.00488 125.222 8.00488H137.838C138.445 8.00488 138.937 8.49676 138.937 9.10353V10.0079C138.937 10.2542 138.854 10.4933 138.702 10.6869L128.898 23.1592H138.066C138.673 23.1592 139.165 23.6511 139.165 24.2578V25.2976C139.165 25.9043 138.673 26.3962 138.066 26.3962H125.026C124.42 26.3962 123.928 25.9043 123.928 25.2976V24.3613C123.928 24.1141 124.011 23.8741 124.164 23.6802L133.991 11.2419H125.221C124.615 11.2419 124.123 10.7501 124.123 10.1433V9.10353Z" fill="white"/>
<path fill-rule="evenodd" clip-rule="evenodd" d="M114.03 1.44361C114.462 1.01121 115.005 0.794922 115.621 0.794922C116.235 0.794922 116.775 1.00898 117.206 1.43694C117.635 1.84029 117.862 2.35059 117.862 2.93772C117.862 3.55434 117.645 4.09699 117.213 4.52939C116.78 4.9618 116.238 5.17808 115.621 5.17808C115.005 5.17808 114.462 4.96179 114.03 4.52939C113.603 4.10235 113.381 3.57287 113.381 2.97024C113.381 2.38142 113.608 1.86489 114.03 1.44361ZM113.901 8.80801C113.901 8.26192 114.344 7.81923 114.89 7.81923H116.32C116.866 7.81923 117.309 8.26192 117.309 8.80801V25.0346C117.309 25.5807 116.866 26.0234 116.32 26.0234H114.89C114.344 26.0234 113.901 25.5807 113.901 25.0346V8.80801Z" fill="white"/>
<path fill-rule="evenodd" clip-rule="evenodd" d="M83.2073 8.72125C84.3629 8.12034 85.6809 7.82617 87.1498 7.82617C88.6431 7.82617 89.9577 8.14324 91.0768 8.79559C91.9556 9.29811 92.6638 9.98796 93.1975 10.8593C93.2053 10.8721 93.2294 10.8943 93.2784 10.8966C93.3272 10.899 93.3518 10.8794 93.3599 10.8685C93.9796 10.0375 94.7688 9.36633 95.721 8.85474C96.985 8.16562 98.4134 7.82617 99.9952 7.82617C102.229 7.82617 104.032 8.47179 105.348 9.80988C106.692 11.1551 107.329 13.1053 107.329 15.5826V25.0442C107.329 25.5296 106.935 26.0286 106.45 26.0286H105.02C104.535 26.0286 104.141 25.5296 104.141 25.0442V15.8103C104.141 14.0993 103.724 12.8681 102.958 12.0446L102.954 12.0405C102.211 11.2215 101.139 10.7864 99.67 10.7864C97.9906 10.7864 96.7186 11.3043 95.7981 12.3032L95.7951 12.3064C94.8734 13.287 94.3859 14.6737 94.3859 16.5257V25.0442C94.3859 25.5296 93.9924 26.0286 93.507 26.0286H92.077C91.5916 26.0286 91.1981 25.5296 91.1981 25.0442V15.8103C91.1981 14.0993 90.781 12.8681 90.015 12.0446L90.0112 12.0405C89.2695 11.2227 88.1874 10.7864 86.6945 10.7864C85.039 10.7864 83.764 11.3031 82.8197 12.3064C81.898 13.2869 81.4105 14.6737 81.4105 16.5257V25.0442C81.4105 25.5296 81.017 26.0286 80.5316 26.0286H79.1016C78.6162 26.0286 78.2227 25.5296 78.2227 25.0442V8.83517C78.2227 8.34976 78.6162 7.95625 79.1016 7.95625H80.434C80.9194 7.95625 81.3129 8.34976 81.3129 8.83517V9.88848L81.3143 9.8901C81.3229 9.89997 81.3459 9.91876 81.3868 9.9323C81.4271 9.94567 81.4686 9.94836 81.5015 9.9429C81.5327 9.9377 81.5468 9.92722 81.5525 9.92153C82.0319 9.44511 82.5843 9.04521 83.2073 8.72125Z" fill="white"/>
<path fill-rule="evenodd" clip-rule="evenodd" d="M69.139 1.37926C69.5285 0.989732 70.0146 0.794922 70.5753 0.794922C71.1341 0.794922 71.6187 0.988396 72.0076 1.37524C72.3949 1.73862 72.5959 2.19226 72.5959 2.71799C72.5959 3.27875 72.4011 3.76477 72.0116 4.15429C71.6221 4.54381 71.1361 4.73862 70.5753 4.73862C70.0146 4.73862 69.5285 4.54381 69.139 4.15429C68.7527 3.76798 68.5547 3.2942 68.5547 2.75051C68.5547 2.22379 68.7562 1.76211 69.139 1.37926ZM69.075 8.58828C69.075 8.16355 69.4193 7.81923 69.8441 7.81923H71.2741C71.6988 7.81923 72.0431 8.16354 72.0431 8.58828V24.8148C72.0431 25.2396 71.6988 25.5839 71.2741 25.5839H69.8441C69.4193 25.5839 69.075 25.2396 69.075 24.8148V8.58828Z" fill="white"/>
<path fill-rule="evenodd" clip-rule="evenodd" d="M53.6133 4.96973C53.6133 4.60567 53.9084 4.31055 54.2725 4.31055H55.7025C56.0665 4.31055 56.3617 4.60568 56.3617 4.96973V7.83061C56.3617 7.95196 56.46 8.05034 56.5814 8.05034H60.8731C61.2372 8.05034 61.5323 8.34547 61.5323 8.70953V9.78181C61.5323 10.1459 61.2372 10.441 60.8731 10.441H56.5814C56.46 10.441 56.3617 10.5394 56.3617 10.6607V20.4325C56.3617 21.4165 56.602 22.1355 57.0501 22.6236C57.4951 23.0869 58.1556 23.3347 59.0687 23.3347C59.8445 23.3347 60.4932 23.1655 61.025 22.8378C61.3607 22.6308 61.8619 22.7007 62.0587 23.1021L62.4695 23.9402C62.5972 24.2007 62.5442 24.5324 62.2956 24.7213C61.8931 25.0272 61.4259 25.2706 60.8964 25.4532L60.89 25.4554C60.239 25.6574 59.5557 25.7579 58.8411 25.7579C57.1972 25.7579 55.8984 25.3127 54.9784 24.3927C54.059 23.4733 53.6133 22.1858 53.6133 20.5626V4.96973Z" fill="white"/>
<path d="M11.9673 26.5858C9.71262 26.5858 7.66386 26.0872 5.82107 25.0899C3.99995 24.071 2.56907 22.6834 1.52844 20.9274C0.509479 19.1713 0 17.1984 0 15.0087C0 12.8191 0.509479 10.8462 1.52844 9.09011C2.56907 7.33403 3.99995 5.95736 5.82107 4.96008C7.66386 3.94112 9.71262 3.43164 11.9673 3.43164C14.2221 3.43164 16.2491 3.93028 18.0486 4.92756C19.8697 5.92484 21.3006 7.31235 22.3412 9.09011C23.3818 10.8462 23.9022 12.8191 23.9022 15.0087C23.9022 17.1984 23.3818 19.1821 22.3412 20.9599C21.3006 22.716 19.8697 24.0926 18.0486 25.0899C16.2491 26.0872 14.2221 26.5858 11.9673 26.5858ZM11.9673 24.4395C13.7668 24.4395 15.3928 24.0384 16.8453 23.2363C18.2979 22.4124 19.4361 21.2851 20.2599 19.8542C21.0838 18.4017 21.4957 16.7865 21.4957 15.0087C21.4957 13.231 21.0838 11.6267 20.2599 10.1958C19.4361 8.74323 18.2979 7.61587 16.8453 6.81371C15.3928 5.98987 13.7668 5.57796 11.9673 5.57796C10.1679 5.57796 8.53106 5.98987 7.05683 6.81371C5.60427 7.61587 4.45523 8.74323 3.60971 10.1958C2.78587 11.6267 2.37396 13.231 2.37396 15.0087C2.37396 16.7865 2.78587 18.4017 3.60971 19.8542C4.45523 21.2851 5.60427 22.4124 7.05683 23.2363C8.53106 24.0384 10.1679 24.4395 11.9673 24.4395Z" fill="white"/>
<path fill-rule="evenodd" clip-rule="evenodd" d="M34.8844 8.74945C36.0508 8.13324 37.3587 7.82617 38.8056 7.82617C40.4272 7.82617 41.8984 8.19885 43.2168 8.94578C44.5357 9.67135 45.5693 10.7052 46.3161 12.0451C47.0634 13.3858 47.4357 14.9113 47.4357 16.6189C47.4357 18.3478 47.0635 19.8843 46.3161 21.2251C45.5693 22.565 44.536 23.6094 43.2174 24.3566C41.9202 25.0822 40.4482 25.4441 38.8056 25.4441C37.4027 25.4441 36.1282 25.159 34.9841 24.5869L34.9818 24.5858C34.294 24.2217 33.6804 23.7582 33.1413 23.1957C33.0254 23.0748 32.8433 23.0469 32.6827 23.1013C32.5228 23.1554 32.4115 23.2805 32.4115 23.4402V31.041C32.4115 31.3444 32.1655 31.5903 31.8621 31.5903H30.4321C30.1288 31.5903 29.8828 31.3444 29.8828 31.041V8.50557C29.8828 8.20219 30.1288 7.95625 30.4321 7.95625H31.7646C32.068 7.95625 32.3139 8.20219 32.3139 8.50557V9.89556C32.3139 10.0566 32.4286 10.1837 32.5945 10.2385C32.7611 10.2934 32.9483 10.2638 33.0646 10.1407C33.5922 9.58235 34.1994 9.11827 34.8844 8.74945ZM35.4139 10.8927C34.478 11.4458 33.733 12.2222 33.1784 13.2246C32.6465 14.2035 32.3789 15.3339 32.3789 16.6189C32.3789 17.9036 32.6464 19.0451 33.1786 20.0461C33.733 21.048 34.4778 21.8241 35.4131 22.3771C36.3706 22.9088 37.4464 23.1756 38.643 23.1756C39.8177 23.1756 40.8829 22.9089 41.8409 22.3768C42.7978 21.8237 43.5419 21.0479 44.0744 20.0469L44.0752 20.0453C44.6289 19.0445 44.907 17.9033 44.907 16.6189C44.907 15.3344 44.6289 14.2045 44.0757 13.2258L44.0743 13.2234C43.5418 12.2221 42.7973 11.446 41.84 10.8929C40.8821 10.3395 39.8172 10.0621 38.643 10.0621C37.4468 10.0621 36.3714 10.3396 35.4139 10.8927Z" fill="white"/>
<path fill-rule="evenodd" clip-rule="evenodd" d="M191.747 27.3469C191.666 27.4588 191.746 27.6149 191.884 27.6149H199.437C199.494 27.6149 199.547 27.5863 199.578 27.5389L204.429 20.1858C204.495 20.0849 204.643 20.0843 204.711 20.1848L209.64 27.5399C209.671 27.5868 209.724 27.6149 209.78 27.6149H217.405C217.543 27.6149 217.623 27.459 217.543 27.3471L208.573 14.8472L204.763 10.0557L199.861 2.98876C199.829 2.9432 199.777 2.91602 199.722 2.91602H192.269C192.132 2.91602 192.052 3.07077 192.131 3.18283L200.489 15.0097C200.531 15.0687 200.53 15.1476 200.488 15.2062L191.747 27.3469ZM207.897 2.91602H218.163C218.257 2.91602 218.333 2.99176 218.333 3.08519V10.2952C218.333 10.3886 218.257 10.4644 218.163 10.4644H210.633C210.585 10.4644 210.539 10.4851 210.507 10.5213L208.024 13.3235C207.92 13.44 207.728 13.367 207.728 13.2113V10.4644V3.08519C207.728 2.99176 207.804 2.91602 207.897 2.91602Z" fill="white"/>
<path d="M220.306 7.56445H222.461C222.554 7.56445 222.63 7.64019 222.63 7.73363V18.0227L219.725 14.8048H212.341C212.248 14.8048 212.172 14.7291 212.172 14.6356V12.3914" stroke="#F6EBEE" stroke-width="0.845864" stroke-linecap="square" stroke-linejoin="round"/>
<path fill-rule="evenodd" clip-rule="evenodd" d="M190.143 3.66037L189.718 3.059C189.655 2.96933 189.552 2.91602 189.442 2.91602H187.426C187.332 2.91602 187.256 2.99176 187.256 3.08519V16.3945C187.256 18.5116 186.845 20.0288 186.022 20.9462C185.198 21.8636 184.057 22.3223 182.599 22.3223C181.141 22.3223 179.988 21.8636 179.141 20.9462C178.318 20.0288 177.906 18.5116 177.906 16.3945V3.08519C177.906 2.99176 177.83 2.91602 177.737 2.91602H171.089C170.996 2.91602 170.92 2.99176 170.92 3.08519V16.6062C170.92 20.2758 171.943 23.1103 173.99 25.1097C176.036 27.1091 178.882 28.1089 182.528 28.1089C186.174 28.1089 189.021 27.1091 191.067 25.1097C193.114 23.1103 194.137 20.2758 194.137 16.6062V9.46852C194.137 9.37909 194.113 9.29153 194.069 9.21457L190.143 3.66037Z" fill="white"/>
</svg>
