<svg width="48" height="49" viewBox="0 0 48 49" fill="none" xmlns="http://www.w3.org/2000/svg">
<path d="M20 44.7949C15.7565 44.7949 11.6869 43.1092 8.68629 40.1086C5.68571 37.108 4 33.0384 4 28.7949" stroke="#12201C" stroke-width="4" stroke-linecap="round" stroke-linejoin="round"/>
<path d="M26 36.7949H28C29.0609 36.7949 30.0783 36.3735 30.8284 35.6233C31.5786 34.8732 32 33.8558 32 32.7949C32 31.7341 31.5786 30.7166 30.8284 29.9665C30.0783 29.2164 29.0609 28.7949 28 28.7949" stroke="#12201C" stroke-width="4" stroke-linecap="round" stroke-linejoin="round"/>
<path d="M28 28.7949H30C31.0609 28.7949 32.0783 28.3735 32.8284 27.6233C33.5786 26.8732 34 25.8558 34 24.7949C34 23.7341 33.5786 22.7166 32.8284 21.9665C32.0783 21.2164 31.0609 20.7949 30 20.7949H28" stroke="#12201C" stroke-width="4" stroke-linecap="round" stroke-linejoin="round"/>
<path d="M29 20.7949H40C41.0609 20.7949 42.0783 20.3735 42.8284 19.6233C43.5786 18.8732 44 17.8558 44 16.7949C44 15.7341 43.5786 14.7166 42.8284 13.9665C42.0783 13.2163 41.0609 12.7949 40 12.7949L20 12.7949" stroke="#12201C" stroke-width="4" stroke-linecap="round" stroke-linejoin="round"/>
<path d="M26 36.7951C27.0609 36.7951 28.0783 37.2166 28.8284 37.9667C29.5786 38.7168 30 39.7343 30 40.7951C30 41.856 29.5786 42.8734 28.8284 43.6236C28.0783 44.3737 27.0609 44.7951 26 44.7951H20C15.7565 44.7951 11.6869 43.1094 8.68629 40.1088C5.68571 37.1083 4 33.0386 4 28.7951V24.7951C4 19.1951 5.72 15.7951 8.68 12.8151L15.88 5.61513C16.6421 4.927 17.6397 4.5583 18.6661 4.58538C19.6926 4.61245 20.6693 5.03322 21.3941 5.76057C22.1189 6.48792 22.5362 7.46613 22.5596 8.49267C22.583 9.51921 22.2108 10.5155 21.52 11.2751L18 14.7951" stroke="#12201C" stroke-width="4" stroke-linecap="round" stroke-linejoin="round"/>
</svg>
