<svg width="48" height="49" viewBox="0 0 48 49" fill="none" xmlns="http://www.w3.org/2000/svg">
<path d="M6 24.7954C6 28.3555 7.05568 31.8356 9.03355 34.7957C11.0114 37.7558 13.8226 40.0629 17.1117 41.4252C20.4008 42.7876 24.02 43.1441 27.5116 42.4495C31.0033 41.755 34.2106 40.0407 36.7279 37.5233C39.2453 35.006 40.9596 31.7987 41.6541 28.307C42.3487 24.8154 41.9922 21.1962 40.6298 17.9071C39.2675 14.618 36.9603 11.8068 34.0003 9.82896C31.0402 7.85109 27.5601 6.79541 24 6.79541C18.9679 6.81434 14.1379 8.77786 10.52 12.2754L6 16.7954" stroke="#12201C" stroke-width="4" stroke-linecap="round" stroke-linejoin="round"/>
<path d="M6 6.79541V16.7954H16" stroke="#12201C" stroke-width="4" stroke-linecap="round" stroke-linejoin="round"/>
</svg>
