<svg width="157" height="33" viewBox="0 0 157 33" fill="none" xmlns="http://www.w3.org/2000/svg">
<path d="M35.871 23.09C34.665 23.09 33.4962 22.9188 32.3647 22.5764C31.248 22.2339 30.3621 21.7798 29.707 21.214L30.712 18.9584C31.3522 19.4646 32.1339 19.8815 33.057 20.209C33.995 20.5217 34.933 20.678 35.871 20.678C37.0323 20.678 37.8959 20.4919 38.4617 20.1197C39.0423 19.7475 39.3327 19.2562 39.3327 18.6457C39.3327 18.199 39.1689 17.8343 38.8413 17.5514C38.5287 17.2536 38.1267 17.0228 37.6353 16.859C37.144 16.6953 36.474 16.5092 35.6253 16.3007C34.4342 16.0178 33.4665 15.7349 32.722 15.4521C31.9925 15.1692 31.3597 14.7299 30.8237 14.1344C30.3026 13.5239 30.042 12.7051 30.042 11.6777C30.042 10.8142 30.2728 10.0325 30.7344 9.33274C31.2108 8.61807 31.918 8.05229 32.856 7.63541C33.8089 7.21852 34.9702 7.01007 36.34 7.01007C37.2929 7.01007 38.2309 7.12919 39.154 7.36741C40.0771 7.60563 40.8737 7.94807 41.5437 8.39474L40.628 10.6504C39.9431 10.2484 39.2284 9.94318 38.484 9.73473C37.7396 9.52629 37.0175 9.42207 36.3177 9.42207C35.1712 9.42207 34.3151 9.61562 33.7494 10.0027C33.1985 10.3898 32.923 10.9035 32.923 11.5437C32.923 11.9904 33.0794 12.3552 33.392 12.6381C33.7196 12.9209 34.129 13.1443 34.6204 13.3081C35.1117 13.4718 35.7817 13.6579 36.6303 13.8664C37.7917 14.1344 38.7446 14.4173 39.489 14.7151C40.2334 14.9979 40.8662 15.4372 41.3873 16.0327C41.9233 16.6283 42.1913 17.4323 42.1913 18.4447C42.1913 19.3083 41.9531 20.0899 41.4767 20.7897C41.0151 21.4895 40.3079 22.0478 39.355 22.4647C38.4021 22.8816 37.2408 23.09 35.871 23.09Z" fill="white"/>
<path d="M51.5692 10.8067C53.073 10.8067 54.279 11.246 55.1872 12.1244C56.0954 13.0028 56.5495 14.3056 56.5495 16.0327V22.8667H53.7579V16.39C53.7579 15.3478 53.5122 14.5662 53.0209 14.0451C52.5295 13.5091 51.8298 13.2411 50.9215 13.2411C49.8942 13.2411 49.0828 13.5537 48.4872 14.1791C47.8917 14.7895 47.5939 15.6754 47.5939 16.8367V22.8667H44.8022V10.9407H47.4599V12.4817C47.9214 11.9308 48.5021 11.514 49.2019 11.2311C49.9017 10.9482 50.6908 10.8067 51.5692 10.8067Z" fill="white"/>
<path d="M71.8579 10.9407V22.8667H69.2003V21.3257C68.7387 21.8915 68.1655 22.3158 67.4806 22.5987C66.8106 22.8816 66.0662 23.023 65.2473 23.023C64.086 23.023 63.0437 22.7699 62.1206 22.2637C61.2124 21.7575 60.4977 21.0428 59.9766 20.1197C59.4704 19.1966 59.2173 18.1246 59.2173 16.9037C59.2173 15.6828 59.4704 14.6183 59.9766 13.7101C60.4977 12.7869 61.2124 12.0723 62.1206 11.5661C63.0437 11.0598 64.086 10.8067 65.2473 10.8067C66.0215 10.8067 66.7287 10.9407 67.3689 11.2087C68.0241 11.4767 68.5898 11.8713 69.0663 12.3924V10.9407H71.8579ZM65.56 20.6334C66.5873 20.6334 67.4359 20.2909 68.1059 19.606C68.7759 18.9212 69.1109 18.0204 69.1109 16.9037C69.1109 15.787 68.7759 14.8863 68.1059 14.2014C67.4359 13.5165 66.5873 13.1741 65.56 13.1741C64.5326 13.1741 63.684 13.5165 63.014 14.2014C62.3589 14.8863 62.0313 15.787 62.0313 16.9037C62.0313 18.0204 62.3589 18.9212 63.014 19.606C63.684 20.2909 64.5326 20.6334 65.56 20.6334Z" fill="white"/>
<path d="M80.9821 23.023C79.7463 23.023 78.6371 22.7625 77.6545 22.2414C76.6718 21.7203 75.905 20.9981 75.3541 20.075C74.8032 19.137 74.5278 18.0799 74.5278 16.9037C74.5278 15.7275 74.8032 14.6778 75.3541 13.7547C75.905 12.8316 76.6644 12.1095 77.6321 11.5884C78.6148 11.0673 79.7315 10.8067 80.9821 10.8067C82.1583 10.8067 83.1857 11.045 84.0641 11.5214C84.9574 11.9978 85.6274 12.6827 86.0741 13.5761L83.9301 14.8267C83.5877 14.2758 83.1559 13.8664 82.6348 13.5984C82.1286 13.3155 81.5702 13.1741 80.9598 13.1741C79.9176 13.1741 79.054 13.5165 78.3691 14.2014C77.6842 14.8714 77.3418 15.7722 77.3418 16.9037C77.3418 18.0353 77.6768 18.9435 78.3468 19.6284C79.0317 20.2984 79.9027 20.6334 80.9598 20.6334C81.5702 20.6334 82.1286 20.4994 82.6348 20.2314C83.1559 19.9485 83.5877 19.5316 83.9301 18.9807L86.0741 20.2314C85.6126 21.1247 84.9351 21.817 84.0418 22.3084C83.1633 22.7848 82.1434 23.023 80.9821 23.023Z" fill="white"/>
<path d="M93.2469 17.7524L91.1699 19.7177V22.8667H88.3783V6.29541H91.1699V16.3007L96.9542 10.9407H100.304L95.3239 15.9434L100.773 22.8667H97.3786L93.2469 17.7524Z" fill="white"/>
<path d="M102.844 7.23341H109.678C111.346 7.23341 112.827 7.56096 114.123 8.21607C115.418 8.85629 116.423 9.77196 117.138 10.9631C117.852 12.1393 118.21 13.5016 118.21 15.0501C118.21 16.5985 117.852 17.9683 117.138 19.1594C116.423 20.3356 115.418 21.2513 114.123 21.9064C112.827 22.5466 111.346 22.8667 109.678 22.8667H102.844V7.23341ZM109.544 20.41C110.691 20.41 111.696 20.1941 112.559 19.7624C113.438 19.3157 114.108 18.6904 114.569 17.8864C115.046 17.0675 115.284 16.122 115.284 15.0501C115.284 13.9781 115.046 13.0401 114.569 12.2361C114.108 11.4172 113.438 10.7918 112.559 10.3601C111.696 9.9134 110.691 9.69007 109.544 9.69007H105.748V20.41H109.544Z" fill="white"/>
<path d="M132.574 10.9407V22.8667H129.916V21.348C129.47 21.884 128.911 22.3009 128.241 22.5987C127.571 22.8816 126.849 23.023 126.075 23.023C124.482 23.023 123.224 22.5838 122.301 21.7054C121.392 20.812 120.938 19.4944 120.938 17.7524V10.9407H123.73V17.3727C123.73 18.4447 123.968 19.2487 124.445 19.7847C124.936 20.3058 125.628 20.5664 126.522 20.5664C127.519 20.5664 128.308 20.2611 128.889 19.6507C129.484 19.0254 129.782 18.132 129.782 16.9707V10.9407H132.574Z" fill="white"/>
<path d="M142.929 22.219C142.601 22.487 142.199 22.688 141.723 22.822C141.261 22.956 140.77 23.023 140.249 23.023C138.939 23.023 137.926 22.6806 137.212 21.9957C136.497 21.3108 136.14 20.3133 136.14 19.003V8.3054H138.931V11.0301H142.125V13.2634H138.931V18.936C138.931 19.5167 139.073 19.9634 139.356 20.276C139.653 20.5738 140.063 20.7227 140.584 20.7227C141.209 20.7227 141.73 20.5589 142.147 20.2314L142.929 22.219Z" fill="white"/>
<path d="M156.783 10.9407V21.0577C156.783 25.2564 154.721 27.3557 150.596 27.3557C149.51 27.3557 148.467 27.2068 147.47 26.909C146.487 26.6261 145.676 26.2092 145.036 25.6584L146.286 23.559C146.792 23.9908 147.41 24.3332 148.14 24.5864C148.869 24.8395 149.636 24.966 150.44 24.966C151.661 24.966 152.554 24.6682 153.12 24.0727C153.701 23.492 153.991 22.5913 153.991 21.3704V20.812C153.544 21.3034 153.001 21.683 152.361 21.951C151.721 22.2041 151.028 22.3307 150.284 22.3307C148.691 22.3307 147.433 21.8915 146.509 21.013C145.601 20.1346 145.147 18.8169 145.147 17.06V10.9407H147.939V16.7027C147.939 17.7598 148.177 18.5564 148.653 19.0924C149.145 19.6135 149.837 19.874 150.73 19.874C151.728 19.874 152.517 19.5688 153.098 18.9584C153.693 18.3479 153.991 17.462 153.991 16.3007V10.9407H156.783Z" fill="white"/>
<path fill-rule="evenodd" clip-rule="evenodd" d="M7.59438 1.9209C5.84536 2.76632 4.30286 4.0913 2.97593 5.90749C1.60204 7.96233 0.927787 10.166 0.927734 12.5656C0.927734 12.5658 0.927734 12.566 0.927734 12.5662C0.92774 12.8238 0.935517 13.0837 0.951033 13.3459C1.09781 15.8263 1.92354 18.0266 3.4642 19.9639C4.0549 20.7067 4.76001 20.7482 5.42532 20.084C6.1484 19.3621 6.87142 18.6401 7.59438 17.9181V1.9209Z" fill="white"/>
<path fill-rule="evenodd" clip-rule="evenodd" d="M7.5957 17.9206V1.92232C9.1548 1.1683 10.878 0.79541 12.7589 0.79541C13.2494 0.79541 13.7506 0.820763 14.2623 0.871322V11.2591C12.0407 13.4802 9.81852 15.7007 7.5957 17.9206Z" fill="white" fill-opacity="0.7"/>
<path fill-rule="evenodd" clip-rule="evenodd" d="M14.2598 0.871094C14.2714 0.872246 14.283 0.873412 14.2947 0.874591C16.4293 1.09059 18.3591 1.92999 20.0533 3.27315C20.8286 3.88776 20.8983 4.61376 20.2027 5.30985C18.2222 7.29177 16.2412 9.27324 14.2598 11.2542V0.871094Z" fill="white" fill-opacity="0.4"/>
<path fill-rule="evenodd" clip-rule="evenodd" d="M7.59568 23.1514V32.5709C5.85349 32.2279 4.23219 31.4913 2.72039 30.3693C1.82257 29.7029 1.76705 28.9701 2.5493 28.1889C4.23102 26.5093 5.91322 24.8302 7.59568 23.1514Z" fill="white"/>
<path fill-rule="evenodd" clip-rule="evenodd" d="M7.59375 32.5715V23.1544C9.71711 21.0356 11.8409 18.9172 13.9647 16.7989L14.2604 16.5039V31.9908C13.3036 32.3542 12.2865 32.5978 11.2142 32.7337C9.95227 32.8535 8.74654 32.7987 7.59375 32.5715Z" fill="white" fill-opacity="0.7"/>
<path fill-rule="evenodd" clip-rule="evenodd" d="M14.2598 31.99V16.5018L14.4543 16.3077C15.3667 15.3977 16.2811 14.4898 17.1966 13.5829C17.961 12.8255 18.6688 12.8502 19.305 13.6956C20.7298 15.5887 21.5836 17.6947 21.7302 20.0839C21.9619 23.8596 20.7288 27.0602 17.9864 29.6541C16.8785 30.702 15.6311 31.469 14.2598 31.99Z" fill="white" fill-opacity="0.4"/>
</svg>
