<svg width="147" height="31" viewBox="0 0 147 31" fill="none" xmlns="http://www.w3.org/2000/svg">
<path d="M32.7582 21.4012C31.6276 21.4012 30.5319 21.2407 29.471 20.9196C28.4242 20.5986 27.5937 20.1729 26.9795 19.6425L27.9217 17.5278C28.5219 18.0024 29.2547 18.3932 30.1201 18.7003C30.9995 18.9934 31.8789 19.14 32.7582 19.14C33.847 19.14 34.6566 18.9655 35.187 18.6165C35.7313 18.2676 36.0035 17.8069 36.0035 17.2347C36.0035 16.8159 35.85 16.4739 35.5429 16.2087C35.2498 15.9296 34.8729 15.7132 34.4123 15.5597C33.9517 15.4061 33.3235 15.2316 32.5279 15.0362C31.4113 14.771 30.504 14.5058 29.806 14.2406C29.1221 13.9754 28.5289 13.5636 28.0264 13.0053C27.5378 12.433 27.2936 11.6653 27.2936 10.7022C27.2936 9.89259 27.5099 9.15978 27.9426 8.50374C28.3893 7.83374 29.0523 7.30333 29.9317 6.9125C30.825 6.52166 31.9137 6.32625 33.1979 6.32625C34.0912 6.32625 34.9706 6.43791 35.836 6.66125C36.7014 6.88458 37.4482 7.20562 38.0763 7.62437L37.2179 9.73905C36.5758 9.36218 35.9058 9.07603 35.2079 8.88062C34.51 8.6852 33.833 8.58749 33.177 8.58749C32.1022 8.58749 31.2996 8.76895 30.7692 9.13187C30.2527 9.49478 29.9945 9.97634 29.9945 10.5765C29.9945 10.9953 30.141 11.3373 30.4342 11.6025C30.7413 11.8677 31.1251 12.0771 31.5857 12.2306C32.0464 12.3841 32.6745 12.5586 33.4701 12.754C34.5588 13.0053 35.4522 13.2705 36.1501 13.5497C36.848 13.8149 37.4412 14.2266 37.9298 14.785C38.4323 15.3433 38.6835 16.0971 38.6835 17.0462C38.6835 17.8558 38.4602 18.5886 38.0135 19.2446C37.5808 19.9007 36.9178 20.4241 36.0245 20.815C35.1311 21.2058 34.0424 21.4012 32.7582 21.4012Z" fill="#012F33"/>
<path d="M47.4753 9.88561C48.8851 9.88561 50.0157 10.2974 50.8671 11.1209C51.7186 11.9445 52.1443 13.1658 52.1443 14.785V21.1918H49.5271V15.12C49.5271 14.1429 49.2968 13.4101 48.8362 12.9215C48.3756 12.419 47.7196 12.1678 46.8681 12.1678C45.905 12.1678 45.1442 12.4609 44.5859 13.0472C44.0276 13.6195 43.7484 14.45 43.7484 15.5387V21.1918H41.1312V10.0112H43.6228V11.4559C44.0555 10.9395 44.5999 10.5486 45.2559 10.2834C45.912 10.0182 46.6517 9.88561 47.4753 9.88561Z" fill="#012F33"/>
<path d="M66.496 10.0112V21.1918H64.0044V19.7471C63.5717 20.2776 63.0343 20.6754 62.3922 20.9406C61.7641 21.2058 61.0662 21.3384 60.2985 21.3384C59.2097 21.3384 58.2327 21.1011 57.3672 20.6265C56.5158 20.1519 55.8458 19.4819 55.3572 18.6165C54.8827 17.7511 54.6454 16.7461 54.6454 15.6015C54.6454 14.457 54.8827 13.4589 55.3572 12.6075C55.8458 11.7421 56.5158 11.0721 57.3672 10.5975C58.2327 10.1229 59.2097 9.88561 60.2985 9.88561C61.0243 9.88561 61.6873 10.0112 62.2875 10.2625C62.9017 10.5137 63.4321 10.8836 63.8788 11.3722V10.0112H66.496ZM60.5916 19.0981C61.5547 19.0981 62.3503 18.777 62.9785 18.135C63.6066 17.4929 63.9207 16.6484 63.9207 15.6015C63.9207 14.5547 63.6066 13.7102 62.9785 13.0681C62.3503 12.426 61.5547 12.105 60.5916 12.105C59.6285 12.105 58.8329 12.426 58.2047 13.0681C57.5906 13.7102 57.2835 14.5547 57.2835 15.6015C57.2835 16.6484 57.5906 17.4929 58.2047 18.135C58.8329 18.777 59.6285 19.0981 60.5916 19.0981Z" fill="#012F33"/>
<path d="M75.0499 21.3384C73.8913 21.3384 72.8515 21.0941 71.9302 20.6056C71.009 20.117 70.2901 19.4401 69.7737 18.5747C69.2572 17.6953 68.999 16.7042 68.999 15.6015C68.999 14.4988 69.2572 13.5148 69.7737 12.6494C70.2901 11.7839 71.002 11.107 71.9093 10.6184C72.8305 10.1299 73.8774 9.88561 75.0499 9.88561C76.1526 9.88561 77.1157 10.1089 77.9393 10.5556C78.7767 11.0023 79.4049 11.6444 79.8236 12.4819L77.8136 13.6544C77.4926 13.1379 77.0878 12.754 76.5993 12.5028C76.1247 12.2376 75.6012 12.105 75.0289 12.105C74.0519 12.105 73.2423 12.426 72.6002 13.0681C71.9581 13.6962 71.6371 14.5407 71.6371 15.6015C71.6371 16.6624 71.9511 17.5138 72.5793 18.1559C73.2214 18.784 74.0379 19.0981 75.0289 19.0981C75.6012 19.0981 76.1247 18.9725 76.5993 18.7212C77.0878 18.456 77.4926 18.0652 77.8136 17.5487L79.8236 18.7212C79.3909 19.5587 78.7558 20.2078 77.9183 20.6684C77.0948 21.1151 76.1386 21.3384 75.0499 21.3384Z" fill="#012F33"/>
<path d="M86.5481 16.3972L84.601 18.2397V21.1918H81.9838V5.65625H84.601V15.0362L90.0238 10.0112H93.1644L88.4953 14.7012L93.6041 21.1918H90.4216L86.5481 16.3972Z" fill="#012F33"/>
<path d="M95.5458 6.53562H101.953C103.516 6.53562 104.905 6.8427 106.119 7.45687C107.334 8.05708 108.276 8.91551 108.946 10.0322C109.616 11.1349 109.951 12.4121 109.951 13.8637C109.951 15.3154 109.616 16.5996 108.946 17.7162C108.276 18.8189 107.334 19.6774 106.119 20.2915C104.905 20.8917 103.516 21.1918 101.953 21.1918H95.5458V6.53562ZM101.827 18.8887C102.902 18.8887 103.844 18.6863 104.654 18.2815C105.477 17.8628 106.105 17.2765 106.538 16.5228C106.985 15.7551 107.208 14.8687 107.208 13.8637C107.208 12.8587 106.985 11.9794 106.538 11.2256C106.105 10.4579 105.477 9.87165 104.654 9.46686C103.844 9.04812 102.902 8.83874 101.827 8.83874H98.2677V18.8887H101.827Z" fill="#012F33"/>
<path d="M123.417 10.0112V21.1918H120.926V19.7681C120.507 20.2706 119.983 20.6614 119.355 20.9406C118.727 21.2058 118.05 21.3384 117.324 21.3384C115.831 21.3384 114.651 20.9266 113.786 20.1031C112.934 19.2656 112.509 18.0303 112.509 16.3972V10.0112H115.126V16.0412C115.126 17.0462 115.349 17.8 115.796 18.3025C116.257 18.791 116.906 19.0353 117.743 19.0353C118.678 19.0353 119.418 18.7491 119.962 18.1768C120.521 17.5906 120.8 16.7531 120.8 15.6643V10.0112H123.417Z" fill="#012F33"/>
<path d="M133.125 20.5846C132.818 20.8359 132.441 21.0243 131.994 21.15C131.562 21.2756 131.101 21.3384 130.613 21.3384C129.384 21.3384 128.435 21.0174 127.765 20.3753C127.095 19.7332 126.76 18.798 126.76 17.5697V7.54062H129.377V10.095H132.371V12.1887H129.377V17.5068C129.377 18.0512 129.51 18.47 129.775 18.7631C130.054 19.0423 130.438 19.1818 130.927 19.1818C131.513 19.1818 132.001 19.0283 132.392 18.7212L133.125 20.5846Z" fill="#012F33"/>
<path d="M146.113 10.0112V19.4959C146.113 23.4321 144.18 25.4003 140.313 25.4003C139.294 25.4003 138.317 25.2607 137.382 24.9815C136.461 24.7163 135.7 24.3255 135.1 23.809L136.272 21.8409C136.747 22.2457 137.326 22.5667 138.01 22.804C138.694 23.0413 139.413 23.16 140.167 23.16C141.311 23.16 142.149 22.8808 142.679 22.3225C143.224 21.7781 143.496 20.9336 143.496 19.789V19.2656C143.077 19.7262 142.568 20.0821 141.967 20.3334C141.367 20.5707 140.718 20.6893 140.02 20.6893C138.527 20.6893 137.347 20.2776 136.482 19.454C135.63 18.6305 135.205 17.3952 135.205 15.7481V10.0112H137.822V15.4131C137.822 16.4041 138.045 17.1509 138.492 17.6534C138.952 18.1419 139.601 18.3862 140.439 18.3862C141.374 18.3862 142.114 18.1001 142.658 17.5278C143.217 16.9555 143.496 16.125 143.496 15.0362V10.0112H146.113Z" fill="#012F33"/>
<path fill-rule="evenodd" clip-rule="evenodd" d="M6.24998 1.55542C4.61028 2.348 3.16418 3.59017 1.92018 5.29285C0.632165 7.21925 5.63905e-05 9.28522 0 11.5348C0 11.535 0 11.5352 0 11.5354C6.05383e-06 11.7769 0.00729664 12.0205 0.0218422 12.2663C0.15945 14.5917 0.93357 16.6546 2.37793 18.4708C2.93172 19.1671 3.59276 19.206 4.21648 18.5833C4.89438 17.9065 5.57221 17.2297 6.24998 16.5528V1.55542Z" fill="#FF5B1A"/>
<path fill-rule="evenodd" clip-rule="evenodd" d="M6.24902 16.5539V1.55601C7.71042 0.849427 9.32561 0.5 11.0886 0.5C11.5487 0.5 12.0189 0.5238 12.499 0.571264V10.3087C10.4162 12.391 8.33291 14.4727 6.24902 16.5539Z" fill="#FF7E26"/>
<path fill-rule="evenodd" clip-rule="evenodd" d="M12.5 0.571289C12.5111 0.572391 12.5223 0.573505 12.5334 0.574633C14.5346 0.777134 16.3438 1.56407 17.9321 2.82328C18.659 3.39948 18.7243 4.08011 18.0722 4.73268C16.2152 6.59096 14.3578 8.44881 12.5 10.3062V0.571289Z" fill="#FF9A2F"/>
<path fill-rule="evenodd" clip-rule="evenodd" d="M6.24982 21.4596V30.2902C4.61658 29.9686 3.09666 29.2781 1.6794 28.2262C0.837687 27.6015 0.785639 26.9145 1.51899 26.1821C3.09556 24.6076 4.67256 23.0335 6.24982 21.4596Z" fill="#FF5B1A"/>
<path fill-rule="evenodd" clip-rule="evenodd" d="M6.24854 30.2901V21.4609C8.23897 19.4748 10.2298 17.489 12.2206 15.5033L12.4985 15.2261V29.7454C11.6014 30.0861 10.6476 30.3146 9.64218 30.442C8.4593 30.5544 7.32911 30.503 6.24854 30.2901Z" fill="#FF7E26"/>
<path fill-rule="evenodd" clip-rule="evenodd" d="M12.5005 29.7444V15.2238L12.6822 15.0425C13.5376 14.1894 14.3949 13.3382 15.2531 12.488C15.9697 11.778 16.6333 11.8011 17.2297 12.5937C18.5654 14.3684 19.366 16.3428 19.5034 18.5827C19.7205 22.1224 18.5645 25.1229 15.9936 27.5547C14.9551 28.537 13.7859 29.2559 12.5005 29.7444Z" fill="#FF9A2F"/>
</svg>
