<svg width="48" height="49" viewBox="0 0 48 49" fill="none" xmlns="http://www.w3.org/2000/svg">
<path d="M24 6.79541L20.176 18.4214C19.9803 19.0164 19.6476 19.5572 19.2047 20.0001C18.7618 20.443 18.221 20.7757 17.626 20.9714L6 24.7954L17.626 28.6194C18.221 28.8151 18.7618 29.1478 19.2047 29.5907C19.6476 30.0337 19.9803 30.5744 20.176 31.1694L24 42.7954L27.824 31.1694C28.0197 30.5744 28.3524 30.0337 28.7953 29.5907C29.2382 29.1478 29.779 28.8151 30.374 28.6194L42 24.7954L30.374 20.9714C29.779 20.7757 29.2382 20.443 28.7953 20.0001C28.3524 19.5572 28.0197 19.0164 27.824 18.4214L24 6.79541Z" stroke="#12201C" stroke-width="4" stroke-linecap="round" stroke-linejoin="round"/>
<path d="M10 6.79541V14.7954" stroke="#12201C" stroke-width="4" stroke-linecap="round" stroke-linejoin="round"/>
<path d="M38 34.7954V42.7954" stroke="#12201C" stroke-width="4" stroke-linecap="round" stroke-linejoin="round"/>
<path d="M6 10.7954H14" stroke="#12201C" stroke-width="4" stroke-linecap="round" stroke-linejoin="round"/>
<path d="M34 38.7954H42" stroke="#12201C" stroke-width="4" stroke-linecap="round" stroke-linejoin="round"/>
</svg>
