<svg width="81" height="33" viewBox="0 0 81 33" fill="none" xmlns="http://www.w3.org/2000/svg">
<g clip-path="url(#clip0_1801_928)">
<mask id="mask0_1801_928" style="mask-type:luminance" maskUnits="userSpaceOnUse" x="0" y="0" width="81" height="33">
<path d="M80.9277 0.79541H0.927734V32.7954H80.9277V0.79541Z" fill="white"/>
</mask>
<g mask="url(#mask0_1801_928)">
<path fill-rule="evenodd" clip-rule="evenodd" d="M11.0904 28.0509C11.3467 27.4393 12.0565 27.1487 12.6756 27.4022L12.766 27.4435C13.3227 27.7254 13.5759 28.3873 13.3323 28.9684L12.0381 32.0551C11.7818 32.6668 11.0719 32.9572 10.4528 32.7038C9.83373 32.4506 9.53975 31.7493 9.79619 31.1376L11.0904 28.0509ZM59.4524 11.0555C62.6942 11.0555 65.3227 13.6523 65.3227 16.855C65.3227 20.0577 62.6942 22.654 59.4524 22.654C58.1687 22.654 56.9817 22.247 56.0155 21.5564V26.3702H53.5886V16.855C53.5886 13.6523 56.2107 11.0555 59.4524 11.0555ZM24.7344 11.3488L28.1581 19.6603L31.6428 11.3488H34.0696L27.821 26.2527H25.3942L27.0348 22.3395L22.3077 11.3488H24.7344ZM4.80136 20.5401C5.42048 20.2867 6.13027 20.5772 6.38671 21.1888L6.42107 21.2812C6.61294 21.8695 6.31821 22.5145 5.73006 22.755L2.60575 24.0336C1.98664 24.2871 1.27685 23.9965 1.02041 23.3849C0.763965 22.7733 1.058 22.072 1.67711 21.8187L4.80136 20.5401ZM17.0721 11.0529C20.4063 11.0529 21.8795 12.5111 21.8795 14.3685V14.599H19.4866V14.4731C19.4866 13.6073 18.7623 12.8675 17.0721 12.8675C15.5556 12.8675 14.701 13.3956 14.701 14.4087C14.701 16.7755 22.0938 14.5775 22.0938 19.0751C22.0938 21.1015 20.4063 22.5381 17.1372 22.5381C13.5046 22.5381 12.159 20.9969 12.159 19.2654C12.159 19.1797 12.159 19.0751 12.1779 18.9894H14.5735V19.0966C14.5735 19.9837 15.4498 20.7021 17.1372 20.7021C18.7405 20.7021 19.7009 20.1955 19.7009 19.1394C19.7009 16.8585 12.3082 18.9706 12.3082 14.4944C12.3082 12.4682 14.0607 11.0529 17.0721 11.0529ZM47.2263 11.0532C50.1323 11.0532 51.8845 12.5521 51.8845 16.141V22.2419H49.4578V16.141C49.4699 14.03 48.5513 13.0802 46.9487 13.0802C45.3461 13.0802 44.4332 14.1143 44.4332 16.2465V22.2419H42.0065V16.141C42.0065 14.03 41.0939 13.0802 39.4915 13.0802C37.889 13.0802 36.9819 14.1143 36.9819 16.2465V22.2419H34.5552V16.2465C34.5552 12.6576 36.3289 11.0532 39.235 11.0532C41.1155 11.0532 42.4186 11.6654 43.1451 13.1008H43.359C44.0855 11.7079 45.3673 11.0532 47.2263 11.0532ZM69.2297 7.00368V22.2274H66.8029V7.00368H69.2297ZM75.6671 11.0556C77.0752 11.0556 78.2444 11.4604 79.0502 12.2269C79.9156 13.0498 80.3551 14.2479 80.3551 15.7891V16.1026H77.9487V15.7676C77.9487 14.1353 77.181 13.3071 75.6671 13.3071C74.1561 13.3071 73.3868 14.1353 73.3868 15.7676V22.2271H70.9601V15.7676C70.9601 12.7737 72.6775 11.0556 75.6671 11.0556ZM59.4551 13.4532C57.5569 13.4532 56.0124 14.9791 56.0124 16.855C56.0124 18.7304 57.5569 20.2562 59.4551 20.2562C61.3538 20.2562 62.8983 18.7304 62.8983 16.855C62.8983 14.9791 61.3538 13.4532 59.4551 13.4532ZM1.02041 10.2059C1.27685 9.59424 1.98664 9.3038 2.60575 9.55716L5.73006 10.8358C6.34916 11.0891 6.64315 11.7903 6.38671 12.402L6.34491 12.4912C6.05951 13.0413 5.38952 13.2914 4.80136 13.0508L1.67711 11.7722C1.058 11.5188 0.763965 10.8175 1.02041 10.2059ZM10.4528 0.886967C11.0719 0.633611 11.7818 0.924109 12.0381 1.53577L13.3323 4.62249C13.5888 5.23409 13.2948 5.93534 12.6756 6.1887L12.5821 6.22265C11.9867 6.41221 11.3339 6.12103 11.0904 5.53995L9.79619 2.45324C9.53975 1.84157 9.83373 1.14032 10.4528 0.886967ZM22.2071 1.53573C22.4635 0.924073 23.1733 0.633626 23.7924 0.886983L23.8827 0.928279C24.4395 1.21024 24.6926 1.87217 24.449 2.4532L23.1549 5.53991C22.8985 6.15157 22.1886 6.44207 21.5695 6.18871C20.9504 5.93535 20.6565 5.23411 20.9129 4.62245L22.2071 1.53573Z" fill="white"/>
</g>
</g>
<defs>
<clipPath id="clip0_1801_928">
<rect width="80" height="32" fill="white" transform="translate(0.927734 0.79541)"/>
</clipPath>
</defs>
</svg>
