<svg width="48" height="49" viewBox="0 0 48 49" fill="none" xmlns="http://www.w3.org/2000/svg">
<path d="M4 24.7954C4 13.7954 13 4.79541 24 4.79541C27.1049 4.79541 30.1672 5.51831 32.9443 6.90687C35.7214 8.29542 38.1371 10.3115 40 12.7954" stroke="#12201C" stroke-width="4" stroke-linecap="round" stroke-linejoin="round"/>
<path d="M10 39.7954C11 36.7954 12 30.7954 12 24.7954C12 23.3954 12.24 22.0554 12.68 20.7954" stroke="#12201C" stroke-width="4" stroke-linecap="round" stroke-linejoin="round"/>
<path d="M34.5801 42.8354C34.8201 41.6354 35.4401 38.2354 35.5801 36.7954" stroke="#12201C" stroke-width="4" stroke-linecap="round" stroke-linejoin="round"/>
<path d="M24.0005 20.7954C22.9396 20.7954 21.9222 21.2168 21.172 21.967C20.4219 22.7171 20.0005 23.7345 20.0005 24.7954C20.0005 26.8354 19.8005 29.8154 19.4805 32.7954" stroke="#12201C" stroke-width="4" stroke-linecap="round" stroke-linejoin="round"/>
<path d="M17.3008 44.7954C17.7208 43.4754 18.2008 42.1554 18.4408 40.7954" stroke="#12201C" stroke-width="4" stroke-linecap="round" stroke-linejoin="round"/>
<path d="M28 27.0356C28 31.7956 28 39.7956 26 44.7956" stroke="#12201C" stroke-width="4" stroke-linecap="round" stroke-linejoin="round"/>
<path d="M4 32.7954H4.02" stroke="#12201C" stroke-width="4" stroke-linecap="round" stroke-linejoin="round"/>
<path d="M43.5996 32.7954C43.9996 28.7954 43.8616 22.0874 43.5996 20.7954" stroke="#12201C" stroke-width="4" stroke-linecap="round" stroke-linejoin="round"/>
<path d="M18 14.3953C19.8248 13.3417 21.8948 12.7873 24.0019 12.7876C26.109 12.7879 28.1789 13.3431 30.0033 14.3972C31.8278 15.4513 33.3425 16.9673 34.3952 18.7926C35.4479 20.6179 36.0014 22.6882 36 24.7953C36 25.7353 36 27.1353 35.96 28.7953" stroke="#12201C" stroke-width="4" stroke-linecap="round" stroke-linejoin="round"/>
</svg>
