<svg width="167" height="33" viewBox="0 0 167 33" fill="none" xmlns="http://www.w3.org/2000/svg">
<g clip-path="url(#clip0_1833_960)">
<mask id="mask0_1833_960" style="mask-type:luminance" maskUnits="userSpaceOnUse" x="10" y="6" width="157" height="22">
<path d="M166.491 6.32959H10.998V27.2614H166.491V6.32959Z" fill="white"/>
</mask>
<g mask="url(#mask0_1833_960)">
<path d="M80.3672 6.32959L89.4437 27.2128H94.8282L85.7517 6.32959H80.3672Z" fill="white"/>
<path d="M55.8809 27.2128H61.2654L70.3422 6.32959H64.9575L55.8809 27.2128Z" fill="white"/>
<path d="M37.1623 20.7647L32.9921 11.1484H27.0017L22.8317 20.7647L16.255 6.32959H10.998L20.5125 27.2128H25.2549L29.9968 16.2776L34.7389 27.2128H39.4814L48.996 6.32959H43.7389L37.1623 20.7647Z" fill="white"/>
<path d="M129.546 14.2174C129.544 12.1494 128.65 10.1668 127.061 8.7045C125.472 7.24224 123.318 6.41975 121.071 6.41748H105.557V27.2123H110.404V22.0177H120.385L122.643 27.2123H127.864L125.179 21.0345C126.501 20.3598 127.603 19.3719 128.371 18.1733C129.139 16.9747 129.545 15.6089 129.546 14.2174ZM110.404 10.879H121.071C122.029 10.8847 122.945 11.239 123.62 11.8645C124.296 12.4899 124.675 13.3358 124.675 14.2175C124.675 15.0991 124.296 15.945 123.62 16.5704C122.945 17.1959 122.029 17.5502 121.071 17.556H110.404V10.879Z" fill="white"/>
<path d="M158.016 6.41748H142.533V27.2123H147.35V22.0177H158.017C160.259 22.0088 162.406 21.1832 163.986 19.7214C165.568 18.2596 166.456 16.2807 166.456 14.2177C166.456 12.1548 165.568 10.1759 163.986 8.7141C162.406 7.25228 160.258 6.42632 158.016 6.41748ZM158.016 17.556H147.35V10.879H158.017C158.975 10.8847 159.892 11.239 160.567 11.8645C161.242 12.4899 161.621 13.3358 161.621 14.2175C161.621 15.0991 161.242 15.945 160.567 16.5704C159.892 17.1959 158.974 17.5502 158.016 17.556Z" fill="white"/>
<path d="M77.7951 12.4409H72.9473V17.2287H77.7951V12.4409Z" fill="white"/>
<path d="M72.9473 27.2132V27.262H77.7951V27.2132V22.4741H72.9473V27.2132Z" fill="white"/>
</g>
</g>
<defs>
<clipPath id="clip0_1833_960">
<rect width="165.493" height="32" fill="white" transform="translate(0.998047 0.79541)"/>
</clipPath>
</defs>
</svg>
